<svg width="18" height="20" viewBox="0 0 18 20" fill="none" xmlns="http://www.w3.org/2000/svg">
<path fill-rule="evenodd" clip-rule="evenodd" d="M0.5 8.31776C0.5 3.71789 4.34388 0 8.99344 0C13.6561 0 17.5 3.71789 17.5 8.31776C17.5 10.6357 16.657 12.7876 15.2695 14.6116C13.7388 16.6235 11.8522 18.3765 9.72854 19.7524C9.24251 20.0704 8.80387 20.0944 8.27045 19.7524C6.13473 18.3765 4.24809 16.6235 2.7305 14.6116C1.34198 12.7876 0.5 10.6357 0.5 8.31776ZM6.19531 8.57673C6.19531 10.1177 7.45274 11.3297 8.99453 11.3297C10.5373 11.3297 11.8069 10.1177 11.8069 8.57673C11.8069 7.04778 10.5373 5.77681 8.99453 5.77681C7.45274 5.77681 6.19531 7.04778 6.19531 8.57673Z" fill="#076B8F"/>
</svg>
