<svg width="15" height="16" viewBox="0 0 15 16" fill="none" xmlns="http://www.w3.org/2000/svg">
<path d="M14.2381 11.3901C13.869 11.1778 12.0549 10.1523 11.7163 10.0107C11.3782 9.86911 11.1318 9.79833 10.8858 10.223C10.6399 10.6477 9.93269 11.6025 9.71732 11.8856C9.50195 12.1688 9.28657 12.2039 8.91793 11.9915C8.54879 11.7792 7.35957 11.3318 5.95005 9.88667C4.85299 8.76204 4.11226 7.37352 3.89689 6.94938C3.68152 6.52467 3.87372 6.29532 4.05854 6.0841C4.22462 5.89383 4.42767 5.58861 4.612 5.34114C4.79632 5.09368 4.85792 4.91644 4.98113 4.63386C5.10434 4.35072 5.04274 4.10326 4.95058 3.8909C4.85842 3.67855 4.12014 1.59124 3.81261 0.742391C3.51297 -0.0843762 3.20888 0.0277471 2.98218 0.0147227C2.7673 0.00226459 2.52088 0 2.27495 0C2.02903 0 1.62933 0.105894 1.29075 0.530604C0.952667 0.955313 -0.000976562 1.98084 -0.000976562 4.06815C-0.000976562 6.15545 1.32131 8.17197 1.50613 8.45455C1.69045 8.73769 4.10832 13.0205 7.81052 14.8575C8.69123 15.2946 9.37824 15.5551 9.91445 15.7505C10.7986 16.0733 11.6029 16.028 12.2392 15.9187C12.9484 15.7969 14.4224 14.8931 14.73 13.9027C15.0375 12.9123 15.0375 12.0629 14.9454 11.8862C14.8532 11.709 14.6073 11.6025 14.2381 11.3901Z" fill="#076B8F"/>
</svg>
