<?xml version="1.0" encoding="utf-8"?>
<!-- Generator: Adobe Illustrator 23.0.1, SVG Export Plug-In . SVG Version: 6.00 Build 0)  -->
<svg version="1.1" id="Слой_1" xmlns="http://www.w3.org/2000/svg" xmlns:xlink="http://www.w3.org/1999/xlink" x="0px" y="0px"
	 viewBox="0 0 24 30" style="enable-background:new 0 0 24 30;" xml:space="preserve">
<style type="text/css">
	.st0{fill:#E71B4C;}
	.st1{fill-rule:evenodd;clip-rule:evenodd;fill:#FFFFFF;}
</style>
<path class="st0" d="M21,30H3c-1.7,0-3-1.3-3-3V3c0-1.7,1.3-3,3-3h10.5c0,0,0,0,0,0h0c0,0,0,0,0,0c0.1,0,0.3,0,0.4,0.1h0h0h0
	c0,0,0.1,0,0.1,0.1c0.2,0.1,0.3,0.2,0.4,0.3l9,9c0.1,0.1,0.2,0.3,0.3,0.4c0,0,0,0.1,0,0.1l0,0c0,0.1,0.1,0.3,0.1,0.4c0,0,0,0,0,0v0
	c0,0,0,0,0,0V27c0,0.8-0.3,1.6-0.9,2.1C22.6,29.7,21.8,30,21,30z M13.5,3v7.5H21L13.5,3z"/>
<path class="st1" d="M5.8,20.7c0-1.4,1.1-2.6,2.6-2.6h6.3c1.4,0,2.6,1.1,2.6,2.6v1.6c0,2.3-1.9,4.1-4.1,4.1H9.9
	c-2.3,0-4.1-1.9-4.1-4.1V20.7z M8.3,19.2c-0.8,0-1.5,0.7-1.5,1.5v1.6c0,1.7,1.4,3.1,3.1,3.1H13c1.7,0,3.1-1.4,3.1-3.1v-1.6
	c0-0.8-0.7-1.5-1.5-1.5H8.3z"/>
<path class="st1" d="M11.4,23.8c-0.3,0-0.6-0.3-0.6-0.6v-1.8c0-0.3,0.3-0.6,0.6-0.6c0.3,0,0.6,0.3,0.6,0.6v1.8
	C12,23.6,11.8,23.8,11.4,23.8z"/>
<path class="st1" d="M10.1,13.4c-0.3,0.3-0.6,0.7-0.6,1.4v3.4c0,0.3-0.3,0.6-0.6,0.6c-0.3,0-0.6-0.3-0.6-0.6v-3.4c0-1,0.4-1.8,1-2.3
	c0.6-0.5,1.4-0.8,2.2-0.8c0.8,0,1.6,0.2,2.2,0.8c0.6,0.5,1,1.3,1,2.3v3.4c0,0.3-0.3,0.6-0.6,0.6c-0.3,0-0.6-0.3-0.6-0.6v-3.4
	c0-0.7-0.2-1.1-0.6-1.4C12.5,13.1,12,13,11.4,13C10.9,13,10.4,13.1,10.1,13.4z"/>
</svg>
