<svg width="17" height="14" viewBox="0 0 17 14" fill="none" xmlns="http://www.w3.org/2000/svg">
<path d="M0.593262 10.8721V2.17441C0.593262 1.30103 1.30128 0.593018 2.17466 0.593018H14.8258C15.6992 0.593018 16.4072 1.30103 16.4072 2.17441V10.8721C16.4072 11.7455 15.6992 12.4535 14.8258 12.4535H2.17466C1.30128 12.4535 0.593262 11.7455 0.593262 10.8721Z" fill="#076B8F"/>
<path fill-rule="evenodd" clip-rule="evenodd" d="M2.17442 1.18605C1.62856 1.18605 1.18605 1.62856 1.18605 2.17442V10.8721C1.18605 11.418 1.62856 11.8605 2.17442 11.8605H14.8256C15.3714 11.8605 15.814 11.418 15.814 10.8721V2.17442C15.814 1.62856 15.3714 1.18605 14.8256 1.18605H2.17442ZM0 2.17442C0 0.97352 0.973521 0 2.17442 0H14.8256C16.0265 0 17 0.973521 17 2.17442V10.8721C17 12.073 16.0265 13.0465 14.8256 13.0465H2.17442C0.973521 13.0465 0 12.073 0 10.8721V2.17442Z" fill="#076B8F"/>
<path fill-rule="evenodd" clip-rule="evenodd" d="M0.841787 3.51492C0.974805 3.21563 1.32526 3.08084 1.62455 3.21386L8.41969 6.23392C8.47081 6.25664 8.52915 6.25664 8.58026 6.23392L15.3754 3.21386C15.6747 3.08084 16.0252 3.21563 16.1582 3.51492C16.2912 3.81421 16.1564 4.16466 15.8571 4.29768L9.06196 7.31775C8.70418 7.47676 8.29578 7.47676 7.93799 7.31775L1.14285 4.29768C0.84356 4.16466 0.70877 3.81421 0.841787 3.51492Z" fill="white"/>
<path fill-rule="evenodd" clip-rule="evenodd" d="M6.11855 6.85705C6.05492 6.82735 5.98031 6.83364 5.92255 6.87358L1.72085 9.77846C1.45144 9.96471 1.08206 9.8973 0.895809 9.6279C0.709555 9.3585 0.776961 8.98912 1.04636 8.80287L5.24806 5.89799C5.65239 5.61845 6.17468 5.5744 6.62011 5.78227L8.41629 6.62049C8.46928 6.64521 8.53049 6.64521 8.58348 6.62049L10.3797 5.78227C10.8251 5.5744 11.3474 5.61845 11.7517 5.89799L15.9534 8.80287C16.2228 8.98912 16.2902 9.3585 16.104 9.6279C15.9177 9.8973 15.5483 9.96471 15.2789 9.77846L11.0772 6.87358C11.0195 6.83364 10.9448 6.82735 10.8812 6.85705L9.08504 7.69526C8.71414 7.86835 8.28563 7.86835 7.91473 7.69526L6.11855 6.85705Z" fill="white"/>
</svg>
