<svg width="20" height="22" viewBox="0 0 20 22" fill="none" xmlns="http://www.w3.org/2000/svg">
<path fill-rule="evenodd" clip-rule="evenodd" d="M0.5 11.4995C0.5 9.42844 2.17893 7.74951 4.25 7.74951H15.7504C17.8214 7.74951 19.5004 9.42844 19.5004 11.4995V17.9998C19.5004 20.0708 17.8214 21.7498 15.7504 21.7498H4.25C2.17893 21.7498 0.5 20.0708 0.5 17.9998V11.4995ZM4.25 9.24951C3.00736 9.24951 2 10.2569 2 11.4995V17.9998C2 19.2424 3.00736 20.2498 4.25 20.2498H15.7504C16.993 20.2498 18.0004 19.2424 18.0004 17.9998V11.4995C18.0004 10.2569 16.993 9.24951 15.7504 9.24951H4.25Z" fill="#B0B0BD"/>
<path fill-rule="evenodd" clip-rule="evenodd" d="M7.08777 2.91461C6.30919 3.67843 5.75 4.85773 5.75 6.51817V8.49979C5.75 8.914 5.41421 9.24979 5 9.24979C4.58579 9.24979 4.25 8.914 4.25 8.49979V6.51817C4.25 4.49953 4.94084 2.91954 6.0373 1.84385C7.12562 0.776156 8.569 0.249614 10.0001 0.249634C11.4312 0.249654 12.8746 0.776235 13.9629 1.84394C15.0594 2.91964 15.7502 4.49962 15.7502 6.51822V8.49979C15.7502 8.914 15.4144 9.24979 15.0002 9.24979C14.586 9.24979 14.2502 8.914 14.2502 8.49979V6.51822C14.2502 4.85783 13.691 3.67853 12.9124 2.91469C12.1257 2.14286 11.069 1.74965 10.0001 1.74963C8.93116 1.74962 7.87448 2.1428 7.08777 2.91461Z" fill="#B0B0BD"/>
<path fill-rule="evenodd" clip-rule="evenodd" d="M10 16.75C9.58579 16.75 9.25 16.4142 9.25 16L9.25 13.4999C9.25 13.0857 9.58579 12.7499 10 12.7499C10.4142 12.7499 10.75 13.0857 10.75 13.4999L10.75 16C10.75 16.4142 10.4142 16.75 10 16.75Z" fill="#B0B0BD"/>
</svg>
