<?xml version="1.0" encoding="utf-8"?>
<!-- Generator: Adobe Illustrator 23.0.1, SVG Export Plug-In . SVG Version: 6.00 Build 0)  -->
<svg version="1.1" id="Слой_1" xmlns="http://www.w3.org/2000/svg" xmlns:xlink="http://www.w3.org/1999/xlink" x="0px" y="0px"
	 viewBox="0 0 24 30" style="enable-background:new 0 0 24 30;" xml:space="preserve">
<style type="text/css">
	.st0{fill:#EC7501;}
	.st1{fill:#FFFFFF;}
</style>
<path class="st0" d="M21,30H3c-1.7,0-3-1.3-3-3V3c0-1.7,1.3-3,3-3h10.5c0,0,0,0,0,0h0c0,0,0,0,0,0c0.1,0,0.3,0,0.4,0.1h0h0h0
	c0,0,0.1,0,0.1,0.1c0.2,0.1,0.3,0.2,0.4,0.3l9,9c0.1,0.1,0.2,0.3,0.3,0.4c0,0,0,0.1,0,0.1l0,0c0,0.1,0.1,0.3,0.1,0.4c0,0,0,0,0,0v0
	c0,0,0,0,0,0V27c0,0.8-0.3,1.6-0.9,2.1S21.8,30,21,30z M13.5,3v7.5H21L13.5,3z"/>
<path class="st1" d="M10.5,21.8v3.4c-0.1,0.1-0.3,0.3-0.5,0.5c-0.2,0.2-0.5,0.3-0.9,0.5c-0.4,0.1-0.8,0.2-1.4,0.2
	c-0.5,0-0.9-0.1-1.3-0.2c-0.4-0.2-0.7-0.4-1-0.7c-0.3-0.3-0.5-0.7-0.6-1.1c-0.1-0.5-0.2-1-0.2-1.6v-1.5c0-0.6,0.1-1.2,0.2-1.6
	c0.1-0.5,0.3-0.8,0.6-1.1c0.3-0.3,0.6-0.5,0.9-0.7c0.4-0.2,0.8-0.2,1.3-0.2c0.6,0,1.1,0.1,1.5,0.3c0.4,0.2,0.7,0.5,0.9,0.9
	c0.2,0.4,0.3,0.9,0.4,1.5H9.1c0-0.4-0.1-0.7-0.2-0.9c-0.1-0.2-0.3-0.4-0.4-0.5c-0.2-0.1-0.4-0.2-0.7-0.2c-0.3,0-0.5,0-0.7,0.1
	c-0.2,0.1-0.4,0.2-0.5,0.4c-0.1,0.2-0.2,0.5-0.3,0.8c-0.1,0.3-0.1,0.7-0.1,1.1v1.6c0,0.4,0,0.8,0.1,1.1c0.1,0.3,0.2,0.6,0.3,0.8
	c0.1,0.2,0.3,0.3,0.5,0.4c0.2,0.1,0.5,0.1,0.7,0.1c0.3,0,0.5,0,0.6-0.1C8.6,25,8.7,25,8.8,24.9C8.9,24.8,9,24.8,9,24.7V23H7.6v-1.1
	H10.5z M13.5,17.6v8.7H12v-8.7H13.5z M16.6,17.6v8.7h-1.4v-8.7H16.6z M19.4,21.4v1.2h-3.1v-1.2H19.4z M19.8,17.6v1.2h-3.5v-1.2H19.8
	z"/>
</svg>
