<?xml version="1.0" encoding="utf-8"?>
<!-- Generator: Adobe Illustrator 23.0.1, SVG Export Plug-In . SVG Version: 6.00 Build 0)  -->
<svg version="1.1" id="Слой_1" xmlns="http://www.w3.org/2000/svg" xmlns:xlink="http://www.w3.org/1999/xlink" x="0px" y="0px"
	 viewBox="0 0 23.4 23.4" style="enable-background:new 0 0 23.4 23.4;" xml:space="preserve">
<style type="text/css">
	.st0{fill:none;stroke:#076B8F;stroke-width:2.2344;stroke-miterlimit:10;}
	.st1{fill:none;stroke:#076B8F;stroke-width:2.2344;stroke-linecap:round;stroke-linejoin:round;}
</style>
<path class="st0" d="M11.7,1.1C5.8,1.1,1.1,5.8,1.1,11.7c0,5.8,4.7,10.6,10.6,10.6c5.8,0,10.6-4.7,10.6-10.6
	C22.2,5.8,17.5,1.1,11.7,1.1z"/>
<path class="st0" d="M11.7,1.1C8.7,1.1,6,5.8,6,11.7c0,5.8,2.8,10.6,5.7,10.6c2.9,0,5.7-4.7,5.7-10.6C17.4,5.8,14.6,1.1,11.7,1.1z"
	/>
<path class="st1" d="M4.6,4.8C6.6,6.2,9,7,11.7,7c2.7,0,5.1-0.8,7-2.2"/>
<path class="st1" d="M18.7,18.5c-1.9-1.4-4.4-2.2-7-2.2c-2.7,0-5.1,0.8-7,2.2"/>
<path class="st0" d="M11.7,1.1v21.1"/>
<path class="st0" d="M22.2,11.7H1.1"/>
</svg>
