<?xml version="1.0" encoding="utf-8"?>
<!-- Generator: Adobe Illustrator 23.0.1, SVG Export Plug-In . SVG Version: 6.00 Build 0)  -->
<svg version="1.1" id="Слой_1" xmlns="http://www.w3.org/2000/svg" xmlns:xlink="http://www.w3.org/1999/xlink" x="0px" y="0px"
	 viewBox="0 0 24 30" style="enable-background:new 0 0 24 30;" xml:space="preserve">
<style type="text/css">
	.st0{fill:#EC7501;}
	.st1{fill:#FFFFFF;}
</style>
<path class="st0" d="M21,30H3c-1.7,0-3-1.3-3-3V3c0-1.7,1.3-3,3-3h10.5c0,0,0,0,0,0h0c0,0,0,0,0,0c0.1,0,0.3,0,0.4,0.1h0h0h0
	c0,0,0.1,0,0.1,0.1c0.2,0.1,0.3,0.2,0.4,0.3l9,9c0.1,0.1,0.2,0.3,0.3,0.4c0,0,0,0.1,0,0.1l0,0c0,0.1,0.1,0.3,0.1,0.4c0,0,0,0,0,0v0
	c0,0,0,0,0,0V27c0,0.8-0.3,1.6-0.9,2.1S21.8,30,21,30z M13.5,3v7.5H21L13.5,3z"/>
<path class="st1" d="M4.1,25.3H3l0-0.9h1.1c0.3,0,0.6-0.1,0.8-0.2c0.2-0.1,0.3-0.3,0.4-0.6c0.1-0.3,0.1-0.6,0.1-1v-1
	c0-0.3,0-0.6-0.1-0.8c0-0.2-0.1-0.4-0.2-0.5C5,20.2,4.9,20.1,4.7,20c-0.2-0.1-0.4-0.1-0.6-0.1H3v-0.9h1.1c0.4,0,0.7,0.1,1,0.2
	c0.3,0.1,0.5,0.3,0.7,0.5C6,20,6.2,20.2,6.3,20.6c0.1,0.3,0.2,0.7,0.2,1.1v1c0,0.4-0.1,0.8-0.2,1.1c-0.1,0.3-0.3,0.6-0.5,0.8
	c-0.2,0.2-0.5,0.4-0.7,0.5C4.8,25.2,4.5,25.3,4.1,25.3z M3.6,19.1v6.2h-1v-6.2H3.6z M11.7,21.7v1.1c0,0.4-0.1,0.8-0.2,1.1
	c-0.1,0.3-0.2,0.6-0.4,0.8c-0.2,0.2-0.4,0.4-0.7,0.5c-0.3,0.1-0.6,0.2-0.9,0.2c-0.3,0-0.6-0.1-0.9-0.2c-0.3-0.1-0.5-0.3-0.7-0.5
	c-0.2-0.2-0.3-0.5-0.4-0.8c-0.1-0.3-0.2-0.7-0.2-1.1v-1.1c0-0.4,0.1-0.8,0.2-1.2c0.1-0.3,0.2-0.6,0.4-0.8c0.2-0.2,0.4-0.4,0.7-0.5
	C8.9,19.1,9.2,19,9.6,19c0.3,0,0.6,0.1,0.9,0.2c0.3,0.1,0.5,0.3,0.7,0.5c0.2,0.2,0.3,0.5,0.4,0.8C11.7,20.8,11.7,21.2,11.7,21.7z
	 M10.7,22.7v-1.1c0-0.3,0-0.6-0.1-0.8c0-0.2-0.1-0.4-0.2-0.6C10.3,20.2,10.2,20,10,20c-0.1-0.1-0.3-0.1-0.5-0.1
	c-0.2,0-0.3,0-0.5,0.1c-0.1,0.1-0.3,0.2-0.4,0.3c-0.1,0.1-0.2,0.3-0.2,0.6c0,0.2-0.1,0.5-0.1,0.8v1.1c0,0.3,0,0.6,0.1,0.8
	c0.1,0.2,0.1,0.4,0.2,0.5c0.1,0.1,0.2,0.2,0.4,0.3c0.1,0.1,0.3,0.1,0.5,0.1c0.2,0,0.3,0,0.5-0.1c0.1-0.1,0.3-0.2,0.4-0.3
	c0.1-0.1,0.2-0.3,0.2-0.5C10.7,23.3,10.7,23,10.7,22.7z M15.8,23.2h1c0,0.4-0.1,0.8-0.3,1.1c-0.2,0.3-0.4,0.5-0.7,0.7
	c-0.3,0.2-0.7,0.2-1.1,0.2c-0.3,0-0.6-0.1-0.9-0.2c-0.3-0.1-0.5-0.3-0.7-0.5c-0.2-0.2-0.3-0.5-0.4-0.8c-0.1-0.3-0.1-0.7-0.1-1.1
	v-1.1c0-0.4,0-0.8,0.1-1.1c0.1-0.3,0.2-0.6,0.4-0.8c0.2-0.2,0.4-0.4,0.7-0.5c0.3-0.1,0.6-0.2,0.9-0.2c0.4,0,0.8,0.1,1.1,0.2
	c0.3,0.2,0.5,0.4,0.7,0.7c0.2,0.3,0.3,0.7,0.3,1.2h-1c0-0.3-0.1-0.6-0.1-0.7c-0.1-0.2-0.2-0.3-0.3-0.4c-0.1-0.1-0.3-0.1-0.6-0.1
	c-0.2,0-0.4,0-0.5,0.1c-0.1,0.1-0.3,0.2-0.3,0.3c-0.1,0.1-0.2,0.3-0.2,0.5c0,0.2-0.1,0.5-0.1,0.8v1.1c0,0.3,0,0.5,0.1,0.8
	c0,0.2,0.1,0.4,0.2,0.6c0.1,0.2,0.2,0.3,0.3,0.3c0.1,0.1,0.3,0.1,0.5,0.1c0.2,0,0.4,0,0.6-0.1c0.1-0.1,0.3-0.2,0.3-0.4
	C15.7,23.8,15.8,23.6,15.8,23.2z M18.6,19.1l1,2.2l1-2.2h1.2l-1.5,3.1l1.6,3.1h-1.2l-1-2.3l-1,2.3h-1.2l1.6-3.1l-1.6-3H18.6z"/>
</svg>
