<svg width="32" height="32" viewBox="0 0 32 32" fill="none" xmlns="http://www.w3.org/2000/svg">
<mask id="mask0_1147_9867" style="mask-type:alpha" maskUnits="userSpaceOnUse" x="0" y="0" width="32" height="32">
<rect width="32" height="32" rx="4" fill="#D9D9D9"/>
</mask>
<g mask="url(#mask0_1147_9867)">
<path fill-rule="evenodd" clip-rule="evenodd" d="M1.05634 -0.397168C-0.930978 0.701038 -0.983212 1.11448 -0.998598 15.916C-1.01399 30.9433 -0.940291 31.4985 1.20292 32.4719C2.87238 33.2306 29.4266 33.1474 30.9167 32.3791C32.9214 31.3454 33 30.7281 33 15.9968C33 1.26548 32.9214 0.648147 30.9167 -0.385459C29.342 -1.19741 2.52334 -1.20831 1.05634 -0.397168ZM20.3748 5.80326C20.5643 7.13362 22.9755 9.49598 24.4425 9.78829C25.6565 10.0305 25.7115 10.127 25.7115 12.0097C25.7115 13.5085 25.5638 13.978 25.0912 13.978C24.1956 13.978 21.6114 12.8459 20.7663 12.0832C20.0751 11.4594 20.0428 11.6649 20.0428 16.6783C20.0428 21.378 19.9452 22.1096 19.1102 23.6842C18.0174 25.745 15.4567 27.3019 13.1592 27.3019C9.66845 27.3019 6.27568 23.9503 6.27568 20.5019C6.27568 17.2395 8.86753 14.2288 12.1303 13.7007L13.5641 13.4685V15.0552C13.5641 16.5071 13.4414 16.6864 12.1239 17.1612C11.1577 17.5097 10.471 18.125 10.0381 19.0306C8.28162 22.7035 13.4556 25.7842 15.9888 22.5731C16.7459 21.613 16.8034 20.946 16.8034 13.093V4.6453L18.5243 4.76965C19.9557 4.87261 20.2671 5.04663 20.3748 5.80326Z" fill="#076B8F"/>
</g>
</svg>
