<?xml version="1.0" encoding="utf-8"?>
<!-- Generator: Adobe Illustrator 23.0.1, SVG Export Plug-In . SVG Version: 6.00 Build 0)  -->
<svg version="1.1" id="Слой_1" xmlns="http://www.w3.org/2000/svg" xmlns:xlink="http://www.w3.org/1999/xlink" x="0px" y="0px"
	 viewBox="0 0 24 30" style="enable-background:new 0 0 24 30;" xml:space="preserve">
<style type="text/css">
	.st0{fill:#EC7501;}
	.st1{fill:#FFFFFF;}
</style>
<path class="st0" d="M21,30H3c-1.7,0-3-1.3-3-3V3c0-1.7,1.3-3,3-3h10.5c0,0,0,0,0,0h0c0,0,0,0,0,0c0.1,0,0.3,0,0.4,0.1h0h0h0
	c0,0,0.1,0,0.1,0.1c0.2,0.1,0.3,0.2,0.4,0.3l9,9c0.1,0.1,0.2,0.3,0.3,0.4c0,0,0,0.1,0,0.1l0,0c0,0.1,0.1,0.3,0.1,0.4c0,0,0,0,0,0v0
	c0,0,0,0,0,0V27c0,0.8-0.3,1.6-0.9,2.1C22.6,29.7,21.8,30,21,30z M13.5,3v7.5H21L13.5,3z"/>
<path class="st1" d="M2.8,26.5v-8h2.1c0.9,0,1.7,0.3,2.2,0.9C7.7,20,8,20.8,8,21.8v1.3c0,1-0.3,1.9-0.8,2.5
	c-0.6,0.6-1.3,0.9-2.3,0.9H2.8z M4.4,19.8v5.3h0.5c0.5,0,0.9-0.1,1.1-0.4c0.2-0.3,0.3-0.8,0.3-1.5v-1.4c0-0.7-0.1-1.3-0.3-1.6
	C5.9,20,5.5,19.8,5,19.8H4.4z"/>
<path class="st1" d="M14.8,23.2c0,1.1-0.3,1.9-0.8,2.5c-0.5,0.6-1.2,0.9-2.1,0.9c-0.9,0-1.6-0.3-2.1-0.9C9.3,25.1,9,24.3,9,23.2
	v-1.4c0-1.1,0.3-2,0.8-2.6c0.5-0.6,1.2-0.9,2.1-0.9c0.9,0,1.6,0.3,2.1,0.9c0.5,0.6,0.8,1.5,0.8,2.5V23.2z M13.2,21.8
	c0-0.7-0.1-1.3-0.3-1.6c-0.2-0.4-0.5-0.5-1-0.5c-0.4,0-0.7,0.2-0.9,0.5c-0.2,0.3-0.3,0.8-0.3,1.5v1.4c0,0.7,0.1,1.2,0.3,1.5
	c0.2,0.3,0.5,0.5,1,0.5c0.4,0,0.7-0.2,0.9-0.5c0.2-0.3,0.3-0.8,0.3-1.5V21.8z"/>
<path class="st1" d="M21.3,23.8c0,0.9-0.3,1.6-0.8,2.1c-0.5,0.5-1.1,0.7-2,0.7c-0.9,0-1.6-0.3-2.1-0.9c-0.5-0.6-0.7-1.4-0.7-2.5
	v-1.3c0-1.1,0.2-1.9,0.7-2.5c0.5-0.6,1.2-0.9,2.1-0.9c0.9,0,1.5,0.2,2,0.7c0.5,0.5,0.7,1.2,0.8,2.1h-1.6c0-0.6-0.1-0.9-0.3-1.2
	c-0.2-0.2-0.4-0.3-0.9-0.3c-0.4,0-0.7,0.2-0.9,0.5c-0.2,0.3-0.3,0.8-0.3,1.5v1.5c0,0.8,0.1,1.3,0.3,1.6c0.2,0.3,0.5,0.4,0.9,0.4
	c0.4,0,0.7-0.1,0.9-0.3c0.2-0.2,0.3-0.6,0.3-1.1H21.3z"/>
</svg>
