<svg width="15" height="15" viewBox="0 0 15 15" fill="none" xmlns="http://www.w3.org/2000/svg">
<path fill-rule="evenodd" clip-rule="evenodd" d="M14.6185 0.0237175C14.7569 0.0637758 14.9376 0.255944 14.9789 0.407057C15.0237 0.571191 14.9945 1.11362 14.9166 1.56145C14.7281 2.64642 14.2012 3.70128 13.4574 4.48321C13.3326 4.61444 12.5813 5.29936 11.7878 6.00531C10.2853 7.34204 10.1638 7.46644 10.0004 7.83579C9.81774 8.2484 9.82854 8.04016 9.81175 11.4716L9.7964 14.6094L9.72828 14.7188C9.59291 14.9363 9.32913 15.0455 9.09194 14.9821C9.00201 14.9581 8.38634 14.5645 7.16211 13.7485C6.17336 13.0894 5.34178 12.5247 5.31413 12.4936C5.17319 12.3352 5.17363 12.3419 5.1731 10.3508C5.17255 8.31162 5.17043 8.28101 5.00269 7.8821C4.83078 7.47336 4.73436 7.37318 3.19686 6.00575C2.40339 5.30007 1.65264 4.61447 1.52849 4.48224C0.818867 3.72621 0.337185 2.80771 0.106427 1.77042C0.0496321 1.51514 0.0297327 1.32353 0.0167303 0.907141L0 0.371955L0.0753145 0.258261C0.116729 0.19574 0.201026 0.113248 0.262664 0.0749781L0.374697 0.00538924L7.44831 0.000579901C11.8572 -0.00241128 14.5583 0.00629833 14.6185 0.0237175ZM1.23257 1.40567C1.32641 1.93358 1.6176 2.64965 1.92423 3.10642C2.20943 3.53131 2.44727 3.76647 3.86748 5.02778C4.65849 5.7303 5.36976 6.37223 5.44806 6.45431C5.76112 6.78246 6.03327 7.23879 6.18325 7.68699C6.33649 8.145 6.34741 8.30699 6.34753 10.1252L6.34765 11.7992L7.4776 12.5518C8.09908 12.9657 8.61364 13.3044 8.62107 13.3044C8.62852 13.3044 8.63941 12.1596 8.64528 10.7604C8.65687 8.00163 8.64948 8.1323 8.82227 7.62996C8.96524 7.2143 9.23289 6.77454 9.53738 6.45495C9.61528 6.37319 10.3262 5.73112 11.1172 5.0281C11.9886 4.25365 12.6303 3.6602 12.7455 3.52234C13.2818 2.88047 13.6523 2.08687 13.7681 1.33236L13.7939 1.16374H7.49175H1.18957L1.23257 1.40567Z" fill="#668EA9"/>
</svg>
