<?xml version="1.0" encoding="utf-8"?>
<!-- Generator: Adobe Illustrator 23.0.1, SVG Export Plug-In . SVG Version: 6.00 Build 0)  -->
<svg version="1.1" id="Слой_1" xmlns="http://www.w3.org/2000/svg" xmlns:xlink="http://www.w3.org/1999/xlink" x="0px" y="0px"
	 viewBox="0 0 24 30" style="enable-background:new 0 0 24 30;" xml:space="preserve">
<style type="text/css">
	.st0{fill:#EC7501;}
	.st1{fill:#FFFFFF;}
</style>
<path class="st0" d="M21,30H3c-1.7,0-3-1.3-3-3V3c0-1.7,1.3-3,3-3h10.5c0,0,0,0,0,0h0c0,0,0,0,0,0c0.1,0,0.3,0,0.4,0.1h0h0h0
	c0,0,0.1,0,0.1,0.1c0.2,0.1,0.3,0.2,0.4,0.3l9,9c0.1,0.1,0.2,0.3,0.3,0.4c0,0,0,0.1,0,0.1l0,0c0,0.1,0.1,0.3,0.1,0.4c0,0,0,0,0,0v0
	c0,0,0,0,0,0V27c0,0.8-0.3,1.6-0.9,2.1S21.8,30,21,30z M13.5,3v7.5H21L13.5,3z"/>
<path class="st1" d="M4.7,23.1H2.8v-1.2h1.8c0.3,0,0.5-0.1,0.7-0.2c0.2-0.1,0.3-0.3,0.4-0.5c0.1-0.2,0.1-0.5,0.1-0.8
	c0-0.3,0-0.5-0.1-0.8c-0.1-0.2-0.2-0.4-0.4-0.6c-0.2-0.1-0.4-0.2-0.7-0.2H3.2v7.4H1.8v-8.7h2.9c0.6,0,1.1,0.1,1.5,0.4
	c0.4,0.2,0.7,0.6,0.9,1c0.2,0.4,0.3,0.9,0.3,1.4c0,0.6-0.1,1-0.3,1.4c-0.2,0.4-0.5,0.7-0.9,0.9C5.7,22.9,5.2,23.1,4.7,23.1z
	 M11.5,23.1H9.7v-1.2h1.8c0.3,0,0.5-0.1,0.7-0.2c0.2-0.1,0.3-0.3,0.4-0.5c0.1-0.2,0.1-0.5,0.1-0.8c0-0.3,0-0.5-0.1-0.8
	c-0.1-0.2-0.2-0.4-0.4-0.6c-0.2-0.1-0.4-0.2-0.7-0.2h-1.4v7.4H8.7v-8.7h2.9c0.6,0,1.1,0.1,1.5,0.4c0.4,0.2,0.7,0.6,0.9,1
	c0.2,0.4,0.3,0.9,0.3,1.4c0,0.6-0.1,1-0.3,1.4c-0.2,0.4-0.5,0.7-0.9,0.9C12.6,22.9,12.1,23.1,11.5,23.1z M18.6,17.6v8.7h-1.4v-8.7
	H18.6z M20.9,17.6v1.2H15v-1.2H20.9z"/>
</svg>
