<svg width="37" height="31" viewBox="0 0 37 31" fill="none" xmlns="http://www.w3.org/2000/svg">
<path d="M11.8741 14.8427C13.2969 15.4248 14.3964 16.3626 15.1725 17.6561C16.0132 18.8849 16.4336 20.3724 16.4336 22.1186C16.4336 24.4469 15.6899 26.3547 14.2023 27.8422C12.7148 29.3298 10.8716 30.0735 8.6727 30.0735C6.34443 30.0735 4.43654 29.3298 2.94903 27.8422C1.46153 26.3547 0.717773 24.4469 0.717773 22.1186C0.717773 20.9544 0.847122 19.8226 1.10582 18.7232C1.42919 17.6237 2.01126 15.9745 2.85202 13.7756L7.99362 0H15.7545L11.8741 14.8427ZM32.4405 14.8427C33.8633 15.4248 34.9628 16.3626 35.7389 17.6561C36.5796 18.8849 37 20.3724 37 22.1186C37 24.4469 36.2562 26.3547 34.7687 27.8422C33.2812 29.3298 31.438 30.0735 29.2391 30.0735C26.9108 30.0735 25.0029 29.3298 23.5154 27.8422C22.0279 26.3547 21.2842 24.4469 21.2842 22.1186C21.2842 20.9544 21.4135 19.8226 21.6722 18.7232C21.9956 17.6237 22.5777 15.9745 23.4184 13.7756L28.56 0H36.3209L32.4405 14.8427Z" fill="#EC7501"/>
</svg>
