<?xml version="1.0" encoding="utf-8"?>
<!-- Generator: Adobe Illustrator 23.0.1, SVG Export Plug-In . SVG Version: 6.00 Build 0)  -->
<svg version="1.1" id="Слой_1" xmlns="http://www.w3.org/2000/svg" xmlns:xlink="http://www.w3.org/1999/xlink" x="0px" y="0px"
	 viewBox="0 0 24 30" style="enable-background:new 0 0 24 30;" xml:space="preserve">
<style type="text/css">
	.st0{fill:#EC7501;}
	.st1{fill:#FFFFFF;}
</style>
<path class="st0" d="M21,30H3c-1.7,0-3-1.3-3-3V3c0-1.7,1.3-3,3-3h10.5c0,0,0,0,0,0h0c0,0,0,0,0,0c0.1,0,0.3,0,0.4,0.1h0h0h0
	c0,0,0.1,0,0.1,0.1c0.2,0.1,0.3,0.2,0.4,0.3l9,9c0.1,0.1,0.2,0.3,0.3,0.4c0,0,0,0.1,0,0.1l0,0c0,0.1,0.1,0.3,0.1,0.4c0,0,0,0,0,0v0
	c0,0,0,0,0,0V27c0,0.8-0.3,1.6-0.9,2.1S21.8,30,21,30z M13.5,3v7.5H21L13.5,3z"/>
<path class="st1" d="M4,17.6l1.4,3.1l1.4-3.1h1.6l-2.2,4.3l2.2,4.4H6.8l-1.4-3.2l-1.4,3.2H2.3l2.2-4.4l-2.2-4.3H4z M14.2,25.1v1.2
	h-3.6v-1.2H14.2z M11,17.6v8.7H9.6v-8.7H11z M19.1,24c0-0.2,0-0.3-0.1-0.5c0-0.1-0.1-0.3-0.2-0.4c-0.1-0.1-0.2-0.2-0.4-0.3
	c-0.2-0.1-0.4-0.2-0.7-0.3c-0.3-0.1-0.7-0.3-1-0.4c-0.3-0.2-0.6-0.3-0.8-0.5c-0.2-0.2-0.4-0.4-0.5-0.7c-0.1-0.3-0.2-0.6-0.2-0.9
	c0-0.4,0.1-0.7,0.2-1c0.1-0.3,0.3-0.5,0.5-0.8c0.2-0.2,0.5-0.4,0.8-0.5c0.3-0.1,0.7-0.2,1.1-0.2c0.6,0,1,0.1,1.4,0.4
	c0.4,0.2,0.7,0.6,0.9,1c0.2,0.4,0.3,0.8,0.3,1.3h-1.4c0-0.3,0-0.5-0.1-0.7c-0.1-0.2-0.2-0.4-0.4-0.5c-0.2-0.1-0.4-0.2-0.7-0.2
	c-0.3,0-0.5,0.1-0.7,0.2c-0.2,0.1-0.3,0.2-0.4,0.4c-0.1,0.2-0.1,0.4-0.1,0.6c0,0.2,0,0.3,0.1,0.4c0.1,0.1,0.2,0.2,0.3,0.4
	c0.1,0.1,0.3,0.2,0.5,0.3c0.2,0.1,0.4,0.2,0.6,0.3c0.4,0.1,0.8,0.3,1.1,0.5c0.3,0.2,0.5,0.4,0.7,0.6c0.2,0.2,0.3,0.5,0.4,0.7
	c0.1,0.3,0.1,0.6,0.1,0.9c0,0.4-0.1,0.7-0.2,1c-0.1,0.3-0.3,0.5-0.5,0.7c-0.2,0.2-0.5,0.4-0.8,0.5c-0.3,0.1-0.7,0.2-1.1,0.2
	c-0.4,0-0.7-0.1-1.1-0.2c-0.3-0.1-0.6-0.3-0.9-0.5c-0.3-0.2-0.5-0.5-0.6-0.9c-0.2-0.3-0.2-0.7-0.2-1.2h1.4c0,0.3,0,0.5,0.1,0.7
	c0.1,0.2,0.2,0.4,0.3,0.5c0.1,0.1,0.3,0.2,0.5,0.3c0.2,0.1,0.4,0.1,0.6,0.1c0.3,0,0.5,0,0.7-0.1c0.2-0.1,0.3-0.2,0.4-0.4
	C19.1,24.5,19.1,24.3,19.1,24z"/>
</svg>
