<svg width="32" height="33" viewBox="0 0 32 33" fill="none" xmlns="http://www.w3.org/2000/svg">
<path d="M12.3336 13.874H11.1667C10.8333 13.874 10.7666 14.031 10.7666 14.204C10.7666 14.513 11.1622 16.0456 12.6087 18.0727C13.573 19.457 14.9316 20.2074 16.1679 20.2074C16.9096 20.2074 17.0014 20.0407 17.0014 19.7536V18.7074C17.0014 18.374 17.0717 18.3075 17.3065 18.3075C17.4796 18.3075 17.7763 18.394 18.4687 19.0615C18.7042 19.2969 18.8812 19.4938 19.0253 19.6541C19.3654 20.0323 19.5228 20.2074 19.8354 20.2074H21.0023C21.3357 20.2074 21.5024 20.0407 21.4063 19.7118C21.301 19.384 20.9233 18.9084 20.422 18.3446C20.2841 18.1817 20.1112 18.0124 19.9582 17.8625C19.8094 17.7168 19.6794 17.5894 19.6184 17.5041C19.4453 17.2816 19.4948 17.1827 19.6184 16.985C19.6184 16.985 21.0401 14.9827 21.1885 14.3029C21.2627 14.0557 21.1885 13.874 20.8356 13.874H19.6687C19.372 13.874 19.2352 14.031 19.161 14.204C19.161 14.204 18.5676 15.6501 17.7269 16.5895C17.4549 16.8614 17.3313 16.9479 17.1829 16.9479C17.1087 16.9479 17.0014 16.8614 17.0014 16.6142V14.3029C17.0014 14.0062 16.9153 13.874 16.668 13.874H14.8342C14.6488 13.874 14.5373 14.0117 14.5373 14.1422C14.5373 14.2495 14.5985 14.3254 14.6767 14.4221C14.8033 14.5788 14.9741 14.7903 15.0009 15.2793V16.9974C15.0009 17.374 14.9329 17.4423 14.7845 17.4423C14.3889 17.4423 13.4266 15.9897 12.8559 14.3276C12.7441 14.0045 12.6319 13.874 12.3336 13.874Z" fill="white"/>
<path fill-rule="evenodd" clip-rule="evenodd" d="M5 0.874023C2.23858 0.874023 0 3.1126 0 5.87402V27.874C0 30.6354 2.23858 32.874 5 32.874H27C29.7614 32.874 32 30.6354 32 27.874V5.87402C32 3.1126 29.7614 0.874023 27 0.874023H5ZM8 16.5407C8 12.9266 8 11.1195 9.12276 9.99678C10.2455 8.87402 12.0526 8.87402 15.6667 8.87402H16.3333C19.9474 8.87402 21.7545 8.87402 22.8772 9.99678C24 11.1195 24 12.9266 24 16.5407V17.2074C24 20.8215 24 22.6285 22.8772 23.7513C21.7545 24.874 19.9474 24.874 16.3333 24.874H15.6667C12.0526 24.874 10.2455 24.874 9.12276 23.7513C8 22.6285 8 20.8215 8 17.2074V16.5407Z" fill="white"/>
</svg>
