<svg width="24" height="31" viewBox="0 0 24 31" fill="none" xmlns="http://www.w3.org/2000/svg">
<path d="M21 31H3C1.34315 31 0 29.6568 0 28V3.99996C0 2.34311 1.34315 0.999964 3 0.999964H13.5C13.5134 0.998221 13.5271 0.998221 13.5405 0.999964H13.5495C13.5637 1.0044 13.5782 1.00742 13.593 1.00896C13.7253 1.01744 13.8559 1.04316 13.9815 1.08546H14.0445C14.0722 1.10485 14.0983 1.12642 14.1225 1.14996C14.2859 1.2226 14.4348 1.32424 14.562 1.44996L23.562 10.45C23.6877 10.5771 23.7894 10.726 23.862 10.8895C23.8755 10.9225 23.886 10.954 23.8965 10.9885L23.9115 11.0305C23.9534 11.1556 23.9781 11.2857 23.985 11.4175C23.9863 11.4324 23.9898 11.4471 23.9955 11.461V11.47C23.998 11.4798 23.9995 11.4898 24 11.5V28C24 28.7956 23.6839 29.5587 23.1213 30.1213C22.5587 30.6839 21.7956 31 21 31ZM17.1915 19C16.4989 18.9614 15.832 19.2674 15.4095 19.8175C14.9631 20.5057 14.7496 21.3192 14.8005 22.138V23.452C14.7576 24.2625 14.992 25.0634 15.465 25.723C15.9153 26.2487 16.5842 26.5357 17.2755 26.5C17.7045 26.5044 18.1303 26.426 18.5295 26.269H18.5415H18.5325C18.5464 26.2608 18.5609 26.2537 18.576 26.248H18.5835L18.6075 26.236L18.639 26.221C18.9664 26.0703 19.2572 25.8502 19.491 25.576V22.5595H17.175V23.6725H18.1305V25.012L18.0105 25.102C17.8156 25.226 17.5873 25.2872 17.3565 25.2775C16.9934 25.3061 16.6438 25.1333 16.446 24.8275C16.2322 24.3742 16.1378 23.8739 16.1715 23.374V22.0495C16.1455 21.5728 16.2345 21.097 16.431 20.662C16.5925 20.3743 16.9042 20.2042 17.2335 20.224C17.4839 20.2031 17.7302 20.2975 17.9025 20.4805C18.0814 20.7641 18.1751 21.0931 18.1725 21.4285H19.5C19.5027 20.7583 19.2732 20.108 18.8505 19.588C18.4044 19.169 17.8019 18.9558 17.1915 19ZM4.5 24.25C4.4678 24.8441 4.65102 25.43 5.016 25.9C5.3822 26.3078 5.9131 26.5283 6.4605 26.5C7.00408 26.513 7.52386 26.2771 7.872 25.8595C8.25473 25.3759 8.44924 24.77 8.4195 24.154V19.1005H7.05V24.0835C7.05 24.8755 6.8505 25.2835 6.45 25.2835C6.0495 25.2835 5.8605 24.9355 5.8605 24.25H4.5ZM9.4905 19.1065V26.4055H10.8555V23.833H11.766C12.3743 23.8665 12.9683 23.6409 13.401 23.212C13.8113 22.7457 14.0224 22.1371 13.989 21.517C14.0156 20.8802 13.8014 20.2569 13.389 19.771C12.9829 19.3207 12.3973 19.0749 11.7915 19.1005L9.4905 19.1065ZM13.5 3.99996V11.5H21L13.5 3.99996ZM11.793 22.6H10.8555V20.3275H11.808C12.0474 20.3285 12.2691 20.4541 12.393 20.659C12.5512 20.9195 12.6275 21.2215 12.612 21.526C12.6307 21.8096 12.5559 22.0915 12.399 22.3285C12.2528 22.5117 12.027 22.6128 11.793 22.6Z" fill="#EC7501"/>
</svg>
