<svg width="32" height="33" viewBox="0 0 32 33" fill="none" xmlns="http://www.w3.org/2000/svg">
<path fill-rule="evenodd" clip-rule="evenodd" d="M5 0.874023H27C29.7614 0.874023 32 3.1126 32 5.87402V27.874C32 30.6354 29.7614 32.874 27 32.874H5C2.23858 32.874 0 30.6354 0 27.874V5.87402C0 3.1126 2.23858 0.874023 5 0.874023ZM16.6919 12.8814C15.2589 13.4774 12.3949 14.7111 8.09992 16.5823C7.40248 16.8597 7.03714 17.131 7.00388 17.3963C6.94767 17.8447 7.50915 18.0212 8.27374 18.2616C8.37774 18.2943 8.4855 18.3282 8.59598 18.3641C9.34822 18.6087 10.3601 18.8947 10.8862 18.9061C11.3633 18.9164 11.8959 18.7197 12.4839 18.3159C16.4968 15.6071 18.5683 14.2379 18.6983 14.2084C18.7901 14.1876 18.9172 14.1614 19.0034 14.238C19.0895 14.3145 19.0811 14.4595 19.0719 14.4984C19.0163 14.7356 16.8123 16.7846 15.6717 17.845C15.3161 18.1756 15.0639 18.4101 15.0124 18.4636C14.8969 18.5836 14.7791 18.6971 14.666 18.8061C13.9672 19.4798 13.4431 19.985 14.695 20.81C15.2967 21.2065 15.7781 21.5343 16.2584 21.8614C16.7829 22.2186 17.306 22.5749 17.9829 23.0186C18.1554 23.1316 18.3201 23.2491 18.4805 23.3634C19.0909 23.7986 19.6393 24.1896 20.3168 24.1272C20.7105 24.091 21.1172 23.7208 21.3237 22.6167C21.8118 20.0075 22.7712 14.3541 22.9929 12.0245C23.0123 11.8204 22.9879 11.5592 22.9683 11.4445C22.9486 11.3298 22.9076 11.1665 22.7586 11.0455C22.582 10.9023 22.3095 10.8721 22.1877 10.8741C21.6335 10.884 20.7834 11.1796 16.6919 12.8814Z" fill="white"/>
</svg>
