<svg width="25" height="25" viewBox="0 0 25 25" fill="none" xmlns="http://www.w3.org/2000/svg">
<path fill-rule="evenodd" clip-rule="evenodd" d="M4.90435 0.0805769C4.08699 0.300986 3.48124 0.915851 3.26641 1.74311C3.16322 2.14043 3.1501 5.03858 3.24997 5.37751C3.33417 5.66333 3.76394 6.09436 4.04891 6.17881C4.1922 6.22127 4.69984 6.24208 5.59232 6.24208H6.9222V12.9872C6.9222 18.131 6.93719 19.7832 6.98528 19.9465C7.06948 20.2324 7.49925 20.6634 7.78423 20.7478C7.93379 20.7922 8.53409 20.8111 9.78827 20.8111H11.5787L11.6417 20.9635C11.6763 21.0472 11.7492 21.1562 11.8036 21.2057C11.8581 21.2551 11.9026 21.3212 11.9026 21.3525C11.9025 21.3838 11.7157 21.9321 11.4875 22.5709C11.2593 23.2096 11.0725 23.8085 11.0725 23.9017C11.0725 24.0114 11.1148 24.1108 11.1926 24.1842C11.3011 24.2864 11.3686 24.2973 11.892 24.2973H12.4712L12.8209 24.6151C13.2126 24.9711 13.3532 25.0438 13.5239 24.9784C13.7305 24.8991 13.801 24.7585 14.1854 23.6599C14.3932 23.066 14.5794 22.5802 14.5994 22.5802C14.6192 22.5802 14.8059 23.066 15.0141 23.6599C15.3992 24.7582 15.4701 24.899 15.6768 24.9784C15.8456 25.0431 15.9815 24.9733 16.3849 24.6151L16.7428 24.2973H17.3227C17.8617 24.2973 17.9105 24.2888 18.0154 24.1769C18.0813 24.1064 18.1281 23.9891 18.1281 23.8943C18.1281 23.8052 17.9414 23.2096 17.7132 22.5709C17.4849 21.9321 17.2982 21.3838 17.2981 21.3525C17.2981 21.3212 17.3426 21.2551 17.3971 21.2057C17.4515 21.1562 17.5244 21.0472 17.559 20.9635L17.622 20.8111H19.4124C20.6666 20.8111 21.2669 20.7922 21.4165 20.7478C21.7014 20.6634 22.1312 20.2324 22.2154 19.9465C22.2851 19.7099 22.2912 14.7409 22.2327 5.77379C22.197 0.290736 22.2292 0.728171 21.8329 0.342195C21.4555 -0.0254648 22.0473 -0.00215437 13.1774 0.00164399C6.36346 0.00455779 5.14294 0.016213 4.90435 0.0805769ZM5.93473 0.913093C6.14048 0.974335 6.28118 1.0656 6.48459 1.26962C6.90726 1.69353 6.9222 1.77823 6.9222 3.754V5.40957H5.59694H4.27163L4.14432 5.28183L4.01695 5.15414V3.62626C4.01695 1.79218 4.03609 1.68931 4.45523 1.26894C4.86694 0.856014 5.35165 0.739409 5.93473 0.913093ZM21.2606 0.949776L21.3793 1.06883L21.4138 7.4408C21.4328 10.9454 21.4484 15.1426 21.4484 16.7679V19.7232L21.3211 19.8509L21.1938 19.9786H19.4015C18.1339 19.9786 17.6094 19.9618 17.6094 19.9214C17.6094 19.8338 17.7717 19.5103 17.8157 19.5103C17.8372 19.5103 17.9724 19.3941 18.1163 19.252C18.4193 18.9528 18.5703 18.5894 18.5148 18.2925C18.4656 18.0299 18.2271 17.6775 17.9796 17.5018C17.6761 17.2863 17.6006 17.1001 17.6405 16.6652C17.6956 16.0637 17.5403 15.7104 17.1245 15.4914C16.9427 15.3956 16.8329 15.3792 16.4216 15.3865C15.8525 15.3967 15.7685 15.3631 15.5093 15.022C15.2932 14.7377 14.8803 14.501 14.6003 14.501C14.3264 14.501 13.9044 14.7389 13.707 15.0047C13.447 15.3549 13.3456 15.3966 12.7804 15.3865C12.3678 15.3792 12.2581 15.3955 12.0762 15.4914C11.6604 15.7104 11.5051 16.0637 11.5602 16.6652C11.6001 17.1001 11.5246 17.2863 11.2211 17.5018C10.9736 17.6775 10.7351 18.0299 10.6859 18.2925C10.6304 18.5894 10.7814 18.9528 11.0844 19.252C11.2283 19.3941 11.3635 19.5103 11.385 19.5103C11.429 19.5103 11.5913 19.8338 11.5913 19.9214C11.5913 19.9618 11.0691 19.9786 9.80726 19.9786C8.12798 19.9786 8.01597 19.9728 7.90069 19.8791L7.77821 19.7797L7.75227 10.7865L7.72633 1.79332L7.61199 1.51334C7.54911 1.35937 7.43793 1.14282 7.36483 1.03204L7.23202 0.830726H14.1869H21.1419L21.2606 0.949776ZM11.6149 3.03976C11.5346 3.12025 11.4876 3.22692 11.4876 3.32827C11.4876 3.42963 11.5346 3.5363 11.6149 3.61679L11.7423 3.74453H14.6003H17.4584L17.5857 3.61679C17.6661 3.5363 17.7131 3.42963 17.7131 3.32827C17.7131 3.22692 17.6661 3.12025 17.5857 3.03976L17.4584 2.91202H14.6003H11.7423L11.6149 3.03976ZM9.12474 5.95356C9.04443 6.03406 8.99737 6.14072 8.99737 6.24208C8.99737 6.34344 9.04443 6.45011 9.12474 6.5306L9.25205 6.65834H14.6003H19.9486L20.076 6.5306C20.2445 6.36165 20.2445 6.12251 20.076 5.95356L19.9486 5.82582H14.6003H9.25205L9.12474 5.95356ZM9.12474 8.03485C9.04443 8.11535 8.99737 8.22201 8.99737 8.32337C8.99737 8.42473 9.04443 8.5314 9.12474 8.61189L9.25205 8.73963H14.6003H19.9486L20.076 8.61189C20.2445 8.44294 20.2445 8.2038 20.076 8.03485L19.9486 7.90711H14.6003H9.25205L9.12474 8.03485ZM9.12474 10.1161C9.04443 10.1966 8.99737 10.3033 8.99737 10.4047C8.99737 10.506 9.04443 10.6127 9.12474 10.6932L9.25205 10.8209H14.6003H19.9486L20.076 10.6932C20.2445 10.5242 20.2445 10.2851 20.076 10.1161L19.9486 9.9884H14.6003H9.25205L9.12474 10.1161ZM9.12474 12.1974C9.04443 12.2779 8.99737 12.3846 8.99737 12.486C8.99737 12.5873 9.04443 12.694 9.12474 12.7745L9.25205 12.9022H14.6003H19.9486L20.076 12.7745C20.2445 12.6055 20.2445 12.3664 20.076 12.1974L19.9486 12.0697H14.6003H9.25205L9.12474 12.1974ZM14.9424 15.6369C15.3362 16.0992 15.5503 16.1977 16.2325 16.2307L16.8052 16.2583L16.8072 16.7786C16.809 17.2379 16.8254 17.3301 16.9468 17.5643C17.0273 17.7195 17.2149 17.943 17.3988 18.1028C17.5716 18.253 17.7131 18.399 17.7131 18.4272C17.7131 18.4554 17.5623 18.6193 17.378 18.7915C16.9013 19.2369 16.8052 19.4578 16.8052 20.1087V20.629L16.2345 20.6565C15.5462 20.6897 15.3813 20.7623 14.9511 21.2219C14.7875 21.3966 14.6297 21.5396 14.6003 21.5396C14.571 21.5396 14.4132 21.3966 14.2496 21.2219C13.8194 20.7623 13.6545 20.6897 12.9661 20.6565L12.3955 20.629V20.1087C12.3955 19.4578 12.2994 19.2369 11.8227 18.7915C11.6384 18.6193 11.4876 18.4554 11.4876 18.4272C11.4876 18.399 11.6291 18.253 11.8019 18.1028C11.9843 17.9443 12.1744 17.7182 12.2548 17.5643C12.3807 17.3231 12.3925 17.2509 12.385 16.7711L12.3768 16.2433L12.9568 16.2246C13.4743 16.2079 13.5624 16.1909 13.7744 16.066C13.905 15.9891 14.1228 15.796 14.2583 15.6369C14.3938 15.4779 14.5477 15.3477 14.6003 15.3477C14.653 15.3477 14.8069 15.4779 14.9424 15.6369ZM14.1853 16.4051C13.5913 16.539 13.11 16.8858 12.8133 17.3935C12.2092 18.4274 12.6213 19.7658 13.7091 20.3029C14.032 20.4623 14.0876 20.4729 14.6003 20.4729C15.1131 20.4729 15.1687 20.4623 15.4916 20.3029C16.6395 19.7361 17.0135 18.3383 16.3027 17.2708C15.8491 16.5894 14.967 16.2288 14.1853 16.4051ZM15.1706 17.3455C16.011 17.7612 16.0573 18.9833 15.2515 19.4829C15.0267 19.6223 14.9519 19.6404 14.6003 19.6404C14.2488 19.6404 14.174 19.6223 13.9492 19.4829C13.7918 19.3853 13.6355 19.2286 13.5382 19.0707C13.4021 18.85 13.3812 18.7669 13.3812 18.4477C13.3812 18.1508 13.4063 18.0349 13.5109 17.8499C13.8525 17.2455 14.5436 17.0354 15.1706 17.3455ZM13.3849 21.5544C13.4441 21.5892 13.5785 21.7143 13.6836 21.8325L13.8749 22.0475L13.5659 22.9181C13.396 23.397 13.2447 23.8011 13.2296 23.8162C13.2147 23.8313 13.1083 23.7583 12.9933 23.6542C12.7942 23.4738 12.7668 23.4648 12.4157 23.4648C12.1152 23.4648 12.0525 23.4509 12.076 23.3894C12.0919 23.3479 12.2508 22.903 12.4292 22.4008L12.7537 21.4875L13.0155 21.4894C13.1596 21.4904 13.3258 21.5196 13.3849 21.5544ZM16.7714 22.4008C16.9499 22.903 17.1088 23.3479 17.1247 23.3894C17.1482 23.4509 17.0855 23.4648 16.785 23.4648C16.4339 23.4648 16.4065 23.4738 16.2074 23.6542C16.0924 23.7583 15.9859 23.8311 15.9707 23.8158C15.9555 23.8006 15.8037 23.3969 15.6335 22.9188L15.3239 22.0495L15.5161 21.8335C15.7734 21.5445 15.8762 21.4915 16.1852 21.4894L16.447 21.4875L16.7714 22.4008Z" fill="#EC7501"/>
</svg>
