<svg width="22" height="17" viewBox="0 0 22 17" fill="none" xmlns="http://www.w3.org/2000/svg">
<path fill-rule="evenodd" clip-rule="evenodd" d="M3 1.75C2.30964 1.75 1.75 2.30964 1.75 3V14C1.75 14.6904 2.30964 15.25 3 15.25H19C19.6904 15.25 20.25 14.6904 20.25 14V3C20.25 2.30964 19.6904 1.75 19 1.75H3ZM0.25 3C0.25 1.48122 1.48122 0.25 3 0.25H19C20.5188 0.25 21.75 1.48122 21.75 3V14C21.75 15.5188 20.5188 16.75 19 16.75H3C1.48122 16.75 0.25 15.5188 0.25 14V3Z" fill="#B0B0BD"/>
<path fill-rule="evenodd" clip-rule="evenodd" d="M0.827003 4.22418C1.00963 3.8524 1.45907 3.69906 1.83085 3.88169L10.8899 8.33177C10.9595 8.36592 11.0409 8.36592 11.1104 8.33177L20.1695 3.88169C20.5413 3.69906 20.9907 3.8524 21.1733 4.22418C21.356 4.59596 21.2026 5.04539 20.8308 5.22802L11.7717 9.6781C11.2851 9.91714 10.7152 9.91714 10.2286 9.6781L1.16949 5.22802C0.797711 5.04539 0.644374 4.59596 0.827003 4.22418Z" fill="#B0B0BD"/>
<path fill-rule="evenodd" clip-rule="evenodd" d="M14.6179 8.62728C14.543 8.5729 14.4442 8.56437 14.3611 8.6051L11.7701 9.87468C11.2843 10.1127 10.7158 10.1127 10.23 9.87468L7.63905 8.6051C7.55593 8.56437 7.4571 8.5729 7.38218 8.62729L1.44065 12.9404C1.10544 13.1837 0.636446 13.1093 0.393113 12.7741C0.149779 12.4388 0.224255 11.9699 0.55946 11.7265L6.501 7.4134C7.02538 7.03274 7.71719 6.97299 8.29908 7.25812L10.89 8.52769C10.9594 8.5617 11.0407 8.5617 11.1101 8.52769L13.701 7.25812C14.2829 6.97299 14.9747 7.03274 15.4991 7.4134L21.4406 11.7265C21.7759 11.9699 21.8503 12.4388 21.607 12.7741C21.3637 13.1093 20.8947 13.1837 20.5595 12.9404L14.6179 8.62728Z" fill="#B0B0BD"/>
</svg>
