<svg width="24" height="31" viewBox="0 0 24 31" fill="none" xmlns="http://www.w3.org/2000/svg">
<path d="M21 31H3C1.34315 31 0 29.6568 0 28V3.99996C0 2.34311 1.34315 0.999964 3 0.999964H13.5C13.5134 0.998221 13.5271 0.998221 13.5405 0.999964H13.5495C13.5637 1.0044 13.5782 1.00742 13.593 1.00896C13.7253 1.01744 13.8559 1.04316 13.9815 1.08546H14.004H14.0265H14.0445C14.0722 1.10485 14.0983 1.12642 14.1225 1.14996C14.2859 1.2226 14.4348 1.32424 14.562 1.44996L23.562 10.45C23.6877 10.5771 23.7894 10.726 23.862 10.8895C23.8755 10.9225 23.886 10.954 23.8965 10.9885L23.9115 11.0305C23.9534 11.1556 23.9781 11.2857 23.985 11.4175C23.9863 11.4324 23.9898 11.4471 23.9955 11.461V11.47C23.998 11.4798 23.9995 11.4898 24 11.5V28C24 28.7956 23.6839 29.5587 23.1213 30.1213C22.5587 30.6839 21.7956 31 21 31ZM15.636 19V26.5H17.046V23.44H19.236V22.183H17.046V20.2615H19.5V19H15.636ZM10.086 19V26.5H11.895C12.6539 26.5373 13.3887 26.2283 13.893 25.66C14.4103 24.9998 14.6695 24.1738 14.622 23.3365V22.1215C14.6568 21.2929 14.3903 20.4798 13.872 19.8325C13.384 19.2769 12.6714 18.9711 11.9325 19H10.086ZM4.5 19V26.5H5.91V23.8615H6.849C7.47603 23.8962 8.08849 23.664 8.535 23.2225C8.96112 22.7461 9.18212 22.1208 9.15 21.4825C9.17784 20.8288 8.95702 20.1889 8.532 19.6915C8.11158 19.2253 7.50464 18.9716 6.8775 19H4.5ZM13.5 3.99996V11.5H21L13.5 3.99996ZM11.919 25.243H11.496V20.2615H12.009C12.3733 20.24 12.7235 20.405 12.939 20.6995C13.1589 21.1544 13.2532 21.6599 13.212 22.1635V23.467C13.2449 23.9466 13.1409 24.4257 12.912 24.8485C12.6661 25.1354 12.2948 25.283 11.919 25.243ZM6.8775 22.6H5.9085V20.2615H6.891C7.13628 20.2641 7.36295 20.3927 7.491 20.602C7.65333 20.8698 7.7317 21.1802 7.716 21.493C7.73481 21.7847 7.65734 22.0745 7.4955 22.318C7.34632 22.5052 7.1167 22.61 6.8775 22.6Z" fill="#EC7501"/>
</svg>
