<svg width="283" height="83" viewBox="0 0 283 83" fill="none" xmlns="http://www.w3.org/2000/svg">
<path d="M104.21 15.25L99.8802 8.93L104.04 2.93H100.83L97.0702 8.28V2.93H94.2502V15.25H97.0702V9.55L101.01 15.25H104.21ZM114.23 2.93H105.27V15.25H108.09V11.38H114.23C116.66 11.38 118.54 9.5 118.54 7.16C118.54 4.81 116.66 2.93 114.23 2.93ZM114.23 8.74H108.09V5.57H114.23C115.09 5.57 115.73 6.26 115.73 7.16C115.73 8.05 115.09 8.74 114.23 8.74ZM126.55 15.25H129.63L125.44 2.93H121.85L117.66 15.25H120.74L121.36 13.32H125.94L126.55 15.25ZM122.21 10.68L123.65 6.15L125.09 10.68H122.21ZM136.13 15.5C138.38 15.5 140.35 14.39 141.41 12.65L138.98 11.24C138.45 12.19 137.38 12.75 136.13 12.75C133.94 12.75 132.54 11.29 132.54 9.09C132.54 6.89 133.94 5.43 136.13 5.43C137.38 5.43 138.43 5.99 138.98 6.94L141.41 5.54C140.33 3.79 138.36 2.68 136.13 2.68C132.41 2.68 129.72 5.47 129.72 9.09C129.72 12.72 132.41 15.5 136.13 15.5ZM156.06 2.93V7.65H145.54V2.93H142.73V15.25H145.54V10.36H156.06V15.25H158.87V2.93H156.06ZM166.86 15.5C170.4 15.5 173.27 12.72 173.27 9.09C173.27 5.47 170.4 2.68 166.86 2.68C163.33 2.68 160.46 5.47 160.46 9.09C160.46 12.72 163.33 15.5 166.86 15.5ZM166.86 12.75C164.86 12.75 163.27 11.29 163.27 9.09C163.27 6.89 164.86 5.43 166.86 5.43C168.87 5.43 170.45 6.89 170.45 9.09C170.45 11.29 168.87 12.75 166.86 12.75ZM186.73 2.93H178.55C176.21 2.93 174.33 4.81 174.33 7.16C174.33 8.76 175.37 10.22 176.86 10.85L173.97 15.25H177.14L179.76 11.2H183.91V15.25H186.73V2.93ZM178.55 8.74C177.78 8.74 177.14 8.05 177.14 7.16C177.14 6.26 177.78 5.57 178.55 5.57H183.91V8.74H178.55ZM196.94 2.93H188.84V15.25H191.66V11.38H196.94C199.37 11.38 201.25 9.5 201.25 7.16C201.25 4.81 199.37 2.93 196.94 2.93ZM196.94 8.74H191.66V5.57H196.94C197.8 5.57 198.44 6.26 198.44 7.16C198.44 8.05 197.8 8.74 196.94 8.74ZM208.45 15.5C210.71 15.5 212.68 14.39 213.73 12.65L211.3 11.24C210.78 12.19 209.7 12.75 208.45 12.75C206.27 12.75 204.86 11.29 204.86 9.09C204.86 6.89 206.27 5.43 208.45 5.43C209.7 5.43 210.76 5.99 211.3 6.94L213.73 5.54C212.66 3.79 210.69 2.68 208.45 2.68C204.74 2.68 202.05 5.47 202.05 9.09C202.05 12.72 204.74 15.5 208.45 15.5ZM225.01 15.25L220.68 8.93L224.84 2.93H221.63L217.87 8.28V2.93H215.05V15.25H217.87V9.55L221.81 15.25H225.01ZM232.93 15.25H235.75V2.93H233.64L228.89 9.62V2.93H226.07V15.25H228.18L232.93 8.56V15.25ZM240.06 1.89H245.34V0H240.06V1.89ZM244.73 15.25H247.54V2.93H245.43L240.68 9.62V2.93H237.86V15.25H239.98L244.73 8.56V15.25ZM105 19.53H94.2502V31.85H97.0702V22.24H105V19.53ZM112.19 32.1C115.73 32.1 118.59 29.32 118.59 25.69C118.59 22.07 115.73 19.29 112.19 19.29C108.65 19.29 105.78 22.07 105.78 25.69C105.78 29.32 108.65 32.1 112.19 32.1ZM112.19 29.35C110.18 29.35 108.6 27.89 108.6 25.69C108.6 23.49 110.18 22.03 112.19 22.03C114.19 22.03 115.78 23.49 115.78 25.69C115.78 27.89 114.19 29.35 112.19 29.35ZM126.06 32.1C128.31 32.1 130.28 30.99 131.34 29.25L128.91 27.84C128.38 28.79 127.31 29.35 126.06 29.35C123.87 29.35 122.47 27.89 122.47 25.69C122.47 23.49 123.87 22.03 126.06 22.03C127.31 22.03 128.36 22.6 128.91 23.55L131.34 22.14C130.26 20.4 128.29 19.29 126.06 19.29C122.34 19.29 119.65 22.07 119.65 25.69C119.65 29.32 122.34 32.1 126.06 32.1ZM139.17 19.53L137 24.92L134.59 19.53H131.78L135.72 28C135.24 28.86 134.54 29.34 133.26 29.21V31.85C135.56 31.98 137.34 30.89 138.43 28.23L141.99 19.53H139.17ZM152.62 29.14V19.53H143.41V25.06C143.41 27.15 143.01 28.33 142.44 29.14H141.19V34.21H144.01V31.85H151.12V34.21H153.94V29.14H152.62ZM145.44 29.14C145.88 28.35 146.23 27.12 146.23 25.09V22.17H149.8V29.14H145.44ZM163.36 31.85H166.44L162.25 19.53H158.66L154.47 31.85H157.55L158.16 29.92H162.74L163.36 31.85ZM159.01 27.28L160.45 22.75L161.9 27.28H159.01ZM172.16 19.53H167.49V31.85H170.31V27.98H172.16C174.59 27.98 176.47 26.1 176.47 23.76C176.47 21.42 174.59 19.53 172.16 19.53ZM172.16 25.34H170.31V22.17H172.16C173.02 22.17 173.65 22.86 173.65 23.76C173.65 24.65 173.02 25.34 172.16 25.34ZM183.67 32.1C185.92 32.1 187.89 30.99 188.95 29.25L186.52 27.84C185.99 28.79 184.92 29.35 183.67 29.35C181.49 29.35 180.08 27.89 180.08 25.69C180.08 23.49 181.49 22.03 183.67 22.03C184.92 22.03 185.97 22.6 186.52 23.55L188.95 22.14C187.87 20.4 185.9 19.29 183.67 19.29C179.96 19.29 177.26 22.07 177.26 25.69C177.26 29.32 179.96 32.1 183.67 32.1ZM198.54 19.53H189.39V22.24H192.56V31.85H195.37V22.24H198.54V19.53ZM210.37 25.46C211.04 24.88 211.45 24.07 211.45 23.05C211.45 20.92 209.7 19.53 207.56 19.53H199.77V31.85H207.91C210.11 31.85 211.89 30.43 211.89 28.25C211.89 27 211.29 26.05 210.37 25.46ZM207.56 22.17C208.21 22.17 208.63 22.63 208.63 23.26C208.63 23.9 208.19 24.36 207.56 24.36H202.59V22.17H207.56ZM207.91 29.21H202.59V26.85H207.91C208.61 26.85 209.07 27.35 209.07 28.03C209.07 28.72 208.61 29.21 207.91 29.21ZM216.11 29.14V26.96H222.66V24.29H216.11V22.24H223.1V19.53H213.29V31.85H223.18V29.14H216.11ZM231.46 19.53V24.25H227.58V19.53H224.77V31.85H227.58V26.96H231.46V31.85H234.27V19.53H231.46ZM246.03 19.53V24.25H239.2V19.53H236.38V31.85H239.2V26.96H246.03V31.85H248.85V19.53H246.03ZM250.96 31.85H257.92C260.35 31.85 262.23 29.97 262.23 27.63C262.23 25.29 260.35 23.4 257.92 23.4H253.78V19.53H250.96V31.85ZM263.29 31.85H266.1V19.53H263.29V31.85ZM253.78 29.21V26.05H257.92C258.78 26.05 259.41 26.73 259.41 27.63C259.41 28.53 258.78 29.21 257.92 29.21H253.78ZM270.42 18.49H275.7V16.6H270.42V18.49ZM275.08 31.85H277.9V19.53H275.78L271.03 26.22V19.53H268.21V31.85H270.33L275.08 25.16V31.85ZM106.06 36.13H94.2502V48.46H97.0702V38.85H103.25V48.46H106.06V36.13ZM110.99 45.74V43.56H119.4V40.89H110.99V38.85H119.84V36.13H108.18V48.46H119.93V45.74H110.99ZM133.68 45.74V36.13H122.94V41.66C122.94 43.76 122.54 44.94 121.97 45.74H120.72V50.81H123.54V48.46H132.18V50.81H135V45.74H133.68ZM124.97 45.74C125.41 44.95 125.76 43.72 125.76 41.7V38.77H130.86V45.74H124.97ZM144.81 48.46H147.89L143.7 36.13H140.11L135.92 48.46H139L139.61 46.52H144.19L144.81 48.46ZM140.46 43.88L141.9 39.36L143.35 43.88H140.46ZM158.64 36.13H148.94V48.46H151.76V38.85H158.64V36.13ZM165.25 48.7C168.78 48.7 171.65 45.92 171.65 42.29C171.65 38.67 168.78 35.89 165.25 35.89C161.71 35.89 158.84 38.67 158.84 42.29C158.84 45.92 161.71 48.7 165.25 48.7ZM165.25 45.96C163.24 45.96 161.66 44.49 161.66 42.29C161.66 40.1 163.24 38.63 165.25 38.63C167.25 38.63 168.84 40.1 168.84 42.29C168.84 44.49 167.25 45.96 165.25 45.96ZM180.28 36.13H173.24V48.46H176.05V38.85H180.28V36.13ZM188.37 48.46H191.19V36.13H189.08L184.33 42.82V36.13H181.51V48.46H183.62L188.37 41.77V48.46ZM199.55 36.13V41.43C198.92 41.71 198.28 41.84 197.53 41.84C196.56 41.84 195.85 41.26 195.85 40.11V36.13H193.04V40.53C193.04 43.12 195.01 44.55 197.46 44.55C198.19 44.55 198.86 44.42 199.55 44.16V48.46H202.37V36.13H199.55ZM207.29 45.74V43.56H213.7V40.89H207.29V38.85H214.14V36.13H204.48V48.46H214.23V45.74H207.29ZM221.6 48.7C223.86 48.7 225.83 47.59 226.88 45.85L224.45 44.44C223.93 45.39 222.85 45.96 221.6 45.96C219.42 45.96 218.01 44.49 218.01 42.29C218.01 40.1 219.42 38.63 221.6 38.63C222.85 38.63 223.91 39.2 224.45 40.15L226.88 38.74C225.81 37 223.84 35.89 221.6 35.89C217.89 35.89 215.2 38.67 215.2 42.29C215.2 45.92 217.89 48.7 221.6 48.7ZM238.16 48.46L233.83 42.14L237.99 36.13H234.78L231.02 41.49V36.13H228.2V48.46H231.02V42.75L234.96 48.46H238.16ZM246.08 48.46H248.9V36.13H246.79L242.04 42.82V36.13H239.22V48.46H241.33L246.08 41.77V48.46ZM253.21 35.1H258.49V33.4H253.21V35.1ZM257.88 48.46H260.69V36.13H258.58L253.83 42.82V36.13H251.01V48.46H253.13L257.88 41.77V48.46ZM100.94 52.74L98.7701 58.12L96.3601 52.74H93.5501L97.4901 61.2C97.0101 62.06 96.3102 62.54 95.0302 62.42V65.06C97.3302 65.18 99.1101 64.09 100.2 61.43L103.76 52.74H100.94ZM117.12 52.74V57.45H107.8V52.74H104.99V65.06H107.8V60.16H117.12V65.06H119.94V52.74H117.12ZM128.91 65.06H131.73V52.74H129.62L124.86 59.42V52.74H122.05V65.06H124.16L128.91 58.37V65.06ZM145.01 58.67C145.68 58.09 146.09 57.28 146.09 56.26C146.09 54.13 144.34 52.74 142.2 52.74H133.84V65.06H142.55C144.75 65.06 146.53 63.63 146.53 61.45C146.53 60.2 145.93 59.25 145.01 58.67ZM142.2 55.38C142.85 55.38 143.27 55.83 143.27 56.47C143.27 57.1 142.83 57.56 142.2 57.56H136.66V55.38H142.2ZM142.55 62.42H136.66V60.06H142.55C143.25 60.06 143.71 60.55 143.71 61.24C143.71 61.92 143.25 62.42 142.55 62.42ZM150.75 62.35V60.16H157.4V57.49H150.75V55.45H157.84V52.74H147.94V65.06H157.93V62.35H150.75ZM167.52 52.74H159.51V65.06H162.33V61.18H167.52C169.95 61.18 171.83 59.3 171.83 56.96C171.83 54.62 169.95 52.74 167.52 52.74ZM167.52 58.54H162.33V55.38H167.52C168.38 55.38 169.02 56.06 169.02 56.96C169.02 57.86 168.38 58.54 167.52 58.54ZM179.03 65.3C181.28 65.3 183.25 64.19 184.31 62.45L181.88 61.04C181.35 61.99 180.28 62.56 179.03 62.56C176.85 62.56 175.44 61.1 175.44 58.9C175.44 56.7 176.85 55.24 179.03 55.24C180.28 55.24 181.34 55.8 181.88 56.75L184.31 55.34C183.24 53.6 181.27 52.49 179.03 52.49C175.32 52.49 172.62 55.27 172.62 58.9C172.62 62.52 175.32 65.3 179.03 65.3ZM192.49 65.06H195.31V52.74H193.2L188.45 59.42V52.74H185.63V65.06H187.74L192.49 58.37V65.06ZM209.91 52.74H196.93V55.45H202.01V65.06H204.83V55.45H209.91V52.74ZM213.96 62.35V60.16H221.79V57.49H213.96V55.45H222.23V52.74H211.14V65.06H222.32V62.35H213.96ZM234.58 52.74H223.61V55.45H227.64V65.06H230.46V55.45H234.58V52.74ZM101.12 81.66H103.93V69.34H101.82L97.0702 76.03V69.34H94.2502V81.66H96.3601L101.12 74.97V81.66ZM118.36 69.34H115.55L112.2 74.81L108.86 69.34H106.04V81.66H108.86V74.5L112.05 79.72H112.36L115.55 74.5V81.66H118.36V69.34ZM121.88 81.91C122.8 81.91 123.56 81.15 123.56 80.23C123.56 79.32 122.8 78.56 121.88 78.56C120.97 78.56 120.21 79.32 120.21 80.23C120.21 81.15 120.97 81.91 121.88 81.91ZM139.83 75.27C140.5 74.69 140.91 73.88 140.91 72.86C140.91 70.73 139.16 69.34 137.02 69.34H129.8V81.66H137.37C139.57 81.66 141.34 80.23 141.34 78.05C141.34 76.8 140.75 75.85 139.83 75.27ZM137.02 71.98C137.67 71.98 138.09 72.44 138.09 73.07C138.09 73.7 137.65 74.16 137.02 74.16H132.62V71.98H137.02ZM137.37 79.02H132.62V76.66H137.37C138.07 76.66 138.53 77.15 138.53 77.84C138.53 78.53 138.07 79.02 137.37 79.02ZM143.63 81.91C144.55 81.91 145.31 81.15 145.31 80.23C145.31 79.32 144.55 78.56 143.63 78.56C142.72 78.56 141.96 79.32 141.96 80.23C141.96 81.15 142.72 81.91 143.63 81.91ZM163.37 69.34H151.55V81.66H154.37V72.05H160.55V81.66H163.37V69.34ZM166.89 81.91C167.8 81.91 168.56 81.15 168.56 80.23C168.56 79.32 167.8 78.56 166.89 78.56C165.97 78.56 165.21 79.32 165.21 80.23C165.21 81.15 165.97 81.91 166.89 81.91ZM182.64 81.66H185.72L181.53 69.34H177.94L173.75 81.66H176.83L177.45 79.72H182.02L182.64 81.66ZM178.29 77.08L179.73 72.56L181.18 77.08H178.29ZM192.21 81.91C194.47 81.91 196.44 80.8 197.49 79.05L195.06 77.65C194.54 78.6 193.46 79.16 192.21 79.16C190.03 79.16 188.62 77.7 188.62 75.5C188.62 73.3 190.03 71.84 192.21 71.84C193.46 71.84 194.52 72.4 195.06 73.35L197.49 71.94C196.42 70.2 194.45 69.09 192.21 69.09C188.5 69.09 185.81 71.87 185.81 75.5C185.81 79.12 188.5 81.91 192.21 81.91ZM209.09 69.34H197.93V72.05H202.06V81.66H204.87V72.05H209.09V69.34ZM217.28 81.66H220.36L216.17 69.34H212.58L208.39 81.66H211.47L212.08 79.72H216.66L217.28 81.66ZM212.93 77.08L214.37 72.56L215.81 77.08H212.93ZM234.15 75.5C234.15 72.7 231.97 70.83 228.63 70.43V68.99H225.88V70.43C222.54 70.83 220.36 72.7 220.36 75.5C220.36 78.3 222.54 80.16 225.88 80.57V82.01H228.63V80.57C231.97 80.16 234.15 78.3 234.15 75.5ZM223.17 75.5C223.17 74.09 224.05 73.26 225.88 73.02V77.98C224.05 77.73 223.17 76.91 223.17 75.5ZM228.63 77.98V73.02C230.46 73.26 231.34 74.09 231.34 75.5C231.34 76.91 230.46 77.73 228.63 77.98ZM241.66 73.21H238.38V69.34H235.56V81.66H241.66C244.09 81.66 245.97 79.78 245.97 77.43C245.97 75.09 244.09 73.21 241.66 73.21ZM241.66 79.02H238.38V75.85H241.66C242.52 75.85 243.16 76.54 243.16 77.43C243.16 78.33 242.52 79.02 241.66 79.02ZM250.2 78.95V76.77H254.6V74.09H250.2V72.05H255.04V69.34H247.38V81.66H255.12V78.95H250.2ZM268.26 75.27C268.93 74.69 269.34 73.88 269.34 72.86C269.34 70.73 267.59 69.34 265.45 69.34H256.71V81.66H265.8C268 81.66 269.78 80.23 269.78 78.05C269.78 76.8 269.18 75.85 268.26 75.27ZM265.45 71.98C266.1 71.98 266.52 72.44 266.52 73.07C266.52 73.7 266.08 74.16 265.45 74.16H259.52V71.98H265.45ZM265.8 79.02H259.52V76.66H265.8C266.5 76.66 266.96 77.15 266.96 77.84C266.96 78.53 266.5 79.02 265.8 79.02ZM279.02 81.66H282.1L277.91 69.34H274.32L270.13 81.66H273.21L273.82 79.72H278.4L279.02 81.66ZM274.67 77.08L276.11 72.56L277.56 77.08H274.67ZM86.4102 2.93V81.66H84.8001V2.93H86.4102ZM59.7802 36.02H17.6702V37.09H59.7802V36.02ZM38.7301 39.24C37.6901 39.24 36.7601 39.65 36.0801 40.32C35.4001 40.99 34.9901 41.91 34.9901 42.92V52.92H33.5501V42.92C33.5501 41.52 34.1401 40.23 35.0801 39.3C36.0101 38.38 37.3001 37.8 38.7301 37.8C40.1501 37.8 41.4401 38.38 42.3701 39.3C43.3101 40.23 43.9001 41.52 43.9001 42.92V52.92H42.4601V42.92C42.4601 41.91 42.0501 40.99 41.3701 40.32C40.6901 39.65 39.7601 39.24 38.7301 39.24ZM38.7301 16.08C39.5101 16.08 40.2201 16.4 40.7301 16.91C41.2401 17.43 41.5602 18.14 41.5602 18.92C41.5602 19.7 41.2401 20.41 40.7301 20.92C40.2201 21.44 39.5101 21.75 38.7301 21.75C37.9401 21.75 37.2302 21.44 36.7202 20.92C36.2102 20.41 35.8902 19.7 35.8902 18.92C35.8902 18.14 36.2102 17.43 36.7202 16.91C37.2302 16.4 37.9401 16.08 38.7301 16.08ZM38.7301 20.32C39.1101 20.32 39.4602 20.16 39.7202 19.91C39.9702 19.66 40.1301 19.31 40.1301 18.92C40.1301 18.53 39.9702 18.18 39.7202 17.93C39.4602 17.67 39.1101 17.52 38.7301 17.52C38.3401 17.52 37.9901 17.67 37.7301 17.93C37.4801 18.18 37.3201 18.53 37.3201 18.92C37.3201 19.31 37.4801 19.66 37.7301 19.91C37.9901 20.16 38.3401 20.32 38.7301 20.32ZM38.7301 23.73C38.3401 23.73 37.9901 23.89 37.7301 24.14C37.4801 24.4 37.3201 24.75 37.3201 25.13V34.83H35.8902V25.13C35.8902 24.35 36.2102 23.64 36.7202 23.13C37.2302 22.62 37.9401 22.3 38.7301 22.3C39.5101 22.3 40.2201 22.62 40.7301 23.13C41.2401 23.64 41.5602 24.35 41.5602 25.13V34.83H40.1301V25.13C40.1301 24.75 39.9702 24.4 39.7202 24.14C39.4602 23.89 39.1101 23.73 38.7301 23.73ZM32.6801 22.48H17.6702V21.18H32.6801V22.48ZM44.7701 22.48H59.7802V21.18H44.7701V22.48ZM38.7301 12.87C37.0501 12.87 35.5401 13.55 34.4501 14.64C33.3502 15.73 32.6801 17.25 32.6801 18.92H31.2401C31.2401 16.85 32.0801 14.99 33.4401 13.63C34.7901 12.28 36.6601 11.44 38.7301 11.44C40.7901 11.44 42.6601 12.28 44.0101 13.63C45.3701 14.99 46.2101 16.85 46.2101 18.92H44.7701C44.7701 17.25 44.1002 15.73 43.0002 14.64C41.9102 13.55 40.4001 12.87 38.7301 12.87ZM32.6801 25.08H18.9301V26.15H32.6801V25.08ZM44.7701 25.08H58.5201V26.15H44.7701V25.08ZM38.7301 15.18C39.7601 15.18 40.6901 15.6 41.3701 16.27C42.0501 16.95 42.4601 17.89 42.4601 18.92V34.83H43.9001V18.92C43.9001 17.49 43.3201 16.2 42.3801 15.26C41.4501 14.33 40.1601 13.75 38.7301 13.75C37.2901 13.75 36.0001 14.33 35.0701 15.26C34.1301 16.2 33.5501 17.49 33.5501 18.92V34.83H34.9901V18.92C34.9901 17.89 35.4001 16.95 36.0801 16.27C36.7601 15.6 37.6901 15.18 38.7301 15.18ZM28.7202 35.05V29.96C28.7202 29.17 28.4002 28.46 27.8902 27.95C27.3702 27.44 26.6601 27.12 25.8801 27.12C25.1001 27.12 24.3901 27.44 23.8701 27.95C23.3601 28.46 23.0501 29.17 23.0501 29.96L23.0401 35.05H24.4801L24.4702 29.96C24.4702 29.57 24.6302 29.22 24.8902 28.96C25.1402 28.71 25.4901 28.55 25.8801 28.55C26.2701 28.55 26.6201 28.71 26.8701 28.96C27.1301 29.22 27.2802 29.57 27.2802 29.96V35.05H28.7202ZM48.7301 35.05V29.96C48.7301 29.17 49.0502 28.46 49.5602 27.95C50.0802 27.44 50.7801 27.12 51.5701 27.12C52.3501 27.12 53.0601 27.44 53.5701 27.95C54.0901 28.46 54.4001 29.17 54.4001 29.96V35.05H52.9702V29.96C52.9702 29.57 52.8201 29.22 52.5602 28.96C52.3102 28.71 51.9601 28.55 51.5701 28.55C51.1801 28.55 50.8301 28.71 50.5801 28.96C50.3201 29.22 50.1601 29.57 50.1601 29.96V35.05H48.7301ZM29.8902 33.62H32.6801V35.05H29.8902V33.62ZM47.5602 33.62H44.7701V35.05H47.5602V33.62ZM29.8902 31.19H32.6801V32.63H29.8902V31.19ZM47.5602 31.19H44.7701V32.63H47.5602V31.19ZM29.8902 28.77H32.6801V30.2H29.8902V28.77ZM47.5602 28.77H44.7701V30.2H47.5602V28.77ZM18.9301 33.62H21.7202V35.05H18.9301V33.62ZM58.5201 33.62H55.7301V35.05H58.5201V33.62ZM18.9301 31.19H21.7202V32.63H18.9301V31.19ZM58.5201 31.19H55.7301V32.63H58.5201V31.19ZM18.9301 28.77H21.7202V30.2H18.9301V28.77ZM58.5201 28.77H55.7301V30.2H58.5201V28.77ZM32.6801 20.75H26.0501V19.45H32.6801V20.75ZM44.7701 20.75H51.4001V19.45H44.7701V20.75ZM35.8902 45.35V46.78H38.4101V45.35H35.8902ZM41.5602 45.35V46.78H39.0401V45.35H41.5602ZM35.8902 47.39V48.82H38.4101V47.39H35.8902ZM41.5602 47.39V48.82H39.0401V47.39H41.5602ZM35.8902 49.44V50.87H38.4101V49.44H35.8902ZM41.5602 49.44V50.87H39.0401V49.44H41.5602ZM35.8902 51.48V52.92H38.4101V51.48H35.8902ZM41.5602 51.48V52.92H39.0401V51.48H41.5602ZM32.6801 45.36H18.9301V46.6H32.6801V45.36ZM44.7701 45.36H58.5201V46.6H44.7701V45.36ZM24.4801 44.41V40.49C24.4801 40.1 24.6302 39.75 24.8902 39.49C25.1402 39.24 25.4901 39.08 25.8801 39.08C26.2701 39.08 26.6201 39.24 26.8701 39.49C27.1301 39.75 27.2802 40.1 27.2802 40.49V44.41H28.7202V40.49C28.7202 39.7 28.4002 38.99 27.8902 38.48C27.3702 37.97 26.6601 37.65 25.8801 37.65C25.1001 37.65 24.3901 37.97 23.8801 38.48C23.3601 38.99 23.0401 39.7 23.0401 40.48V44.41H24.4801ZM52.9702 44.41V40.49C52.9702 40.1 52.8102 39.75 52.5602 39.49C52.3102 39.24 51.9601 39.08 51.5701 39.08C51.1801 39.08 50.8301 39.24 50.5801 39.49C50.3201 39.75 50.1601 40.1 50.1601 40.49V44.41H48.7301V40.49C48.7301 39.7 49.0502 38.99 49.5602 38.48C50.0802 37.97 50.7801 37.65 51.5701 37.65C52.3501 37.65 53.0601 37.97 53.5701 38.48C54.0901 38.99 54.4001 39.7 54.4001 40.48V44.41H52.9702ZM29.8902 23.13H32.6801V24.43H29.8902V23.13ZM27.9702 23.13H29.3602V24.43H27.9702V23.13ZM24.1201 23.13H25.5201V24.43H24.1201V23.13ZM18.8902 23.13H21.6801V24.43H18.8902V23.13ZM26.0501 23.13H27.4401V24.43H26.0501V23.13ZM22.2001 23.13H23.6001V24.43H22.2001V23.13ZM47.5602 23.13H44.7701V24.43H47.5602V23.13ZM49.4801 23.13H48.0901V24.43H49.4801V23.13ZM53.3301 23.13H51.9301V24.43H53.3301V23.13ZM58.5602 23.13H55.7701V24.43H58.5602V23.13ZM51.4001 23.13H50.0101V24.43H51.4001V23.13ZM55.2502 23.13H53.8501V24.43H55.2502V23.13ZM38.7301 62.3C37.9401 62.3 37.0101 61.98 36.4901 61.47C35.9801 60.95 35.6601 60.24 35.6601 59.46H13.5201V25.08H18.0701V26.15H15.8602V58.03H37.0901V59.46C37.0901 59.85 37.2502 60.2 37.5002 60.46C37.7602 60.71 38.3401 60.87 38.7301 60.87C39.1101 60.87 39.6902 60.71 39.9501 60.46C40.2001 60.2 40.3602 59.85 40.3602 59.46V58.03H61.5901V26.15H59.3801V25.08H63.9301V59.46H41.7901C41.7901 60.24 41.4701 60.95 40.9601 61.47C40.4401 61.98 39.5101 62.3 38.7301 62.3ZM28.7202 47.39H27.2802V52.92H28.7202V47.39ZM48.7301 47.39H50.1601V52.92H48.7301V47.39ZM24.4801 47.39H23.0401V52.92H24.4801V47.39ZM52.9702 47.39H54.4001V52.92H52.9702V47.39ZM29.8902 51.48H32.6801V52.92H29.8902V51.48ZM18.9301 51.48H21.7202V52.92H18.9301V51.48ZM47.5602 51.48H44.7701V52.92H47.5602V51.48ZM58.5201 51.48H55.7301V52.92H58.5201V51.48ZM29.8902 49.44H32.6801V50.87H29.8902V49.44ZM18.9301 49.44H21.7202V50.87H18.9301V49.44ZM47.5602 49.44H44.7701V50.87H47.5602V49.44ZM58.5201 49.44H55.7301V50.87H58.5201V49.44ZM29.8902 47.39H32.6801V48.82H29.8902V47.39ZM18.9301 47.39H21.7202V48.82H18.9301V47.39ZM47.5602 47.39H44.7701V48.82H47.5602V47.39ZM58.5201 47.39H55.7301V48.82H58.5201V47.39ZM38.7301 40.25C37.9401 40.25 37.2302 40.57 36.7202 41.08C36.2102 41.59 35.8902 42.3 35.8902 43.08V44.41H37.3201V43.09C37.3201 42.7 37.4801 42.35 37.7301 42.09C37.9901 41.84 38.3401 41.68 38.7301 41.68C39.1101 41.68 39.4602 41.84 39.7202 42.09C39.9702 42.35 40.1301 42.7 40.1301 43.09V44.41H41.5602V43.08C41.5602 42.3 41.2401 41.59 40.7301 41.08C40.2201 40.57 39.5101 40.25 38.7301 40.25ZM29.8902 42.98H32.6801V44.41H29.8902V42.98ZM18.9301 42.98H21.7202V44.41H18.9301V42.98ZM29.8902 40.93H32.6801V42.36H29.8902V40.93ZM18.9301 40.93H21.7202V42.36H18.9301V40.93ZM29.8902 38.89H32.6801V40.32H29.8902V38.89ZM18.9301 38.89H21.7202V40.32H18.9301V38.89ZM47.5602 42.98H44.7701V44.41H47.5602V42.98ZM58.5201 42.98H55.7301V44.41H58.5201V42.98ZM47.5602 40.93H44.7701V42.36H47.5602V40.93ZM58.5201 40.93H55.7301V42.36H58.5201V40.93ZM47.5602 38.89H44.7701V40.32H47.5602V38.89ZM58.5201 38.89H55.7301V40.32H58.5201V38.89ZM39.4202 6.49C49.3102 6.52 58.2601 10.55 64.7301 17.05C71.2001 23.55 75.1802 32.52 75.1602 42.42C75.1302 52.31 71.1001 61.26 64.6001 67.73C58.1001 74.2 49.1301 78.18 39.2401 78.16C29.3401 78.13 20.3901 74.1 13.9301 67.6C7.46015 61.1 3.47015 52.13 3.50015 42.23C3.52015 32.34 7.56015 23.39 14.0602 16.92C20.5602 10.46 29.5202 6.47 39.4202 6.49ZM63.6102 18.17C57.4302 11.95 48.8702 8.09 39.4202 8.07C29.9602 8.05 21.3802 11.86 15.1702 18.04C8.95015 24.22 5.10015 32.78 5.07015 42.23C5.05015 51.69 8.86015 60.27 15.0401 66.48C21.2301 72.7 29.7801 76.56 39.2401 76.58C48.7001 76.61 57.2701 72.79 63.4901 66.61C69.7001 60.43 73.5601 51.87 73.5801 42.42C73.6101 32.96 69.7902 24.38 63.6102 18.17ZM39.4301 2.99C50.2901 3.02 60.1101 7.45 67.2101 14.59C74.3101 21.72 78.6902 31.56 78.6602 42.42C78.6302 53.29 74.2001 63.11 67.0701 70.21C59.9301 77.31 50.0901 81.69 39.2301 81.66C28.3601 81.63 18.5401 77.2 11.4401 70.07C4.34014 62.93 -0.0298465 53.09 0.000153476 42.23C0.0201535 31.36 4.45015 21.54 11.5901 14.44C18.7201 7.34 28.5701 2.97 39.4301 2.99ZM39.4301 4.57C29.0001 4.54 19.5501 8.74 12.7002 15.56C5.85015 22.37 1.60015 31.8 1.57015 42.23C1.54015 52.65 5.75015 62.1 12.5602 68.95C19.3802 75.8 28.8001 80.05 39.2301 80.08C49.6501 80.11 59.1101 75.91 65.9601 69.09C72.8101 62.28 77.0601 52.85 77.0801 42.43C77.1101 32 72.9101 22.55 66.0901 15.7C59.2801 8.85 49.8501 4.6 39.4301 4.57ZM27.7202 72.78H29.2802V64.82H26.5801V66.15H27.7202V72.78ZM33.7502 72.99L36.0901 69.86C36.6502 69.12 37.1001 68.35 37.1001 67.38C37.1001 66.49 36.7501 65.88 36.3201 65.45C35.6601 64.79 34.9001 64.64 34.0501 64.64C33.2401 64.64 32.4602 64.8 31.7802 65.54C31.2502 66.13 31.0501 66.8 31.0501 67.47C31.0501 68.3 31.3902 68.98 31.8102 69.38C32.2701 69.83 32.9901 70.06 33.5501 70.06C33.8401 70.06 34.1501 69.98 34.4001 69.9L32.5002 72.38L33.7502 72.99ZM34.0801 65.88C34.5501 65.88 34.9001 66.08 35.1001 66.27C35.3401 66.5 35.5401 66.84 35.5401 67.35C35.5401 67.75 35.4002 68.09 35.1102 68.38C34.8302 68.68 34.5101 68.81 34.0801 68.81C33.6801 68.81 33.3501 68.72 33.0501 68.43C32.7701 68.17 32.6102 67.81 32.6102 67.33C32.6102 66.81 32.8501 66.47 33.0401 66.28C33.2401 66.08 33.5701 65.88 34.0801 65.88ZM39.5201 66.89C39.5501 66.21 40.0701 65.85 40.6201 65.85C41.2501 65.85 41.6702 66.27 41.6702 66.9C41.6702 67.45 41.3401 67.99 40.5801 67.99H40.3701V69.11H40.5701C41.5301 69.11 41.8902 69.77 41.8902 70.35C41.8902 70.96 41.5101 71.62 40.6201 71.62C39.8501 71.62 39.3901 71.14 39.2901 70.49H37.7401C37.8701 72.01 39.0801 72.96 40.6001 72.96C42.1801 72.96 43.4401 72.04 43.4401 70.4C43.4401 69.09 42.5501 68.63 42.2301 68.5C43.0602 68.04 43.1501 67.25 43.1501 66.83C43.1501 65.5 42.1801 64.64 40.6501 64.64C39.2901 64.64 38.2102 65.45 38.0602 66.89H39.5201ZM44.1702 72.78H49.9501V71.44H47.0701L48.4501 69.95C49.0701 69.28 49.8902 68.4 49.8902 67.17C49.8902 65.9 48.9401 64.64 47.0901 64.64C45.5101 64.64 44.3601 65.67 44.2901 67.3H45.8902C45.9202 66.62 46.3501 65.97 47.1601 65.97C47.8301 65.97 48.3401 66.46 48.3401 67.18C48.3401 67.64 48.0901 68.13 47.8701 68.46C47.5901 68.89 46.6601 69.95 46.5101 70.11L44.1702 72.78ZM41.5302 56.33L59.3301 55.64V54.21L41.5302 54.9C40.7602 54.91 40.0701 55.22 39.5602 55.73C39.0401 56.25 38.7301 56.73 38.7301 57.51H40.1601C40.1601 57.12 40.3101 56.99 40.5701 56.74C40.8101 56.49 41.1502 56.34 41.5302 56.33ZM35.9202 56.33L18.1201 55.64V54.21L35.9202 54.9C36.6902 54.91 37.3802 55.22 37.8902 55.73C38.4102 56.25 38.7301 56.73 38.7301 57.51H37.2901C37.2901 57.12 37.1401 56.99 36.8801 56.74C36.6401 56.49 36.2901 56.34 35.9202 56.33Z" fill="white"/>
</svg>
