<svg width="88" height="90" viewBox="0 0 88 90" fill="none" xmlns="http://www.w3.org/2000/svg">
<g clip-path="url(#clip0_21_344)">
<path d="M112.986 17.0816L108.291 10.2294L112.801 3.7241H109.321L105.244 9.52462V3.7241H102.187V17.0816H105.244V10.9016L109.516 17.0816H112.986ZM123.85 3.7241H114.135V17.0816H117.192V12.8857H123.85C126.484 12.8857 128.522 10.8474 128.522 8.31031C128.522 5.76242 126.484 3.7241 123.85 3.7241ZM123.85 10.0234H117.192V6.58642H123.85C124.782 6.58642 125.476 7.33452 125.476 8.31031C125.476 9.27526 124.782 10.0234 123.85 10.0234ZM137.207 17.0816H140.546L136.004 3.7241H132.111L127.568 17.0816H130.908L131.58 14.989H136.546L137.207 17.0816ZM132.502 12.1267L134.063 7.21526L135.624 12.1267H132.502ZM147.594 17.3526C150.033 17.3526 152.169 16.1492 153.318 14.2626L150.684 12.7339C150.109 13.7639 148.949 14.371 147.594 14.371C145.219 14.371 143.701 12.7881 143.701 10.4028C143.701 8.01757 145.219 6.43463 147.594 6.43463C148.949 6.43463 150.087 7.04179 150.684 8.07179L153.318 6.55389C152.147 4.65652 150.012 3.45305 147.594 3.45305C143.56 3.45305 140.644 6.47799 140.644 10.4028C140.644 14.3385 143.56 17.3526 147.594 17.3526ZM169.202 3.7241V8.84158H157.796V3.7241H154.75V17.0816H157.796V11.7798H169.202V17.0816H172.249V3.7241H169.202ZM180.912 17.3526C184.75 17.3526 187.861 14.3385 187.861 10.4028C187.861 6.47799 184.75 3.45305 180.912 3.45305C177.084 3.45305 173.973 6.47799 173.973 10.4028C173.973 14.3385 177.084 17.3526 180.912 17.3526ZM180.912 14.371C178.743 14.371 177.019 12.7881 177.019 10.4028C177.019 8.01757 178.743 6.43463 180.912 6.43463C183.091 6.43463 184.804 8.01757 184.804 10.4028C184.804 12.7881 183.091 14.371 180.912 14.371ZM202.455 3.7241H193.586C191.049 3.7241 189.011 5.76242 189.011 8.31031C189.011 10.045 190.138 11.628 191.754 12.311L188.62 17.0816H192.057L194.898 12.6905H199.397V17.0816H202.455V3.7241ZM193.586 10.0234C192.751 10.0234 192.057 9.27526 192.057 8.31031C192.057 7.33452 192.751 6.58642 193.586 6.58642H199.397V10.0234H193.586ZM213.525 3.7241H204.742V17.0816H207.8V12.8857H213.525C216.159 12.8857 218.198 10.8474 218.198 8.31031C218.198 5.76242 216.159 3.7241 213.525 3.7241ZM213.525 10.0234H207.8V6.58642H213.525C214.457 6.58642 215.151 7.33452 215.151 8.31031C215.151 9.27526 214.457 10.0234 213.525 10.0234ZM226.004 17.3526C228.454 17.3526 230.59 16.1492 231.728 14.2626L229.094 12.7339C228.53 13.7639 227.359 14.371 226.004 14.371C223.64 14.371 222.112 12.7881 222.112 10.4028C222.112 8.01757 223.64 6.43463 226.004 6.43463C227.359 6.43463 228.508 7.04179 229.094 8.07179L231.728 6.55389C230.568 4.65652 228.432 3.45305 226.004 3.45305C221.981 3.45305 219.065 6.47799 219.065 10.4028C219.065 14.3385 221.981 17.3526 226.004 17.3526ZM243.958 17.0816L239.264 10.2294L243.774 3.7241H240.294L236.217 9.52462V3.7241H233.16V17.0816H236.217V10.9016L240.489 17.0816H243.958ZM252.545 17.0816H255.603V3.7241H253.315L248.165 10.9775V3.7241H245.108V17.0816H247.395L252.545 9.82821V17.0816ZM260.276 2.59652H266V0.547363H260.276V2.59652ZM265.339 17.0816H268.386V3.7241H266.098L260.948 10.9775V3.7241H257.89V17.0816H260.189L265.339 9.82821V17.0816ZM113.842 21.722H102.187V35.0795H105.244V24.6602H113.842V21.722ZM121.638 35.3505C125.476 35.3505 128.577 32.3364 128.577 28.4007C128.577 24.4759 125.476 21.4618 121.638 21.4618C117.8 21.4618 114.688 24.4759 114.688 28.4007C114.688 32.3364 117.8 35.3505 121.638 35.3505ZM121.638 32.3689C119.458 32.3689 117.745 30.786 117.745 28.4007C117.745 26.0155 119.458 24.4325 121.638 24.4325C123.806 24.4325 125.53 26.0155 125.53 28.4007C125.53 30.786 123.806 32.3689 121.638 32.3689ZM136.676 35.3505C139.115 35.3505 141.251 34.147 142.4 32.2605L139.766 30.7318C139.191 31.7618 138.031 32.3689 136.676 32.3689C134.301 32.3689 132.783 30.786 132.783 28.4007C132.783 26.0155 134.301 24.4325 136.676 24.4325C138.031 24.4325 139.169 25.0505 139.766 26.0805L142.4 24.5518C141.229 22.6653 139.094 21.4618 136.676 21.4618C132.642 21.4618 129.726 24.4759 129.726 28.4007C129.726 32.3364 132.642 35.3505 136.676 35.3505ZM150.89 21.722L148.537 27.5659L145.924 21.722H142.877L147.149 30.9053C146.629 31.8377 145.87 32.3581 144.482 32.2172V35.0795C146.976 35.2204 148.906 34.0386 150.087 31.1546L153.947 21.722H150.89ZM165.472 32.1413V21.722H155.487V27.7177C155.487 29.9837 155.053 31.263 154.435 32.1413H153.08V37.6382H156.137V35.0795H163.846V37.6382H166.904V32.1413H165.472ZM157.688 32.1413C158.165 31.2847 158.544 29.9512 158.544 27.7502V24.5843H162.415V32.1413H157.688ZM177.117 35.0795H180.456L175.913 21.722H172.021L167.478 35.0795H170.818L171.479 32.9869H176.445L177.117 35.0795ZM172.4 30.1246L173.962 25.2132L175.534 30.1246H172.4ZM186.658 21.722H181.595V35.0795H184.652V30.8836H186.658C189.292 30.8836 191.331 28.8453 191.331 26.3082C191.331 23.7712 189.292 21.722 186.658 21.722ZM186.658 28.0213H184.652V24.5843H186.658C187.59 24.5843 188.273 25.3324 188.273 26.3082C188.273 27.2732 187.59 28.0213 186.658 28.0213ZM199.137 35.3505C201.577 35.3505 203.712 34.147 204.862 32.2605L202.227 30.7318C201.652 31.7618 200.492 32.3689 199.137 32.3689C196.774 32.3689 195.245 30.786 195.245 28.4007C195.245 26.0155 196.774 24.4325 199.137 24.4325C200.492 24.4325 201.631 25.0505 202.227 26.0805L204.862 24.5518C203.691 22.6653 201.555 21.4618 199.137 21.4618C195.115 21.4618 192.187 24.4759 192.187 28.4007C192.187 32.3364 195.115 35.3505 199.137 35.3505ZM215.259 21.722H205.339V24.6602H208.776V35.0795H211.822V24.6602H215.259V21.722ZM228.086 28.1514C228.812 27.5225 229.256 26.6443 229.256 25.5384C229.256 23.229 227.359 21.722 225.039 21.722H216.593V35.0795H225.418C227.804 35.0795 229.734 33.5399 229.734 31.1763C229.734 29.821 229.083 28.791 228.086 28.1514ZM225.039 24.5843C225.744 24.5843 226.199 25.083 226.199 25.7661C226.199 26.46 225.722 26.9587 225.039 26.9587H219.65V24.5843H225.039ZM225.418 32.2172H219.65V29.6584H225.418C226.177 29.6584 226.676 30.2005 226.676 30.9378C226.676 31.6859 226.177 32.2172 225.418 32.2172ZM234.309 32.1413V29.7777H241.41V26.8828H234.309V24.6602H241.888V21.722H231.251V35.0795H241.974V32.1413H234.309ZM250.952 21.722V26.8395H246.745V21.722H243.698V35.0795H246.745V29.7777H250.952V35.0795H253.998V21.722H250.952ZM266.748 21.722V26.8395H259.343V21.722H256.286V35.0795H259.343V29.7777H266.748V35.0795H269.806V21.722H266.748ZM272.094 35.0795H279.64C282.274 35.0795 284.313 33.0412 284.313 30.5041C284.313 27.967 282.274 25.9179 279.64 25.9179H275.151V21.722H272.094V35.0795ZM285.462 35.0795H288.509V21.722H285.462V35.0795ZM275.151 32.2172V28.791H279.64C280.572 28.791 281.255 29.5283 281.255 30.5041C281.255 31.4799 280.572 32.2172 279.64 32.2172H275.151ZM293.192 20.5944H298.917V18.5453H293.192V20.5944ZM298.245 35.0795H301.302V21.722H299.004L293.854 28.9754V21.722H290.796V35.0795H293.095L298.245 27.8261V35.0795ZM114.992 39.7199H102.187V53.0882H105.244V42.6689H111.945V53.0882H114.992V39.7199ZM120.337 50.1391V47.7756H129.455V44.8807H120.337V42.6689H129.932V39.7199H117.29V53.0882H130.03V50.1391H120.337ZM144.937 50.1391V39.7199H133.293V45.7156C133.293 47.9924 132.859 49.2718 132.241 50.1391H130.886V55.6361H133.944V53.0882H143.311V55.6361H146.369V50.1391H144.937ZM135.494 50.1391C135.971 49.2826 136.35 47.949 136.35 45.7589V42.5822H141.88V50.1391H135.494ZM157.005 53.0882H160.344L155.801 39.7199H151.909L147.366 53.0882H150.705L151.367 50.9848H156.332L157.005 53.0882ZM152.288 48.1225L153.85 43.2219L155.422 48.1225H152.288ZM171.999 39.7199H161.482V53.0882H164.54V42.6689H171.999V39.7199ZM179.166 53.3484C182.993 53.3484 186.105 50.3343 186.105 46.3986C186.105 42.4738 182.993 39.4597 179.166 39.4597C175.328 39.4597 172.216 42.4738 172.216 46.3986C172.216 50.3343 175.328 53.3484 179.166 53.3484ZM179.166 50.3777C176.987 50.3777 175.274 48.7839 175.274 46.3986C175.274 44.0242 176.987 42.4304 179.166 42.4304C181.334 42.4304 183.058 44.0242 183.058 46.3986C183.058 48.7839 181.334 50.3777 179.166 50.3777ZM195.462 39.7199H187.829V53.0882H190.875V42.6689H195.462V39.7199ZM204.233 53.0882H207.29V39.7199H205.003L199.853 46.9733V39.7199H196.795V53.0882H199.083L204.233 45.8348V53.0882ZM216.354 39.7199V45.4662C215.671 45.7698 214.977 45.9107 214.164 45.9107C213.113 45.9107 212.343 45.2819 212.343 44.035V39.7199H209.296V44.4904C209.296 47.2985 211.432 48.8489 214.088 48.8489C214.88 48.8489 215.606 48.708 216.354 48.4261V53.0882H219.412V39.7199H216.354ZM224.746 50.1391V47.7756H231.696V44.8807H224.746V42.6689H232.173V39.7199H221.7V53.0882H232.271V50.1391H224.746ZM240.261 53.3484C242.712 53.3484 244.847 52.1449 245.986 50.2584L243.351 48.7297C242.787 49.7597 241.616 50.3777 240.261 50.3777C237.898 50.3777 236.369 48.7839 236.369 46.3986C236.369 44.0242 237.898 42.4304 240.261 42.4304C241.616 42.4304 242.766 43.0484 243.351 44.0784L245.986 42.5497C244.826 40.6632 242.69 39.4597 240.261 39.4597C236.239 39.4597 233.322 42.4738 233.322 46.3986C233.322 50.3343 236.239 53.3484 240.261 53.3484ZM258.216 53.0882L253.521 46.236L258.031 39.7199H254.551L250.474 45.5313V39.7199H247.417V53.0882H250.474V46.8974L254.746 53.0882H258.216ZM266.803 53.0882H269.86V39.7199H267.572L262.422 46.9733V39.7199H259.365V53.0882H261.653L266.803 45.8348V53.0882ZM274.533 38.6031H280.258V36.76H274.533V38.6031ZM279.596 53.0882H282.643V39.7199H280.355L275.205 46.9733V39.7199H272.148V53.0882H274.446L279.596 45.8348V53.0882ZM109.44 57.7286L107.088 63.5617L104.475 57.7286H101.428L105.7 66.901C105.179 67.8335 104.42 68.3539 103.033 68.2238V71.0861C105.526 71.2162 107.456 70.0344 108.638 67.1504L112.498 57.7286H109.44ZM126.983 57.7286V62.8353H116.878V57.7286H113.831V71.0861H116.878V65.7735H126.983V71.0861H130.04V57.7286H126.983ZM139.766 71.0861H142.823V57.7286H140.536L135.375 64.9712V57.7286H132.328V71.0861H134.616L139.766 63.8327V71.0861ZM157.222 64.158C157.948 63.5292 158.392 62.6509 158.392 61.545C158.392 59.2357 156.495 57.7286 154.175 57.7286H145.111V71.0861H154.554C156.94 71.0861 158.87 69.5357 158.87 67.1721C158.87 65.8168 158.219 64.7868 157.222 64.158ZM154.175 60.5909C154.88 60.5909 155.335 61.0788 155.335 61.7727C155.335 62.4558 154.858 62.9545 154.175 62.9545H148.168V60.5909H154.175ZM154.554 68.2238H148.168V65.665H154.554C155.313 65.665 155.812 66.1963 155.812 66.9444C155.812 67.6817 155.313 68.2238 154.554 68.2238ZM163.445 68.1479V65.7735H170.655V62.8786H163.445V60.6668H171.132V57.7286H160.398V71.0861H171.23V68.1479H163.445ZM181.627 57.7286H172.943V71.0861H176V66.8794H181.627C184.262 66.8794 186.3 64.841 186.3 62.304C186.3 59.7669 184.262 57.7286 181.627 57.7286ZM181.627 64.017H176V60.5909H181.627C182.56 60.5909 183.253 61.3282 183.253 62.304C183.253 63.2798 182.56 64.017 181.627 64.017ZM194.106 71.3463C196.546 71.3463 198.682 70.1428 199.831 68.2563L197.196 66.7276C196.622 67.7576 195.462 68.3756 194.106 68.3756C191.743 68.3756 190.214 66.7926 190.214 64.4074C190.214 62.0221 191.743 60.4391 194.106 60.4391C195.462 60.4391 196.611 61.0463 197.196 62.0763L199.831 60.5476C198.671 58.6611 196.535 57.4576 194.106 57.4576C190.084 57.4576 187.157 60.4717 187.157 64.4074C187.157 68.3322 190.084 71.3463 194.106 71.3463ZM208.7 71.0861H211.757V57.7286H209.47L204.32 64.9712V57.7286H201.262V71.0861H203.55L208.7 63.8327V71.0861ZM227.587 57.7286H213.514V60.6668H219.022V71.0861H222.079V60.6668H227.587V57.7286ZM231.978 68.1479V65.7735H240.467V62.8786H231.978V60.6668H240.944V57.7286H228.92V71.0861H241.042V68.1479H231.978ZM254.334 57.7286H242.44V60.6668H246.81V71.0861H249.867V60.6668H254.334V57.7286ZM109.636 89.084H112.682V75.7265H110.394L105.244 82.9799V75.7265H102.187V89.084H104.475L109.636 81.8306V89.084ZM128.327 75.7265H125.281L121.649 81.6572L118.027 75.7265H114.97V89.084H118.027V81.321L121.486 86.9806H121.822L125.281 81.321V89.084H128.327V75.7265ZM132.144 89.355C133.141 89.355 133.965 88.5311 133.965 87.5336C133.965 86.5469 133.141 85.7229 132.144 85.7229C131.157 85.7229 130.333 86.5469 130.333 87.5336C130.333 88.5311 131.157 89.355 132.144 89.355ZM151.605 82.1559C152.332 81.5271 152.776 80.6488 152.776 79.5429C152.776 77.2336 150.879 75.7265 148.559 75.7265H140.731V89.084H148.938C151.323 89.084 153.242 87.5336 153.242 85.17C153.242 83.8147 152.603 82.7847 151.605 82.1559ZM148.559 78.5888C149.263 78.5888 149.719 79.0876 149.719 79.7706C149.719 80.4537 149.242 80.9524 148.559 80.9524H143.788V78.5888H148.559ZM148.938 86.2217H143.788V83.6629H148.938C149.697 83.6629 150.196 84.1942 150.196 84.9423C150.196 85.6904 149.697 86.2217 148.938 86.2217ZM155.725 89.355C156.723 89.355 157.547 88.5311 157.547 87.5336C157.547 86.5469 156.723 85.7229 155.725 85.7229C154.739 85.7229 153.915 86.5469 153.915 87.5336C153.915 88.5311 154.739 89.355 155.725 89.355ZM177.128 75.7265H164.312V89.084H167.37V78.6647H174.07V89.084H177.128V75.7265ZM180.944 89.355C181.931 89.355 182.755 88.5311 182.755 87.5336C182.755 86.5469 181.931 85.7229 180.944 85.7229C179.947 85.7229 179.123 86.5469 179.123 87.5336C179.123 88.5311 179.947 89.355 180.944 89.355ZM198.02 89.084H201.36L196.817 75.7265H192.925L188.382 89.084H191.721L192.393 86.9806H197.348L198.02 89.084ZM193.304 84.1183L194.865 79.2177L196.437 84.1183H193.304ZM208.396 89.355C210.847 89.355 212.982 88.1516 214.121 86.2542L211.486 84.7363C210.922 85.7663 209.752 86.3735 208.396 86.3735C206.033 86.3735 204.504 84.7905 204.504 82.4053C204.504 80.02 206.033 78.437 208.396 78.437C209.752 78.437 210.901 79.0442 211.486 80.0742L214.121 78.5455C212.961 76.6589 210.825 75.4555 208.396 75.4555C204.374 75.4555 201.457 78.4696 201.457 82.4053C201.457 86.3301 204.374 89.355 208.396 89.355ZM226.698 75.7265H214.598V78.6647H219.076V89.084H222.122V78.6647H226.698V75.7265ZM235.577 89.084H238.917L234.374 75.7265H230.482L225.939 89.084H229.278L229.94 86.9806H234.905L235.577 89.084ZM230.861 84.1183L232.422 79.2177L233.984 84.1183H230.861ZM253.868 82.4053C253.868 79.3695 251.504 77.342 247.883 76.9083V75.347H244.902V76.9083C241.28 77.342 238.917 79.3695 238.917 82.4053C238.917 85.441 241.28 87.4577 244.902 87.9022V89.4635H247.883V87.9022C251.504 87.4577 253.868 85.441 253.868 82.4053ZM241.963 82.4053C241.963 80.8765 242.918 79.9766 244.902 79.7164V85.0941C242.918 84.8231 241.963 83.934 241.963 82.4053ZM247.883 85.0941V79.7164C249.867 79.9766 250.821 80.8765 250.821 82.4053C250.821 83.934 249.867 84.8231 247.883 85.0941ZM262.01 79.9224H258.454V75.7265H255.397V89.084H262.01C264.645 89.084 266.683 87.0457 266.683 84.4978C266.683 81.9607 264.645 79.9224 262.01 79.9224ZM262.01 86.2217H258.454V82.7847H262.01C262.943 82.7847 263.637 83.5328 263.637 84.4978C263.637 85.4736 262.943 86.2217 262.01 86.2217ZM271.27 86.1458V83.7822H276.04V80.8765H271.27V78.6647H276.517V75.7265H268.212V89.084H276.604V86.1458H271.27ZM290.85 82.1559C291.577 81.5271 292.021 80.6488 292.021 79.5429C292.021 77.2336 290.124 75.7265 287.804 75.7265H278.328V89.084H288.183C290.569 89.084 292.498 87.5336 292.498 85.17C292.498 83.8147 291.848 82.7847 290.85 82.1559ZM287.804 78.5888C288.509 78.5888 288.964 79.0876 288.964 79.7706C288.964 80.4537 288.487 80.9524 287.804 80.9524H281.374V78.5888H287.804ZM288.183 86.2217H281.374V83.6629H288.183C288.942 83.6629 289.441 84.1942 289.441 84.9423C289.441 85.6904 288.942 86.2217 288.183 86.2217ZM302.517 89.084H305.856L301.313 75.7265H297.421L292.878 89.084H296.217L296.879 86.9806H301.844L302.517 89.084ZM297.8 84.1183L299.362 79.2177L300.934 84.1183H297.8ZM93.6868 3.7241V89.084H91.9412V3.7241H93.6868ZM64.8143 39.6006H19.1582V40.7607H64.8143V39.6006ZM41.9916 43.0918C40.8641 43.0918 39.8557 43.5363 39.1185 44.2627C38.3812 44.9892 37.9367 45.9866 37.9367 47.0817V57.9238H36.3754V47.0817C36.3754 45.5638 37.0151 44.1652 38.0343 43.1568C39.0426 42.1594 40.4412 41.5305 41.9916 41.5305C43.5312 41.5305 44.9298 42.1594 45.9382 43.1568C46.9573 44.1652 47.597 45.5638 47.597 47.0817V57.9238H46.0357V47.0817C46.0357 45.9866 45.5912 44.9892 44.854 44.2627C44.1167 43.5363 43.1084 43.0918 41.9916 43.0918ZM41.9916 17.9815C42.8373 17.9815 43.6071 18.3284 44.1601 18.8814C44.713 19.4452 45.06 20.2149 45.06 21.0606C45.06 21.9063 44.713 22.6761 44.1601 23.229C43.6071 23.7928 42.8373 24.1289 41.9916 24.1289C41.1351 24.1289 40.3653 23.7928 39.8124 23.229C39.2594 22.6761 38.9125 21.9063 38.9125 21.0606C38.9125 20.2149 39.2594 19.4452 39.8124 18.8814C40.3653 18.3284 41.1351 17.9815 41.9916 17.9815ZM41.9916 22.5785C42.4036 22.5785 42.7831 22.405 43.065 22.134C43.3361 21.8629 43.5095 21.4835 43.5095 21.0606C43.5095 20.6378 43.3361 20.2583 43.065 19.9873C42.7831 19.7054 42.4036 19.5427 41.9916 19.5427C41.5688 19.5427 41.1893 19.7054 40.9074 19.9873C40.6364 20.2583 40.4629 20.6378 40.4629 21.0606C40.4629 21.4835 40.6364 21.8629 40.9074 22.134C41.1893 22.405 41.5688 22.5785 41.9916 22.5785ZM41.9916 26.2757C41.5688 26.2757 41.1893 26.4492 40.9074 26.7202C40.6364 27.0021 40.4629 27.3816 40.4629 27.7936V38.3104H38.9125V27.7936C38.9125 26.9479 39.2594 26.1781 39.8124 25.6252C40.3653 25.0722 41.1351 24.7253 41.9916 24.7253C42.8373 24.7253 43.6071 25.0722 44.1601 25.6252C44.713 26.1781 45.06 26.9479 45.06 27.7936V38.3104H43.5095V27.7936C43.5095 27.3816 43.3361 27.0021 43.065 26.7202C42.7831 26.4492 42.4036 26.2757 41.9916 26.2757ZM35.4322 24.9204H19.1582V23.5109H35.4322V24.9204ZM48.5403 24.9204H64.8143V23.5109H48.5403V24.9204ZM41.9916 14.5012C40.1702 14.5012 38.533 15.2384 37.3512 16.4202C36.1586 17.602 35.4322 19.25 35.4322 21.0606H33.8709C33.8709 18.8163 34.7816 16.7997 36.2561 15.3252C37.7198 13.8615 39.7473 12.9507 41.9916 12.9507C44.2251 12.9507 46.2526 13.8615 47.7163 15.3252C49.1908 16.7997 50.1015 18.8163 50.1015 21.0606H48.5403C48.5403 19.25 47.8139 17.602 46.6212 16.4202C45.4394 15.2384 43.8023 14.5012 41.9916 14.5012ZM35.4322 27.7394H20.5243V28.8995H35.4322V27.7394ZM48.5403 27.7394H63.4482V28.8995H48.5403V27.7394ZM41.9916 17.0057C43.1084 17.0057 44.1167 17.461 44.854 18.1875C45.5912 18.9247 46.0357 19.9439 46.0357 21.0606V38.3104H47.597V21.0606C47.597 19.5102 46.9682 18.1116 45.949 17.0924C44.9407 16.0841 43.5421 15.4553 41.9916 15.4553C40.4304 15.4553 39.0317 16.0841 38.0234 17.0924C37.0043 18.1116 36.3754 19.5102 36.3754 21.0606V38.3104H37.9367V21.0606C37.9367 19.9439 38.3812 18.9247 39.1185 18.1875C39.8557 17.461 40.8641 17.0057 41.9916 17.0057ZM31.1387 38.5489V33.0303C31.1387 32.1738 30.7917 31.404 30.2388 30.851C29.675 30.2981 28.9052 29.9512 28.0595 29.9512C27.2138 29.9512 26.4441 30.2981 25.8803 30.851C25.3273 31.404 24.9912 32.1738 24.9912 33.0303L24.9804 38.5489H26.5416L26.5308 33.0303C26.5308 32.6075 26.7043 32.228 26.9862 31.9461C27.2572 31.675 27.6367 31.5016 28.0595 31.5016C28.4824 31.5016 28.8618 31.675 29.1329 31.9461C29.4148 32.228 29.5774 32.6075 29.5774 33.0303V38.5489H31.1387ZM52.8337 38.5489V33.0303C52.8337 32.1738 53.1807 31.404 53.7336 30.851C54.2974 30.2981 55.0564 29.9512 55.9129 29.9512C56.7586 29.9512 57.5284 30.2981 58.0813 30.851C58.6451 31.404 58.9812 32.1738 58.9812 33.0303V38.5489H57.4308V33.0303C57.4308 32.6075 57.2682 32.228 56.9863 31.9461C56.7152 31.675 56.3357 31.5016 55.9129 31.5016C55.4901 31.5016 55.1106 31.675 54.8395 31.9461C54.5576 32.228 54.3842 32.6075 54.3842 33.0303V38.5489H52.8337ZM32.4072 36.9985H35.4322V38.5489H32.4072V36.9985ZM51.5652 36.9985H48.5403V38.5489H51.5652V36.9985ZM32.4072 34.3639H35.4322V35.9251H32.4072V34.3639ZM51.5652 34.3639H48.5403V35.9251H51.5652V34.3639ZM32.4072 31.7401H35.4322V33.2905H32.4072V31.7401ZM51.5652 31.7401H48.5403V33.2905H51.5652V31.7401ZM20.5243 36.9985H23.5492V38.5489H20.5243V36.9985ZM63.4482 36.9985H60.4232V38.5489H63.4482V36.9985ZM20.5243 34.3639H23.5492V35.9251H20.5243V34.3639ZM63.4482 34.3639H60.4232V35.9251H63.4482V34.3639ZM20.5243 31.7401H23.5492V33.2905H20.5243V31.7401ZM63.4482 31.7401H60.4232V33.2905H63.4482V31.7401ZM35.4322 23.0447H28.2438V21.6353H35.4322V23.0447ZM48.5403 23.0447H55.7286V21.6353H48.5403V23.0447ZM38.9125 49.7163V51.2667H41.6447V49.7163H38.9125ZM45.06 49.7163V51.2667H42.3277V49.7163H45.06ZM38.9125 51.9281V53.4785H41.6447V51.9281H38.9125ZM45.06 51.9281V53.4785H42.3277V51.9281H45.06ZM38.9125 54.1507V55.7012H41.6447V54.1507H38.9125ZM45.06 54.1507V55.7012H42.3277V54.1507H45.06ZM38.9125 56.3625V57.9238H41.6447V56.3625H38.9125ZM45.06 56.3625V57.9238H42.3277V56.3625H45.06ZM35.4322 49.7272H20.5243V51.0716H35.4322V49.7272ZM48.5403 49.7272H63.4482V51.0716H48.5403V49.7272ZM26.5416 48.6972V44.447C26.5416 44.0242 26.7043 43.6447 26.9862 43.3628C27.2572 43.0918 27.6367 42.9183 28.0595 42.9183C28.4824 42.9183 28.8618 43.0918 29.1329 43.3628C29.4148 43.6447 29.5774 44.0242 29.5774 44.447V48.6972H31.1387V44.447C31.1387 43.5905 30.7917 42.8207 30.2388 42.2678C29.675 41.7148 28.9052 41.3679 28.0595 41.3679C27.2138 41.3679 26.444 41.7148 25.8911 42.2678C25.3273 42.8207 24.9804 43.5905 24.9804 44.4362V48.6972H26.5416ZM57.4308 48.6972V44.447C57.4308 44.0242 57.2573 43.6447 56.9863 43.3628C56.7152 43.0918 56.3357 42.9183 55.9129 42.9183C55.4901 42.9183 55.1106 43.0918 54.8395 43.3628C54.5576 43.6447 54.3842 44.0242 54.3842 44.447V48.6972H52.8337V44.447C52.8337 43.5905 53.1807 42.8207 53.7336 42.2678C54.2974 41.7148 55.0564 41.3679 55.9129 41.3679C56.7586 41.3679 57.5284 41.7148 58.0813 42.2678C58.6451 42.8207 58.9812 43.5905 58.9812 44.4362V48.6972H57.4308ZM32.4072 25.6252H35.4322V27.0346H32.4072V25.6252ZM30.3255 25.6252H31.8326V27.0346H30.3255V25.6252ZM26.1513 25.6252H27.6692V27.0346H26.1513V25.6252ZM20.4809 25.6252H23.5058V27.0346H20.4809V25.6252ZM28.2438 25.6252H29.7509V27.0346H28.2438V25.6252ZM24.0696 25.6252H25.5875V27.0346H24.0696V25.6252ZM51.5652 25.6252H48.5403V27.0346H51.5652V25.6252ZM53.6469 25.6252H52.1398V27.0346H53.6469V25.6252ZM57.8211 25.6252H56.3032V27.0346H57.8211V25.6252ZM63.4915 25.6252H60.4666V27.0346H63.4915V25.6252ZM55.7286 25.6252H54.2215V27.0346H55.7286V25.6252ZM59.9028 25.6252H58.3849V27.0346H59.9028V25.6252ZM41.9916 68.0937C41.1351 68.0937 40.1268 67.7467 39.563 67.1938C39.01 66.63 38.6631 65.8602 38.6631 65.0145H14.6587V27.7394H19.5918V28.8995H17.1957V63.4641H40.2135V65.0145C40.2135 65.4374 40.387 65.8168 40.6581 66.0987C40.94 66.3698 41.5688 66.5433 41.9916 66.5433C42.4036 66.5433 43.0325 66.3698 43.3144 66.0987C43.5854 65.8168 43.7589 65.4374 43.7589 65.0145V63.4641H66.7767V28.8995H64.3806V27.7394H69.3137V65.0145H45.3093C45.3093 65.8602 44.9624 66.63 44.4094 67.1938C43.8456 67.7467 42.8373 68.0937 41.9916 68.0937ZM31.1387 51.9281H29.5774V57.9238H31.1387V51.9281ZM52.8337 51.9281H54.3842V57.9238H52.8337V51.9281ZM26.5416 51.9281H24.9804V57.9238H26.5416V51.9281ZM57.4308 51.9281H58.9812V57.9238H57.4308V51.9281ZM32.4072 56.3625H35.4322V57.9238H32.4072V56.3625ZM20.5243 56.3625H23.5492V57.9238H20.5243V56.3625ZM51.5652 56.3625H48.5403V57.9238H51.5652V56.3625ZM63.4482 56.3625H60.4232V57.9238H63.4482V56.3625ZM32.4072 54.1507H35.4322V55.7012H32.4072V54.1507ZM20.5243 54.1507H23.5492V55.7012H20.5243V54.1507ZM51.5652 54.1507H48.5403V55.7012H51.5652V54.1507ZM63.4482 54.1507H60.4232V55.7012H63.4482V54.1507ZM32.4072 51.9281H35.4322V53.4785H32.4072V51.9281ZM20.5243 51.9281H23.5492V53.4785H20.5243V51.9281ZM51.5652 51.9281H48.5403V53.4785H51.5652V51.9281ZM63.4482 51.9281H60.4232V53.4785H63.4482V51.9281ZM41.9916 44.1868C41.1351 44.1868 40.3653 44.5338 39.8124 45.0867C39.2594 45.6397 38.9125 46.4095 38.9125 47.2552V48.6972H40.4629V47.266C40.4629 46.8432 40.6364 46.4637 40.9074 46.1818C41.1893 45.9107 41.5688 45.7373 41.9916 45.7373C42.4036 45.7373 42.7831 45.9107 43.065 46.1818C43.3361 46.4637 43.5095 46.8432 43.5095 47.266V48.6972H45.06V47.2552C45.06 46.4095 44.713 45.6397 44.1601 45.0867C43.6071 44.5338 42.8373 44.1868 41.9916 44.1868ZM32.4072 47.1467H35.4322V48.6972H32.4072V47.1467ZM20.5243 47.1467H23.5492V48.6972H20.5243V47.1467ZM32.4072 44.9241H35.4322V46.4745H32.4072V44.9241ZM20.5243 44.9241H23.5492V46.4745H20.5243V44.9241ZM32.4072 42.7123H35.4322V44.2627H32.4072V42.7123ZM20.5243 42.7123H23.5492V44.2627H20.5243V42.7123ZM51.5652 47.1467H48.5403V48.6972H51.5652V47.1467ZM63.4482 47.1467H60.4232V48.6972H63.4482V47.1467ZM51.5652 44.9241H48.5403V46.4745H51.5652V44.9241ZM63.4482 44.9241H60.4232V46.4745H63.4482V44.9241ZM51.5652 42.7123H48.5403V44.2627H51.5652V42.7123ZM63.4482 42.7123H60.4232V44.2627H63.4482V42.7123ZM42.7397 7.58389C53.4626 7.61642 63.1663 11.9858 70.1811 19.0332C77.1959 26.0805 81.5111 35.8059 81.4894 46.5396C81.4569 57.2624 77.0875 66.9661 70.0402 73.9809C62.9928 80.9958 53.2674 85.3109 42.5446 85.2893C31.8109 85.2567 22.1072 80.8874 15.1032 73.84C8.08837 66.7926 3.76238 57.0673 3.7949 46.3336C3.81659 35.6107 8.1968 25.907 15.2442 18.8922C22.2915 11.8882 32.0061 7.56221 42.7397 7.58389ZM68.9668 20.2475C62.2664 13.5037 52.9855 9.31863 42.7397 9.29694C32.4831 9.27526 23.1806 13.4061 16.4476 20.1065C9.70385 26.8069 5.52963 36.0878 5.49711 46.3336C5.47542 56.5902 9.60626 65.8927 16.3067 72.6257C23.0179 79.3695 32.2879 83.5545 42.5446 83.5762C52.8012 83.6087 62.0929 79.467 68.8367 72.7666C75.5696 66.0662 79.7547 56.7854 79.7764 46.5396C79.8089 36.2829 75.6672 26.9804 68.9668 20.2475ZM42.7506 3.78915C54.5251 3.82168 65.1721 8.62473 72.8699 16.366C80.5678 24.0964 85.3167 34.765 85.2842 46.5396C85.2516 58.3249 80.4486 68.9719 72.7182 76.6698C64.9769 84.3677 54.3083 89.1165 42.5337 89.084C30.7484 89.0515 20.1014 84.2484 12.4035 76.518C4.70563 68.7767 -0.0323599 58.1081 0.0001664 46.3336C0.0218506 34.5482 4.8249 23.9013 12.5662 16.2034C20.2966 8.50547 30.9761 3.76747 42.7506 3.78915ZM42.7506 5.5022C31.4423 5.46968 21.1965 10.0234 13.7696 17.4177C6.34279 24.8012 1.73489 35.0253 1.70237 46.3336C1.66984 57.6311 6.23437 67.8768 13.6178 75.3037C21.0122 82.7305 31.2254 87.3384 42.5337 87.3709C53.8312 87.4035 64.0878 82.8498 71.5147 75.4555C78.9415 68.072 83.5494 57.8479 83.5711 46.5504C83.6036 35.2421 79.0499 24.9963 71.6556 17.5695C64.2722 10.1426 54.048 5.53473 42.7506 5.5022ZM30.0545 79.4562H31.7458V70.8259H28.8185V72.2679H30.0545V79.4562ZM36.5923 79.6839L39.1293 76.2903C39.7365 75.488 40.2244 74.6532 40.2244 73.6015C40.2244 72.6365 39.8449 71.9752 39.3787 71.5089C38.6631 70.7934 37.8391 70.6307 36.9175 70.6307C36.0393 70.6307 35.1936 70.8042 34.4564 71.6065C33.8817 72.2462 33.6649 72.9726 33.6649 73.6991C33.6649 74.5989 34.0335 75.3362 34.4889 75.7699C34.9876 76.2578 35.7683 76.5071 36.3754 76.5071C36.6898 76.5071 37.0259 76.4204 37.297 76.3337L35.237 79.0225L36.5923 79.6839ZM36.95 71.9752C37.4596 71.9752 37.8391 72.192 38.0559 72.398C38.3162 72.6474 38.533 73.016 38.533 73.5689C38.533 74.0026 38.3812 74.3713 38.0668 74.6857C37.7632 75.0109 37.4163 75.1519 36.95 75.1519C36.5164 75.1519 36.1586 75.0543 35.8333 74.7399C35.5297 74.458 35.3563 74.0677 35.3563 73.5473C35.3563 72.9835 35.6165 72.6148 35.8225 72.4088C36.0393 72.192 36.3971 71.9752 36.95 71.9752ZM42.8482 73.0702C42.8807 72.3329 43.4445 71.9426 44.0408 71.9426C44.7238 71.9426 45.1792 72.398 45.1792 73.081C45.1792 73.6774 44.8214 74.2628 43.9974 74.2628H43.7697V75.4771H43.9866C45.0274 75.4771 45.4177 76.1927 45.4177 76.8216C45.4177 77.4829 45.0057 78.1985 44.0408 78.1985C43.2059 78.1985 42.7072 77.6781 42.5988 76.9734H40.9183C41.0592 78.6214 42.3711 79.6514 44.0191 79.6514C45.7322 79.6514 47.0983 78.6539 47.0983 76.8758C47.0983 75.4555 46.1333 74.9567 45.7864 74.8158C46.6863 74.317 46.7838 73.4605 46.7838 73.0052C46.7838 71.5632 45.7322 70.6307 44.0733 70.6307C42.5988 70.6307 41.4278 71.5089 41.2652 73.0702H42.8482ZM47.8897 79.4562H54.1565V78.0034H51.0339L52.5302 76.3879C53.2024 75.6615 54.0914 74.7074 54.0914 73.3738C54.0914 71.9968 53.0614 70.6307 51.0556 70.6307C49.3426 70.6307 48.0957 71.7475 48.0198 73.5147H49.7546C49.7871 72.7775 50.2533 72.0727 51.1315 72.0727C51.8579 72.0727 52.4109 72.604 52.4109 73.3846C52.4109 73.8834 52.1398 74.4146 51.9013 74.7724C51.5977 75.2386 50.5894 76.3879 50.4268 76.5614L47.8897 79.4562ZM45.0274 61.6209L64.3264 60.8728V59.3224L45.0274 60.0705C44.1926 60.0814 43.4445 60.4175 42.8915 60.9704C42.3277 61.5342 41.9916 62.0546 41.9916 62.9003H43.542C43.542 62.4775 43.7047 62.3365 43.9866 62.0655C44.2468 61.7944 44.6154 61.6318 45.0274 61.6209ZM38.945 61.6209L19.6461 60.8728V59.3224L38.945 60.0705C39.7798 60.0814 40.528 60.4175 41.0809 60.9704C41.6447 61.5342 41.9916 62.0546 41.9916 62.9003H40.4304C40.4304 62.4775 40.2677 62.3365 39.9858 62.0655C39.7256 61.7944 39.3462 61.6318 38.945 61.6209Z" fill="#248E05"/>
</g>
<defs>
<clipPath id="clip0_21_344">
<rect width="87.8211" height="88.9053" fill="white" transform="translate(0 0.547363)"/>
</clipPath>
</defs>
</svg>
