<svg width="39" height="40" viewBox="0 0 39 40" fill="none" xmlns="http://www.w3.org/2000/svg">
<g clip-path="url(#clip0_30_646)">
<path d="M49.2876 8.05522L47.2396 5.06609L49.2072 2.22831H47.6889L45.9106 4.75866V2.22831H44.5769V8.05522H45.9106V5.35933L47.7741 8.05522H49.2876ZM54.0267 2.22831H49.7889V8.05522H51.1227V6.22485H54.0267C55.176 6.22485 56.0651 5.33568 56.0651 4.22895C56.0651 3.11748 55.176 2.22831 54.0267 2.22831ZM54.0267 4.97623H51.1227V3.47693H54.0267C54.4334 3.47693 54.7361 3.80328 54.7361 4.22895C54.7361 4.64988 54.4334 4.97623 54.0267 4.97623ZM59.8536 8.05522H61.3103L59.3286 2.22831H57.6306L55.6489 8.05522H57.1056L57.3989 7.1424H59.5651L59.8536 8.05522ZM57.8009 5.89378L58.482 3.75125L59.163 5.89378H57.8009ZM64.3846 8.17346C65.4487 8.17346 66.3805 7.64847 66.8818 6.82552L65.7325 6.15864C65.4818 6.60795 64.9758 6.87281 64.3846 6.87281C63.3488 6.87281 62.6866 6.18228 62.6866 5.14177C62.6866 4.10125 63.3488 3.41072 64.3846 3.41072C64.9758 3.41072 65.4724 3.67558 65.7325 4.1249L66.8818 3.46275C66.371 2.63506 65.4393 2.11007 64.3846 2.11007C62.6251 2.11007 61.3529 3.42964 61.3529 5.14177C61.3529 6.85862 62.6251 8.17346 64.3846 8.17346ZM73.8107 2.22831V4.4607H68.8351V2.22831H67.5061V8.05522H68.8351V5.74243H73.8107V8.05522H75.1397V2.22831H73.8107ZM78.9187 8.17346C80.593 8.17346 81.9504 6.85862 81.9504 5.14177C81.9504 3.42964 80.593 2.11007 78.9187 2.11007C77.2492 2.11007 75.8917 3.42964 75.8917 5.14177C75.8917 6.85862 77.2492 8.17346 78.9187 8.17346ZM78.9187 6.87281C77.9728 6.87281 77.2208 6.18228 77.2208 5.14177C77.2208 4.10125 77.9728 3.41072 78.9187 3.41072C79.8694 3.41072 80.6166 4.10125 80.6166 5.14177C80.6166 6.18228 79.8694 6.87281 78.9187 6.87281ZM88.3165 2.22831H84.4477C83.3409 2.22831 82.4518 3.11748 82.4518 4.22895C82.4518 4.98569 82.9436 5.67621 83.6483 5.97418L82.2815 8.05522H83.7808L85.0199 6.13972H86.9827V8.05522H88.3165V2.22831ZM84.4477 4.97623C84.0835 4.97623 83.7808 4.64988 83.7808 4.22895C83.7808 3.80328 84.0835 3.47693 84.4477 3.47693H86.9827V4.97623H84.4477ZM93.1455 2.22831H89.3145V8.05522H90.6482V6.22485H93.1455C94.2948 6.22485 95.1839 5.33568 95.1839 4.22895C95.1839 3.11748 94.2948 2.22831 93.1455 2.22831ZM93.1455 4.97623H90.6482V3.47693H93.1455C93.5522 3.47693 93.8549 3.80328 93.8549 4.22895C93.8549 4.64988 93.5522 4.97623 93.1455 4.97623ZM98.5892 8.17346C99.6581 8.17346 100.59 7.64847 101.086 6.82552L99.9372 6.15864C99.6913 6.60795 99.1805 6.87281 98.5892 6.87281C97.5582 6.87281 96.8913 6.18228 96.8913 5.14177C96.8913 4.10125 97.5582 3.41072 98.5892 3.41072C99.1805 3.41072 99.6818 3.67558 99.9372 4.1249L101.086 3.46275C100.58 2.63506 99.6487 2.11007 98.5892 2.11007C96.8346 2.11007 95.5623 3.42964 95.5623 5.14177C95.5623 6.85862 96.8346 8.17346 98.5892 8.17346ZM106.422 8.05522L104.374 5.06609L106.341 2.22831H104.823L103.045 4.75866V2.22831H101.711V8.05522H103.045V5.35933L104.908 8.05522H106.422ZM110.167 8.05522H111.501V2.22831H110.503L108.257 5.39244V2.22831H106.923V8.05522H107.921L110.167 4.8911V8.05522ZM113.54 1.73643H116.037V0.842529H113.54V1.73643ZM115.748 8.05522H117.077V2.22831H116.079L113.833 5.39244V2.22831H112.499V8.05522H113.502L115.748 4.8911V8.05522ZM49.6612 10.0795H44.5769V15.9064H45.9106V11.3612H49.6612V10.0795ZM53.0618 16.0246C54.7361 16.0246 56.0888 14.7098 56.0888 12.993C56.0888 11.2808 54.7361 9.96599 53.0618 9.96599C51.3875 9.96599 50.0301 11.2808 50.0301 12.993C50.0301 14.7098 51.3875 16.0246 53.0618 16.0246ZM53.0618 14.724C52.1112 14.724 51.3639 14.0335 51.3639 12.993C51.3639 11.9524 52.1112 11.2619 53.0618 11.2619C54.0077 11.2619 54.7598 11.9524 54.7598 12.993C54.7598 14.0335 54.0077 14.724 53.0618 14.724ZM59.6218 16.0246C60.686 16.0246 61.6177 15.4997 62.1191 14.6767L60.9698 14.0098C60.7191 14.4591 60.213 14.724 59.6218 14.724C58.586 14.724 57.9239 14.0335 57.9239 12.993C57.9239 11.9524 58.586 11.2619 59.6218 11.2619C60.213 11.2619 60.7096 11.5315 60.9698 11.9808L62.1191 11.3139C61.6083 10.491 60.6765 9.96599 59.6218 9.96599C57.8624 9.96599 56.5901 11.2808 56.5901 12.993C56.5901 14.7098 57.8624 16.0246 59.6218 16.0246ZM65.8224 10.0795L64.796 12.6288L63.6562 10.0795H62.3272L64.1906 14.0855C63.9636 14.4922 63.6325 14.7193 63.0271 14.6578V15.9064C64.115 15.9679 64.9568 15.4524 65.4724 14.1943L67.1561 10.0795H65.8224ZM72.1837 14.6247V10.0795H67.8277V12.695C67.8277 13.6835 67.6385 14.2416 67.369 14.6247H66.7778V17.0226H68.1115V15.9064H71.4743V17.0226H72.808V14.6247H72.1837ZM68.7878 14.6247C68.9959 14.251 69.1615 13.6693 69.1615 12.7092V11.3281H70.85V14.6247H68.7878ZM77.2633 15.9064H78.7201L76.7384 10.0795H75.0404L73.0587 15.9064H74.5154L74.8039 14.9936H76.9701L77.2633 15.9064ZM75.2059 13.745L75.887 11.6024L76.5728 13.745H75.2059ZM81.4254 10.0795H79.2167V15.9064H80.5504V14.076H81.4254C82.5747 14.076 83.4639 13.1869 83.4639 12.0801C83.4639 10.9734 82.5747 10.0795 81.4254 10.0795ZM81.4254 12.8274H80.5504V11.3281H81.4254C81.8322 11.3281 82.1301 11.6545 82.1301 12.0801C82.1301 12.5011 81.8322 12.8274 81.4254 12.8274ZM86.8692 16.0246C87.9334 16.0246 88.8651 15.4997 89.3665 14.6767L88.2172 14.0098C87.9665 14.4591 87.4604 14.724 86.8692 14.724C85.8382 14.724 85.1713 14.0335 85.1713 12.993C85.1713 11.9524 85.8382 11.2619 86.8692 11.2619C87.4604 11.2619 87.957 11.5315 88.2172 11.9808L89.3665 11.3139C88.8557 10.491 87.9239 9.96599 86.8692 9.96599C85.1145 9.96599 83.8375 11.2808 83.8375 12.993C83.8375 14.7098 85.1145 16.0246 86.8692 16.0246ZM93.9022 10.0795H89.5746V11.3612H91.0739V15.9064H92.4029V11.3612H93.9022V10.0795ZM99.4973 12.8842C99.8142 12.6099 100.008 12.2268 100.008 11.7443C100.008 10.7369 99.1805 10.0795 98.1683 10.0795H94.4839V15.9064H98.3339C99.3744 15.9064 100.216 15.2348 100.216 14.2037C100.216 13.6125 99.9325 13.1632 99.4973 12.8842ZM98.1683 11.3281C98.4757 11.3281 98.6744 11.5457 98.6744 11.8437C98.6744 12.1464 98.4663 12.3639 98.1683 12.3639H95.8177V11.3281H98.1683ZM98.3339 14.6578H95.8177V13.5416H98.3339C98.6649 13.5416 98.8825 13.7781 98.8825 14.0997C98.8825 14.426 98.6649 14.6578 98.3339 14.6578ZM102.212 14.6247V13.5936H105.31V12.3308H102.212V11.3612H105.518V10.0795H100.878V15.9064H105.556V14.6247H102.212ZM109.472 10.0795V12.3119H107.637V10.0795H106.308V15.9064H107.637V13.5936H109.472V15.9064H110.801V10.0795H109.472ZM116.363 10.0795V12.3119H113.133V10.0795H111.799V15.9064H113.133V13.5936H116.363V15.9064H117.697V10.0795H116.363ZM118.695 15.9064H121.987C123.136 15.9064 124.025 15.0172 124.025 13.9105C124.025 12.8038 123.136 11.9099 121.987 11.9099H120.029V10.0795H118.695V15.9064ZM124.527 15.9064H125.856V10.0795H124.527V15.9064ZM120.029 14.6578V13.1632H121.987C122.393 13.1632 122.691 13.4848 122.691 13.9105C122.691 14.3362 122.393 14.6578 121.987 14.6578H120.029ZM127.899 9.58762H130.396V8.69372H127.899V9.58762ZM130.103 15.9064H131.437V10.0795H130.434L128.187 13.2436V10.0795H126.854V15.9064H127.856L130.103 12.7423V15.9064ZM50.1626 17.9307H44.5769V23.7623H45.9106V19.2171H48.8335V23.7623H50.1626V17.9307ZM52.4943 22.4759V21.4448H56.4719V20.182H52.4943V19.2171H56.68V17.9307H51.1652V23.7623H56.7225V22.4759H52.4943ZM63.2258 22.4759V17.9307H58.1462V20.5462C58.1462 21.5394 57.957 22.0975 57.6874 22.4759H57.0962V24.8738H58.43V23.7623H62.5163V24.8738H63.8501V22.4759H63.2258ZM59.1063 22.4759C59.3144 22.1022 59.4799 21.5205 59.4799 20.5651V19.1793H61.892V22.4759H59.1063ZM68.4899 23.7623H69.9466L67.9649 17.9307H66.2669L64.2852 23.7623H65.742L66.0305 22.8448H68.1966L68.4899 23.7623ZM66.4325 21.5962L67.1136 19.4584L67.7994 21.5962H66.4325ZM75.031 17.9307H70.4432V23.7623H71.777V19.2171H75.031V17.9307ZM78.1572 23.8758C79.8268 23.8758 81.1842 22.561 81.1842 20.8441C81.1842 19.132 79.8268 17.8172 78.1572 17.8172C76.483 17.8172 75.1255 19.132 75.1255 20.8441C75.1255 22.561 76.483 23.8758 78.1572 23.8758ZM78.1572 22.5799C77.2066 22.5799 76.4593 21.8847 76.4593 20.8441C76.4593 19.8084 77.2066 19.1131 78.1572 19.1131C79.1032 19.1131 79.8552 19.8084 79.8552 20.8441C79.8552 21.8847 79.1032 22.5799 78.1572 22.5799ZM85.2659 17.9307H81.9362V23.7623H83.2652V19.2171H85.2659V17.9307ZM89.0922 23.7623H90.4259V17.9307H89.428L87.1814 21.0948V17.9307H85.8476V23.7623H86.8456L89.0922 20.5982V23.7623ZM94.3799 17.9307V20.4374C94.0819 20.5698 93.7792 20.6313 93.4245 20.6313C92.9657 20.6313 92.6299 20.357 92.6299 19.8131V17.9307H91.3009V20.0117C91.3009 21.2367 92.2326 21.913 93.3914 21.913C93.7367 21.913 94.0535 21.8516 94.3799 21.7286V23.7623H95.7136V17.9307H94.3799ZM98.0406 22.4759V21.4448H101.072V20.182H98.0406V19.2171H101.28V17.9307H96.7116V23.7623H101.323V22.4759H98.0406ZM104.809 23.8758C105.878 23.8758 106.809 23.3508 107.306 22.5279L106.157 21.861C105.911 22.3103 105.4 22.5799 104.809 22.5799C103.778 22.5799 103.111 21.8847 103.111 20.8441C103.111 19.8084 103.778 19.1131 104.809 19.1131C105.4 19.1131 105.901 19.3827 106.157 19.832L107.306 19.1651C106.8 18.3422 105.868 17.8172 104.809 17.8172C103.054 17.8172 101.782 19.132 101.782 20.8441C101.782 22.561 103.054 23.8758 104.809 23.8758ZM112.641 23.7623L110.593 20.7732L112.561 17.9307H111.042L109.264 20.4658V17.9307H107.93V23.7623H109.264V21.0617L111.128 23.7623H112.641ZM116.387 23.7623H117.721V17.9307H116.723L114.476 21.0948V17.9307H113.142V23.7623H114.14L116.387 20.5982V23.7623ZM119.759 17.4435H122.256V16.6395H119.759V17.4435ZM121.968 23.7623H123.297V17.9307H122.299L120.052 21.0948V17.9307H118.719V23.7623H119.721L121.968 20.5982V23.7623ZM47.741 25.7866L46.7146 28.3312L45.5748 25.7866H44.2458L46.1093 29.7879C45.8822 30.1946 45.5512 30.4216 44.9458 30.3649V31.6135C46.0336 31.6703 46.8755 31.1547 47.391 29.8967L49.0747 25.7866H47.741ZM55.3935 25.7866V28.0143H50.9855V25.7866H49.6565V31.6135H50.9855V29.296H55.3935V31.6135H56.7273V25.7866H55.3935ZM60.9698 31.6135H62.3035V25.7866H61.3056L59.0543 28.946V25.7866H57.7252V31.6135H58.7232L60.9698 28.4494V31.6135ZM68.5845 28.5913C68.9013 28.317 69.0953 27.9339 69.0953 27.4514C69.0953 26.444 68.2676 25.7866 67.2554 25.7866H63.3015V31.6135H67.421C68.4615 31.6135 69.3034 30.9372 69.3034 29.9061C69.3034 29.3149 69.0196 28.8656 68.5845 28.5913ZM67.2554 27.0352C67.5629 27.0352 67.7615 27.2481 67.7615 27.5508C67.7615 27.8487 67.5534 28.0663 67.2554 28.0663H64.6352V27.0352H67.2554ZM67.421 30.3649H64.6352V29.2487H67.421C67.7521 29.2487 67.9696 29.4805 67.9696 29.8068C67.9696 30.1284 67.7521 30.3649 67.421 30.3649ZM71.2993 30.3318V29.296H74.4445V28.0332H71.2993V27.0683H74.6526V25.7866H69.9703V31.6135H74.6952V30.3318H71.2993ZM79.2309 25.7866H75.4424V31.6135H76.7762V29.7784H79.2309C80.3802 29.7784 81.2693 28.8892 81.2693 27.7825C81.2693 26.6758 80.3802 25.7866 79.2309 25.7866ZM79.2309 28.5298H76.7762V27.0352H79.2309C79.6376 27.0352 79.9403 27.3568 79.9403 27.7825C79.9403 28.2082 79.6376 28.5298 79.2309 28.5298ZM84.6747 31.727C85.7388 31.727 86.6706 31.202 87.1719 30.3791L86.0226 29.7122C85.772 30.1615 85.2659 30.4311 84.6747 30.4311C83.6436 30.4311 82.9767 29.7406 82.9767 28.7001C82.9767 27.6595 83.6436 26.969 84.6747 26.969C85.2659 26.969 85.7672 27.2339 86.0226 27.6832L87.1719 27.0163C86.6659 26.1934 85.7341 25.6684 84.6747 25.6684C82.92 25.6684 81.643 26.9832 81.643 28.7001C81.643 30.4122 82.92 31.727 84.6747 31.727ZM91.0408 31.6135H92.3745V25.7866H91.3766L89.13 28.946V25.7866H87.7962V31.6135H88.7942L91.0408 28.4494V31.6135ZM99.2798 25.7866H93.1407V27.0683H95.5434V31.6135H96.8771V27.0683H99.2798V25.7866ZM101.195 30.3318V29.296H104.899V28.0332H101.195V27.0683H105.107V25.7866H99.8615V31.6135H105.149V30.3318H101.195ZM110.948 25.7866H105.759V27.0683H107.665V31.6135H108.999V27.0683H110.948V25.7866ZM47.8261 39.4647H49.1551V33.6378H48.1572L45.9106 36.8019V33.6378H44.5769V39.4647H45.5748L47.8261 36.3006V39.4647ZM55.98 33.6378H54.651L53.0665 36.2249L51.4868 33.6378H50.1531V39.4647H51.4868V36.0783L52.9956 38.5472H53.1422L54.651 36.0783V39.4647H55.98V33.6378ZM57.6448 39.583C58.08 39.583 58.4394 39.2235 58.4394 38.7884C58.4394 38.358 58.08 37.9985 57.6448 37.9985C57.2144 37.9985 56.855 38.358 56.855 38.7884C56.855 39.2235 57.2144 39.583 57.6448 39.583ZM66.1345 36.4425C66.4514 36.1682 66.6453 35.7851 66.6453 35.3026C66.6453 34.2952 65.8176 33.6378 64.8055 33.6378H61.3907V39.4647H64.971C66.0116 39.4647 66.8487 38.7884 66.8487 37.7573C66.8487 37.1661 66.5696 36.7168 66.1345 36.4425ZM64.8055 34.8864C65.1129 34.8864 65.3116 35.104 65.3116 35.402C65.3116 35.6999 65.1035 35.9175 64.8055 35.9175H62.7245V34.8864H64.8055ZM64.971 38.2161H62.7245V37.0999H64.971C65.3021 37.0999 65.5197 37.3316 65.5197 37.658C65.5197 37.9843 65.3021 38.2161 64.971 38.2161ZM67.9318 39.583C68.3669 39.583 68.7264 39.2235 68.7264 38.7884C68.7264 38.358 68.3669 37.9985 67.9318 37.9985C67.5014 37.9985 67.1419 38.358 67.1419 38.7884C67.1419 39.2235 67.5014 39.583 67.9318 39.583ZM77.2681 33.6378H71.6776V39.4647H73.0114V34.9195H75.9343V39.4647H77.2681V33.6378ZM78.9329 39.583C79.3633 39.583 79.7228 39.2235 79.7228 38.7884C79.7228 38.358 79.3633 37.9985 78.9329 37.9985C78.4978 37.9985 78.1383 38.358 78.1383 38.7884C78.1383 39.2235 78.4978 39.583 78.9329 39.583ZM86.3821 39.4647H87.8388L85.8571 33.6378H84.1591L82.1774 39.4647H83.6342L83.9274 38.5472H86.0888L86.3821 39.4647ZM84.3247 37.2985L85.0057 35.1607L85.6916 37.2985H84.3247ZM90.9083 39.583C91.9772 39.583 92.909 39.058 93.4056 38.2303L92.2563 37.5681C92.0103 38.0174 91.4995 38.2823 90.9083 38.2823C89.8773 38.2823 89.2104 37.5918 89.2104 36.5513C89.2104 35.5107 89.8773 34.8202 90.9083 34.8202C91.4995 34.8202 92.0009 35.0851 92.2563 35.5344L93.4056 34.8675C92.8995 34.0446 91.9678 33.5196 90.9083 33.5196C89.1536 33.5196 87.8814 34.8344 87.8814 36.5513C87.8814 38.2634 89.1536 39.583 90.9083 39.583ZM98.892 33.6378H93.6137V34.9195H95.567V39.4647H96.896V34.9195H98.892V33.6378ZM102.766 39.4647H104.222L102.241 33.6378H100.543L98.5609 39.4647H100.018L100.306 38.5472H102.472L102.766 39.4647ZM100.708 37.2985L101.389 35.1607L102.07 37.2985H100.708ZM110.744 36.5513C110.744 35.227 109.713 34.3425 108.134 34.1533V33.4723H106.833V34.1533C105.253 34.3425 104.222 35.227 104.222 36.5513C104.222 37.8756 105.253 38.7553 106.833 38.9492V39.6302H108.134V38.9492C109.713 38.7553 110.744 37.8756 110.744 36.5513ZM105.551 36.5513C105.551 35.8844 105.967 35.4918 106.833 35.3783V37.7242C105.967 37.606 105.551 37.2181 105.551 36.5513ZM108.134 37.7242V35.3783C108.999 35.4918 109.415 35.8844 109.415 36.5513C109.415 37.2181 108.999 37.606 108.134 37.7242ZM114.296 35.4682H112.745V33.6378H111.411V39.4647H114.296C115.446 39.4647 116.335 38.5755 116.335 37.4641C116.335 36.3573 115.446 35.4682 114.296 35.4682ZM114.296 38.2161H112.745V36.7168H114.296C114.703 36.7168 115.006 37.0431 115.006 37.4641C115.006 37.8897 114.703 38.2161 114.296 38.2161ZM118.335 38.183V37.1519H120.417V35.8844H118.335V34.9195H120.625V33.6378H117.002V39.4647H120.662V38.183H118.335ZM126.877 36.4425C127.194 36.1682 127.388 35.7851 127.388 35.3026C127.388 34.2952 126.56 33.6378 125.548 33.6378H121.414V39.4647H125.714C126.754 39.4647 127.596 38.7884 127.596 37.7573C127.596 37.1661 127.312 36.7168 126.877 36.4425ZM125.548 34.8864C125.856 34.8864 126.054 35.104 126.054 35.402C126.054 35.6999 125.846 35.9175 125.548 35.9175H122.743V34.8864H125.548ZM125.714 38.2161H122.743V37.0999H125.714C126.045 37.0999 126.262 37.3316 126.262 37.658C126.262 37.9843 126.045 38.2161 125.714 38.2161ZM131.966 39.4647H133.423L131.441 33.6378H129.743L127.762 39.4647H129.218L129.507 38.5472H131.673L131.966 39.4647ZM129.909 37.2985L130.59 35.1607L131.276 37.2985H129.909ZM40.8688 2.22831V39.4647H40.1073V2.22831H40.8688ZM28.2738 17.8787H8.35733V18.3847H28.2738V17.8787ZM18.3179 19.4016C17.8261 19.4016 17.3862 19.5955 17.0646 19.9124C16.743 20.2293 16.5491 20.6644 16.5491 21.1421V25.8717H15.868V21.1421C15.868 20.48 16.147 19.8698 16.5916 19.43C17.0315 18.9949 17.6416 18.7205 18.3179 18.7205C18.9895 18.7205 19.5997 18.9949 20.0395 19.43C20.4841 19.8698 20.7632 20.48 20.7632 21.1421V25.8717H20.0821V21.1421C20.0821 20.6644 19.8882 20.2293 19.5666 19.9124C19.2449 19.5955 18.8051 19.4016 18.3179 19.4016ZM18.3179 8.44778C18.6868 8.44778 19.0227 8.59913 19.2639 8.84034C19.5051 9.08628 19.6564 9.42208 19.6564 9.79099C19.6564 10.1599 19.5051 10.4957 19.2639 10.7369C19.0227 10.9829 18.6868 11.1295 18.3179 11.1295C17.9443 11.1295 17.6085 10.9829 17.3673 10.7369C17.1261 10.4957 16.9747 10.1599 16.9747 9.79099C16.9747 9.42208 17.1261 9.08628 17.3673 8.84034C17.6085 8.59913 17.9443 8.44778 18.3179 8.44778ZM18.3179 10.4531C18.4977 10.4531 18.6632 10.3775 18.7862 10.2592C18.9044 10.141 18.9801 9.97545 18.9801 9.79099C18.9801 9.60654 18.9044 9.441 18.7862 9.32276C18.6632 9.19979 18.4977 9.12885 18.3179 9.12885C18.1335 9.12885 17.9679 9.19979 17.845 9.32276C17.7267 9.441 17.6511 9.60654 17.6511 9.79099C17.6511 9.97545 17.7267 10.141 17.845 10.2592C17.9679 10.3775 18.1335 10.4531 18.3179 10.4531ZM18.3179 12.0659C18.1335 12.0659 17.9679 12.1416 17.845 12.2599C17.7267 12.3828 17.6511 12.5484 17.6511 12.7281V17.3158H16.9747V12.7281C16.9747 12.3592 17.1261 12.0234 17.3673 11.7822C17.6085 11.541 17.9443 11.3896 18.3179 11.3896C18.6868 11.3896 19.0227 11.541 19.2639 11.7822C19.5051 12.0234 19.6564 12.3592 19.6564 12.7281V17.3158H18.9801V12.7281C18.9801 12.5484 18.9044 12.3828 18.7862 12.2599C18.6632 12.1416 18.4977 12.0659 18.3179 12.0659ZM15.4565 11.4747H8.35733V10.8599H15.4565V11.4747ZM21.1746 11.4747H28.2738V10.8599H21.1746V11.4747ZM18.3179 6.92957C17.5234 6.92957 16.8092 7.25118 16.2937 7.76671C15.7734 8.28224 15.4565 9.00115 15.4565 9.79099H14.7754C14.7754 8.81196 15.1727 7.93225 15.816 7.28902C16.4545 6.65052 17.3389 6.25323 18.3179 6.25323C19.2922 6.25323 20.1767 6.65052 20.8152 7.28902C21.4584 7.93225 21.8557 8.81196 21.8557 9.79099H21.1746C21.1746 9.00115 20.8578 8.28224 20.3375 7.76671C19.822 7.25118 19.1078 6.92957 18.3179 6.92957ZM15.4565 12.7044H8.95326V13.2105H15.4565V12.7044ZM21.1746 12.7044H27.6779V13.2105H21.1746V12.7044ZM18.3179 8.02211C18.8051 8.02211 19.2449 8.22076 19.5666 8.53764C19.8882 8.85926 20.0821 9.30384 20.0821 9.79099V17.3158H20.7632V9.79099C20.7632 9.11466 20.4888 8.50453 20.0442 8.05995C19.6044 7.62009 18.9943 7.34577 18.3179 7.34577C17.6369 7.34577 17.0267 7.62009 16.5869 8.05995C16.1423 8.50453 15.868 9.11466 15.868 9.79099V17.3158H16.5491V9.79099C16.5491 9.30384 16.743 8.85926 17.0646 8.53764C17.3862 8.22076 17.8261 8.02211 18.3179 8.02211ZM13.5836 17.4199V15.0125C13.5836 14.6389 13.4322 14.3031 13.191 14.0619C12.9451 13.8206 12.6093 13.6693 12.2404 13.6693C11.8714 13.6693 11.5356 13.8206 11.2897 14.0619C11.0485 14.3031 10.9019 14.6389 10.9019 15.0125L10.8971 17.4199H11.5782L11.5735 15.0125C11.5735 14.8281 11.6492 14.6625 11.7721 14.5395C11.8904 14.4213 12.0559 14.3456 12.2404 14.3456C12.4248 14.3456 12.5904 14.4213 12.7086 14.5395C12.8316 14.6625 12.9025 14.8281 12.9025 15.0125V17.4199H13.5836ZM23.0476 17.4199V15.0125C23.0476 14.6389 23.1989 14.3031 23.4401 14.0619C23.6861 13.8206 24.0171 13.6693 24.3908 13.6693C24.7597 13.6693 25.0955 13.8206 25.3367 14.0619C25.5827 14.3031 25.7293 14.6389 25.7293 15.0125V17.4199H25.0529V15.0125C25.0529 14.8281 24.982 14.6625 24.859 14.5395C24.7408 14.4213 24.5752 14.3456 24.3908 14.3456C24.2063 14.3456 24.0408 14.4213 23.9225 14.5395C23.7996 14.6625 23.7239 14.8281 23.7239 15.0125V17.4199H23.0476ZM14.1369 16.7436H15.4565V17.4199H14.1369V16.7436ZM22.4942 16.7436H21.1746V17.4199H22.4942V16.7436ZM14.1369 15.5943H15.4565V16.2753H14.1369V15.5943ZM22.4942 15.5943H21.1746V16.2753H22.4942V15.5943ZM14.1369 14.4497H15.4565V15.126H14.1369V14.4497ZM22.4942 14.4497H21.1746V15.126H22.4942V14.4497ZM8.95326 16.7436H10.2728V17.4199H8.95326V16.7436ZM27.6779 16.7436H26.3583V17.4199H27.6779V16.7436ZM8.95326 15.5943H10.2728V16.2753H8.95326V15.5943ZM27.6779 15.5943H26.3583V16.2753H27.6779V15.5943ZM8.95326 14.4497H10.2728V15.126H8.95326V14.4497ZM27.6779 14.4497H26.3583V15.126H27.6779V14.4497ZM15.4565 10.6565H12.3208V10.0417H15.4565V10.6565ZM21.1746 10.6565H24.3104V10.0417H21.1746V10.6565ZM16.9747 22.2914V22.9677H18.1666V22.2914H16.9747ZM19.6564 22.2914V22.9677H18.4646V22.2914H19.6564ZM16.9747 23.2563V23.9326H18.1666V23.2563H16.9747ZM19.6564 23.2563V23.9326H18.4646V23.2563H19.6564ZM16.9747 24.2258V24.9022H18.1666V24.2258H16.9747ZM19.6564 24.2258V24.9022H18.4646V24.2258H19.6564ZM16.9747 25.1907V25.8717H18.1666V25.1907H16.9747ZM19.6564 25.1907V25.8717H18.4646V25.1907H19.6564ZM15.4565 22.2961H8.95326V22.8826H15.4565V22.2961ZM21.1746 22.2961H27.6779V22.8826H21.1746V22.2961ZM11.5782 21.8468V19.9928C11.5782 19.8084 11.6492 19.6428 11.7721 19.5198C11.8904 19.4016 12.0559 19.3259 12.2404 19.3259C12.4248 19.3259 12.5904 19.4016 12.7086 19.5198C12.8316 19.6428 12.9025 19.8084 12.9025 19.9928V21.8468H13.5836V19.9928C13.5836 19.6192 13.4322 19.2834 13.191 19.0422C12.9451 18.8009 12.6093 18.6496 12.2404 18.6496C11.8714 18.6496 11.5356 18.8009 11.2944 19.0422C11.0485 19.2834 10.8971 19.6192 10.8971 19.9881V21.8468H11.5782ZM25.0529 21.8468V19.9928C25.0529 19.8084 24.9773 19.6428 24.859 19.5198C24.7408 19.4016 24.5752 19.3259 24.3908 19.3259C24.2063 19.3259 24.0408 19.4016 23.9225 19.5198C23.7996 19.6428 23.7239 19.8084 23.7239 19.9928V21.8468H23.0476V19.9928C23.0476 19.6192 23.1989 19.2834 23.4401 19.0422C23.6861 18.8009 24.0171 18.6496 24.3908 18.6496C24.7597 18.6496 25.0955 18.8009 25.3367 19.0422C25.5827 19.2834 25.7293 19.6192 25.7293 19.9881V21.8468H25.0529ZM14.1369 11.7822H15.4565V12.397H14.1369V11.7822ZM13.2289 11.7822H13.8863V12.397H13.2289V11.7822ZM11.4079 11.7822H12.0701V12.397H11.4079V11.7822ZM8.93435 11.7822H10.2539V12.397H8.93435V11.7822ZM12.3208 11.7822H12.9782V12.397H12.3208V11.7822ZM10.4999 11.7822H11.162V12.397H10.4999V11.7822ZM22.4942 11.7822H21.1746V12.397H22.4942V11.7822ZM23.4023 11.7822H22.7449V12.397H23.4023V11.7822ZM25.2232 11.7822H24.5611V12.397H25.2232V11.7822ZM27.6968 11.7822H26.3772V12.397H27.6968V11.7822ZM24.3104 11.7822H23.653V12.397H24.3104V11.7822ZM26.1313 11.7822H25.4691V12.397H26.1313V11.7822ZM18.3179 30.3081C17.9443 30.3081 17.5044 30.1568 17.2585 29.9156C17.0173 29.6696 16.8659 29.3338 16.8659 28.9649H6.39453V12.7044H8.54651V13.2105H7.50127V28.2886H17.5423V28.9649C17.5423 29.1494 17.618 29.3149 17.7362 29.4379C17.8592 29.5561 18.1335 29.6318 18.3179 29.6318C18.4977 29.6318 18.772 29.5561 18.895 29.4379C19.0132 29.3149 19.0889 29.1494 19.0889 28.9649V28.2886H29.1299V13.2105H28.0846V12.7044H30.2366V28.9649H19.7652C19.7652 29.3338 19.6139 29.6696 19.3726 29.9156C19.1267 30.1568 18.6868 30.3081 18.3179 30.3081ZM13.5836 23.2563H12.9025V25.8717H13.5836V23.2563ZM23.0476 23.2563H23.7239V25.8717H23.0476V23.2563ZM11.5782 23.2563H10.8971V25.8717H11.5782V23.2563ZM25.0529 23.2563H25.7293V25.8717H25.0529V23.2563ZM14.1369 25.1907H15.4565V25.8717H14.1369V25.1907ZM8.95326 25.1907H10.2728V25.8717H8.95326V25.1907ZM22.4942 25.1907H21.1746V25.8717H22.4942V25.1907ZM27.6779 25.1907H26.3583V25.8717H27.6779V25.1907ZM14.1369 24.2258H15.4565V24.9022H14.1369V24.2258ZM8.95326 24.2258H10.2728V24.9022H8.95326V24.2258ZM22.4942 24.2258H21.1746V24.9022H22.4942V24.2258ZM27.6779 24.2258H26.3583V24.9022H27.6779V24.2258ZM14.1369 23.2563H15.4565V23.9326H14.1369V23.2563ZM8.95326 23.2563H10.2728V23.9326H8.95326V23.2563ZM22.4942 23.2563H21.1746V23.9326H22.4942V23.2563ZM27.6779 23.2563H26.3583V23.9326H27.6779V23.2563ZM18.3179 19.8793C17.9443 19.8793 17.6085 20.0306 17.3673 20.2719C17.1261 20.5131 16.9747 20.8489 16.9747 21.2178V21.8468H17.6511V21.2225C17.6511 21.0381 17.7267 20.8725 17.845 20.7496C17.9679 20.6313 18.1335 20.5556 18.3179 20.5556C18.4977 20.5556 18.6632 20.6313 18.7862 20.7496C18.9044 20.8725 18.9801 21.0381 18.9801 21.2225V21.8468H19.6564V21.2178C19.6564 20.8489 19.5051 20.5131 19.2639 20.2719C19.0227 20.0306 18.6868 19.8793 18.3179 19.8793ZM14.1369 21.1705H15.4565V21.8468H14.1369V21.1705ZM8.95326 21.1705H10.2728V21.8468H8.95326V21.1705ZM14.1369 20.2009H15.4565V20.8773H14.1369V20.2009ZM8.95326 20.2009H10.2728V20.8773H8.95326V20.2009ZM14.1369 19.2361H15.4565V19.9124H14.1369V19.2361ZM8.95326 19.2361H10.2728V19.9124H8.95326V19.2361ZM22.4942 21.1705H21.1746V21.8468H22.4942V21.1705ZM27.6779 21.1705H26.3583V21.8468H27.6779V21.1705ZM22.4942 20.2009H21.1746V20.8773H22.4942V20.2009ZM27.6779 20.2009H26.3583V20.8773H27.6779V20.2009ZM22.4942 19.2361H21.1746V19.9124H22.4942V19.2361ZM27.6779 19.2361H26.3583V19.9124H27.6779V19.2361ZM18.6443 3.91206C23.3219 3.92625 27.5549 5.83229 30.615 8.90655C33.6751 11.9808 35.5574 16.2233 35.548 20.9056C35.5338 25.5832 33.6278 29.8163 30.5535 32.8763C27.4792 35.9364 23.2368 37.8188 18.5591 37.8093C13.8768 37.7952 9.64379 35.8891 6.58845 32.8148C3.52838 29.7406 1.64126 25.4981 1.65544 20.8158C1.6649 16.1382 3.57567 11.9051 6.64993 8.84507C9.7242 5.78973 13.9619 3.9026 18.6443 3.91206ZM30.0853 9.43627C27.1624 6.49444 23.1138 4.6688 18.6443 4.65934C14.17 4.64988 10.112 6.45187 7.17492 9.37479C4.23309 12.2977 2.41218 16.3463 2.39799 20.8158C2.38853 25.29 4.19052 29.348 7.11344 32.2851C10.0411 35.227 14.0849 37.0526 18.5591 37.0621C23.0334 37.0762 27.0867 35.2695 30.0285 32.3466C32.9656 29.4237 34.7912 25.3751 34.8007 20.9056C34.8149 16.4314 33.0082 12.3734 30.0853 9.43627ZM18.649 2.25669C23.7854 2.27088 28.4299 4.36611 31.7879 7.74306C35.146 11.1153 37.2176 15.7692 37.2034 20.9056C37.1892 26.0467 35.0939 30.6912 31.7217 34.0493C28.3448 37.4073 23.6908 39.4789 18.5544 39.4647C13.4133 39.4505 8.76881 37.3553 5.41077 33.9831C2.05273 30.6061 -0.0141163 25.9521 7.25884e-05 20.8158C0.00953185 15.6747 2.10476 11.0302 5.48171 7.67212C8.85394 4.31408 13.5126 2.24723 18.649 2.25669ZM18.649 3.00397C13.716 2.98978 9.2465 4.97623 6.0067 8.20184C2.76691 11.4227 0.75681 15.8828 0.742621 20.8158C0.728432 25.744 2.71961 30.2135 5.94049 33.4533C9.1661 36.6931 13.6214 38.7032 18.5544 38.7174C23.4827 38.7316 27.9569 36.7452 31.1967 33.5196C34.4365 30.2987 36.4466 25.8386 36.4561 20.9104C36.4703 15.9774 34.4838 11.5079 31.2582 8.26805C28.0373 5.02825 23.5773 3.01816 18.649 3.00397ZM13.1106 35.2648H13.8484V31.5H12.5714V32.129H13.1106V35.2648ZM15.9626 35.3641L17.0693 33.8837C17.3342 33.5337 17.547 33.1696 17.547 32.7108C17.547 32.2899 17.3815 32.0013 17.1781 31.798C16.8659 31.4858 16.5065 31.4149 16.1045 31.4149C15.7214 31.4149 15.3525 31.4905 15.0308 31.8405C14.7802 32.1196 14.6856 32.4365 14.6856 32.7534C14.6856 33.1459 14.8464 33.4675 15.045 33.6567C15.2626 33.8696 15.6031 33.9783 15.868 33.9783C16.0051 33.9783 16.1518 33.9405 16.27 33.9027L15.3714 35.0756L15.9626 35.3641ZM16.1187 32.0013C16.3409 32.0013 16.5065 32.0959 16.6011 32.1858C16.7146 32.2946 16.8092 32.4554 16.8092 32.6966C16.8092 32.8858 16.743 33.0466 16.6058 33.1838C16.4734 33.3256 16.322 33.3871 16.1187 33.3871C15.9295 33.3871 15.7734 33.3446 15.6315 33.2074C15.4991 33.0844 15.4234 32.9142 15.4234 32.6871C15.4234 32.4412 15.5369 32.2804 15.6268 32.1905C15.7214 32.0959 15.8774 32.0013 16.1187 32.0013ZM18.6916 32.479C18.7058 32.1574 18.9517 31.9872 19.2118 31.9872C19.5098 31.9872 19.7085 32.1858 19.7085 32.4838C19.7085 32.7439 19.5524 32.9993 19.1929 32.9993H19.0936V33.529H19.1882C19.6422 33.529 19.8125 33.8412 19.8125 34.1155C19.8125 34.404 19.6328 34.7162 19.2118 34.7162C18.8477 34.7162 18.6301 34.4891 18.5828 34.1817H17.8497C17.9112 34.9006 18.4835 35.3499 19.2024 35.3499C19.9497 35.3499 20.5456 34.9148 20.5456 34.1391C20.5456 33.5196 20.1247 33.302 19.9733 33.2405C20.3659 33.0229 20.4084 32.6493 20.4084 32.4507C20.4084 31.8216 19.9497 31.4149 19.226 31.4149C18.5828 31.4149 18.072 31.798 18.0011 32.479H18.6916ZM20.8909 35.2648H23.6246V34.631H22.2624L22.9151 33.9263C23.2084 33.6094 23.5962 33.1932 23.5962 32.6115C23.5962 32.0108 23.1469 31.4149 22.2719 31.4149C21.5246 31.4149 20.9807 31.902 20.9476 32.673H21.7044C21.7185 32.3513 21.9219 32.0439 22.305 32.0439C22.6219 32.0439 22.8631 32.2757 22.8631 32.6162C22.8631 32.8338 22.7449 33.0655 22.6408 33.2216C22.5084 33.425 22.0685 33.9263 21.9976 34.002L20.8909 35.2648ZM19.6422 27.4846L28.061 27.1582V26.4819L19.6422 26.8082C19.2781 26.8129 18.9517 26.9596 18.7105 27.2008C18.4646 27.4467 18.3179 27.6737 18.3179 28.0426H18.9943C18.9943 27.8582 19.0652 27.7967 19.1882 27.6785C19.3017 27.5602 19.4625 27.4893 19.6422 27.4846ZM16.9889 27.4846L8.57016 27.1582V26.4819L16.9889 26.8082C17.3531 26.8129 17.6794 26.9596 17.9206 27.2008C18.1666 27.4467 18.3179 27.6737 18.3179 28.0426H17.6369C17.6369 27.8582 17.5659 27.7967 17.443 27.6785C17.3294 27.5602 17.1639 27.4893 16.9889 27.4846Z" fill="white"/>
</g>
<defs>
<clipPath id="clip0_30_646">
<rect width="38.31" height="38.783" fill="white" transform="translate(0 0.842529)"/>
</clipPath>
</defs>
</svg>
