<svg width="252" height="74" viewBox="0 0 252 74" fill="none" xmlns="http://www.w3.org/2000/svg">
<path d="M93.0909 13.6228L89.2229 7.97717L92.9391 2.61737H90.0715L86.7128 7.39652V2.61737H84.1936V13.6228H86.7128V8.53101L90.2323 13.6228H93.0909V13.6228ZM102.042 2.61737H94.0378V13.6228H96.5569V10.1658H102.042C104.212 10.1658 105.892 8.48635 105.892 6.39603C105.892 4.29677 104.212 2.61737 102.042 2.61737V2.61737ZM102.042 7.80744H96.5569V4.97568H102.042C102.81 4.97568 103.382 5.59206 103.382 6.39603C103.382 7.19106 102.81 7.80744 102.042 7.80744ZM113.047 13.6228H115.799L112.056 2.61737H108.849L105.106 13.6228H107.857L108.411 11.8988H112.502L113.047 13.6228ZM109.17 9.54044L110.457 5.49379L111.743 9.54044H109.17ZM121.605 13.8461C123.615 13.8461 125.375 12.8546 126.322 11.3002L124.151 10.0407C123.677 10.8893 122.722 11.3896 121.605 11.3896C119.649 11.3896 118.398 10.0854 118.398 8.12009C118.398 6.15484 119.649 4.85062 121.605 4.85062C122.722 4.85062 123.66 5.35087 124.151 6.1995L126.322 4.94888C125.357 3.38561 123.597 2.39404 121.605 2.39404C118.282 2.39404 115.879 4.88635 115.879 8.12009C115.879 11.3628 118.282 13.8461 121.605 13.8461ZM139.408 2.61737V6.83374H130.011V2.61737H127.501V13.6228H130.011V9.25459H139.408V13.6228H141.919V2.61737H139.408ZM149.056 13.8461C152.218 13.8461 154.782 11.3628 154.782 8.12009C154.782 4.88635 152.218 2.39404 149.056 2.39404C145.903 2.39404 143.339 4.88635 143.339 8.12009C143.339 11.3628 145.903 13.8461 149.056 13.8461ZM149.056 11.3896C147.27 11.3896 145.849 10.0854 145.849 8.12009C145.849 6.15484 147.27 4.85062 149.056 4.85062C150.852 4.85062 152.263 6.15484 152.263 8.12009C152.263 10.0854 150.852 11.3896 149.056 11.3896ZM166.806 2.61737H159.499C157.408 2.61737 155.729 4.29677 155.729 6.39603C155.729 7.82531 156.658 9.12953 157.989 9.6923L155.407 13.6228H158.239L160.58 10.005H164.287V13.6228H166.806V2.61737V2.61737ZM159.499 7.80744C158.811 7.80744 158.239 7.19106 158.239 6.39603C158.239 5.59206 158.811 4.97568 159.499 4.97568H164.287V7.80744H159.499ZM175.927 2.61737H168.691V13.6228H171.21V10.1658H175.927C178.097 10.1658 179.777 8.48635 179.777 6.39603C179.777 4.29677 178.097 2.61737 175.927 2.61737V2.61737ZM175.927 7.80744H171.21V4.97568H175.927C176.695 4.97568 177.267 5.59206 177.267 6.39603C177.267 7.19106 176.695 7.80744 175.927 7.80744ZM186.208 13.8461C188.227 13.8461 189.987 12.8546 190.925 11.3002L188.754 10.0407C188.29 10.8893 187.325 11.3896 186.208 11.3896C184.261 11.3896 183.002 10.0854 183.002 8.12009C183.002 6.15484 184.261 4.85062 186.208 4.85062C187.325 4.85062 188.272 5.35087 188.754 6.1995L190.925 4.94888C189.969 3.38561 188.209 2.39404 186.208 2.39404C182.894 2.39404 180.491 4.88635 180.491 8.12009C180.491 11.3628 182.894 13.8461 186.208 13.8461ZM201.001 13.6228L197.134 7.97717L200.85 2.61737H197.982L194.623 7.39652V2.61737H192.104V13.6228H194.623V8.53101L198.143 13.6228H201.001V13.6228ZM208.076 13.6228H210.596V2.61737H208.711L204.468 8.59354V2.61737H201.948V13.6228H203.833L208.076 7.64665V13.6228ZM214.446 1.68834H219.162V0H214.446V1.68834ZM218.617 13.6228H221.128V2.61737H219.243L215 8.59354V2.61737H212.48V13.6228H214.374L218.617 7.64665V13.6228ZM93.7966 17.4461H84.1936V28.4516H86.7128V19.867H93.7966V17.4461V17.4461ZM100.219 28.6749C103.382 28.6749 105.937 26.1916 105.937 22.9489C105.937 19.7151 103.382 17.2318 100.219 17.2318C97.0572 17.2318 94.4934 19.7151 94.4934 22.9489C94.4934 26.1916 97.0572 28.6749 100.219 28.6749ZM100.219 26.2183C98.4239 26.2183 97.0125 24.9141 97.0125 22.9489C97.0125 20.9836 98.4239 19.6794 100.219 19.6794C102.006 19.6794 103.426 20.9836 103.426 22.9489C103.426 24.9141 102.006 26.2183 100.219 26.2183ZM112.61 28.6749C114.619 28.6749 116.379 27.6834 117.326 26.129L115.155 24.8695C114.682 25.7181 113.726 26.2183 112.61 26.2183C110.653 26.2183 109.403 24.9141 109.403 22.9489C109.403 20.9836 110.653 19.6794 112.61 19.6794C113.726 19.6794 114.664 20.1886 115.155 21.0372L117.326 19.7777C116.361 18.2233 114.602 17.2318 112.61 17.2318C109.286 17.2318 106.883 19.7151 106.883 22.9489C106.883 26.1916 109.286 28.6749 112.61 28.6749V28.6749ZM124.321 17.4461L122.382 22.261L120.229 17.4461H117.719L121.239 25.0124C120.81 25.7806 120.185 26.2094 119.041 26.0933V28.4516C121.096 28.5677 122.686 27.594 123.66 25.2179L126.84 17.4461H124.321V17.4461ZM136.336 26.0308V17.4461H128.108V22.3861C128.108 24.2531 127.751 25.3072 127.242 26.0308H126.125V30.5598H128.644V28.4516H134.996V30.5598H137.515V26.0308H136.336ZM129.922 26.0308C130.315 25.325 130.627 24.2263 130.627 22.4129V19.8045H133.816V26.0308H129.922ZM145.93 28.4516H148.681L144.938 17.4461H141.731L137.988 28.4516H140.74L141.284 26.7275H145.376L145.93 28.4516ZM142.044 24.3692L143.33 20.3226L144.625 24.3692H142.044ZM153.791 17.4461H149.619V28.4516H152.138V24.9945H153.791C155.961 24.9945 157.641 23.3151 157.641 21.2248C157.641 19.1345 155.961 17.4461 153.791 17.4461V17.4461ZM153.791 22.6362H152.138V19.8045H153.791C154.559 19.8045 155.122 20.4208 155.122 21.2248C155.122 22.0198 154.559 22.6362 153.791 22.6362ZM164.072 28.6749C166.082 28.6749 167.842 27.6834 168.789 26.129L166.618 24.8695C166.145 25.7181 165.189 26.2183 164.072 26.2183C162.125 26.2183 160.866 24.9141 160.866 22.9489C160.866 20.9836 162.125 19.6794 164.072 19.6794C165.189 19.6794 166.127 20.1886 166.618 21.0372L168.789 19.7777C167.824 18.2233 166.065 17.2318 164.072 17.2318C160.758 17.2318 158.346 19.7151 158.346 22.9489C158.346 26.1916 160.758 28.6749 164.072 28.6749V28.6749ZM177.356 17.4461H169.182V19.867H172.014V28.4516H174.524V19.867H177.356V17.4461V17.4461ZM187.924 22.7434C188.522 22.2253 188.888 21.5017 188.888 20.5906C188.888 18.6878 187.325 17.4461 185.413 17.4461H178.455V28.4516H185.726C187.691 28.4516 189.281 27.1831 189.281 25.2357C189.281 24.1191 188.745 23.2705 187.924 22.7434ZM185.413 19.8045C185.994 19.8045 186.369 20.2154 186.369 20.7782C186.369 21.3499 185.976 21.7608 185.413 21.7608H180.974V19.8045H185.413V19.8045ZM185.726 26.0933H180.974V23.9851H185.726C186.351 23.9851 186.762 24.4317 186.762 25.0392C186.762 25.6556 186.351 26.0933 185.726 26.0933ZM193.051 26.0308V24.0834H198.902V21.6983H193.051V19.867H199.295V17.4461H190.532V28.4516H199.367V26.0308H193.051V26.0308ZM206.763 17.4461V21.6625H203.297V17.4461H200.787V28.4516H203.297V24.0834H206.763V28.4516H209.273V17.4461H206.763V17.4461ZM219.779 17.4461V21.6625H213.677V17.4461H211.158V28.4516H213.677V24.0834H219.779V28.4516H222.298V17.4461H219.779V17.4461ZM224.183 28.4516H230.4C232.571 28.4516 234.25 26.7722 234.25 24.6819C234.25 22.5916 232.571 20.9032 230.4 20.9032H226.702V17.4461H224.183V28.4516ZM235.197 28.4516H237.707V17.4461H235.197V28.4516ZM226.702 26.0933V23.2705H230.4C231.168 23.2705 231.731 23.8779 231.731 24.6819C231.731 25.4858 231.168 26.0933 230.4 26.0933H226.702ZM241.566 16.5171H246.283V14.8288H241.566V16.5171ZM245.729 28.4516H248.248V17.4461H246.354L242.111 23.4223V17.4461H239.592V28.4516H241.486L245.729 22.4754V28.4516ZM94.7435 32.2749H84.1936V43.2893H86.7128V34.7047H92.2333V43.2893H94.7435V32.2749ZM99.1475 40.8595V38.9121H106.66V36.527H99.1475V34.7047H107.053V32.2749H96.6373V43.2893H107.134V40.8595H99.1475V40.8595ZM119.416 40.8595V32.2749H109.822V37.2149C109.822 39.0908 109.465 40.1449 108.956 40.8595H107.839V45.3886H110.358V43.2893H118.076V45.3886H120.596V40.8595H119.416V40.8595ZM111.636 40.8595C112.029 40.1538 112.341 39.0551 112.341 37.2506V34.6332H116.897V40.8595H111.636V40.8595ZM129.359 43.2893H132.11L128.367 32.2749H125.16L121.417 43.2893H124.169L124.714 41.5563H128.805L129.359 43.2893ZM125.473 39.198L126.759 35.1603L128.055 39.198H125.473ZM141.713 32.2749H133.048V43.2893H135.567V34.7047H141.713V32.2749ZM147.618 43.5037C150.771 43.5037 153.335 41.0203 153.335 37.7776C153.335 34.5439 150.771 32.0605 147.618 32.0605C144.456 32.0605 141.892 34.5439 141.892 37.7776C141.892 41.0203 144.456 43.5037 147.618 43.5037ZM147.618 41.0561C145.822 41.0561 144.411 39.7429 144.411 37.7776C144.411 35.8213 145.822 34.5082 147.618 34.5082C149.405 34.5082 150.825 35.8213 150.825 37.7776C150.825 39.7429 149.405 41.0561 147.618 41.0561ZM161.044 32.2749H154.755V43.2893H157.266V34.7047H161.044V32.2749ZM168.271 43.2893H170.79V32.2749H168.905L164.662 38.2511V32.2749H162.143V43.2893H164.028L168.271 37.3131V43.2893ZM178.258 32.2749V37.0094C177.695 37.2595 177.124 37.3757 176.454 37.3757C175.587 37.3757 174.953 36.8575 174.953 35.8303V32.2749H172.443V36.2054C172.443 38.5191 174.203 39.7965 176.391 39.7965C177.043 39.7965 177.642 39.6804 178.258 39.4481V43.2893H180.777V32.2749H178.258V32.2749ZM185.172 40.8595V38.9121H190.898V36.527H185.172V34.7047H191.291V32.2749H182.662V43.2893H191.372V40.8595H185.172V40.8595ZM197.955 43.5037C199.974 43.5037 201.734 42.5121 202.672 40.9578L200.501 39.6982C200.037 40.5469 199.072 41.0561 197.955 41.0561C196.008 41.0561 194.748 39.7429 194.748 37.7776C194.748 35.8213 196.008 34.5082 197.955 34.5082C199.072 34.5082 200.019 35.0174 200.501 35.866L202.672 34.6064C201.716 33.0521 199.956 32.0605 197.955 32.0605C194.641 32.0605 192.238 34.5439 192.238 37.7776C192.238 41.0203 194.641 43.5037 197.955 43.5037V43.5037ZM212.748 43.2893L208.88 37.6437L212.597 32.2749H209.729L206.37 37.063V32.2749H203.851V43.2893H206.37V38.1886L209.89 43.2893H212.748V43.2893ZM219.823 43.2893H222.342V32.2749H220.458L216.214 38.2511V32.2749H213.695V43.2893H215.58L219.823 37.3131V43.2893ZM226.193 31.3548H230.909V29.8362H226.193V31.3548ZM230.364 43.2893H232.874V32.2749H230.99L226.746 38.2511V32.2749H224.227V43.2893H226.121L230.364 37.3131V43.2893ZM90.1698 47.1126L88.2313 51.9186L86.0785 47.1126H83.5683L87.0879 54.6699C86.6591 55.4382 86.0338 55.867 84.8904 55.7598V58.1181C86.945 58.2253 88.5351 57.2516 89.5088 54.8754L92.6889 47.1126H90.1698ZM104.623 47.1126V51.3201H96.2978V47.1126H93.7877V58.1181H96.2978V53.7409H104.623V58.1181H107.143V47.1126H104.623V47.1126ZM115.155 58.1181H117.674V47.1126H115.79L111.538 53.0799V47.1126H109.027V58.1181H110.912L115.155 52.1419V58.1181ZM129.538 52.4099C130.136 51.8918 130.502 51.1682 130.502 50.257C130.502 48.3543 128.939 47.1126 127.027 47.1126H119.559V58.1181H127.34C129.305 58.1181 130.895 56.8407 130.895 54.8933C130.895 53.7766 130.359 52.928 129.538 52.4099ZM127.027 49.4709C127.608 49.4709 127.983 49.8729 127.983 50.4446C127.983 51.0074 127.59 51.4183 127.027 51.4183H122.078V49.4709H127.027ZM127.34 55.7598H122.078V53.6516H127.34C127.965 53.6516 128.376 54.0893 128.376 54.7057C128.376 55.3131 127.965 55.7598 127.34 55.7598V55.7598ZM134.665 55.6972V53.7409H140.606V51.3558H134.665V49.5335H140.999V47.1126H132.155V58.1181H141.079V55.6972H134.665ZM149.646 47.1126H142.49V58.1181H145.009V54.6521H149.646C151.816 54.6521 153.496 52.9727 153.496 50.8824C153.496 48.792 151.816 47.1126 149.646 47.1126ZM149.646 52.2938H145.009V49.4709H149.646C150.414 49.4709 150.986 50.0784 150.986 50.8824C150.986 51.6863 150.414 52.2938 149.646 52.2938ZM159.928 58.3325C161.938 58.3325 163.697 57.3409 164.644 55.7866L162.474 54.527C162 55.3757 161.044 55.8848 159.928 55.8848C157.98 55.8848 156.721 54.5806 156.721 52.6154C156.721 50.6501 157.98 49.3459 159.928 49.3459C161.044 49.3459 161.991 49.8461 162.474 50.6948L164.644 49.4352C163.688 47.8809 161.929 46.8893 159.928 46.8893C156.613 46.8893 154.202 49.3727 154.202 52.6154C154.202 55.8491 156.613 58.3325 159.928 58.3325V58.3325ZM171.951 58.1181H174.471V47.1126H172.586L168.342 53.0799V47.1126H165.823V58.1181H167.708L171.951 52.1419V58.1181V58.1181ZM187.513 47.1126H175.918V49.5335H180.456V58.1181H182.975V49.5335H187.513V47.1126V47.1126ZM191.131 55.6972V53.7409H198.125V51.3558H191.131V49.5335H198.518V47.1126H188.611V58.1181H198.599V55.6972H191.131ZM209.55 47.1126H199.751V49.5335H203.351V58.1181H205.87V49.5335H209.55V47.1126V47.1126ZM90.3306 72.9469H92.8408V61.9414H90.9559L86.7128 67.9176V61.9414H84.1936V72.9469H86.0785L90.3306 66.9707V72.9469V72.9469ZM105.731 61.9414H103.221L100.228 66.8278L97.2447 61.9414H94.7257V72.9469H97.2447V66.5508L100.094 71.2139H100.371L103.221 66.5508V72.9469H105.731V61.9414ZM108.876 73.1702C109.697 73.1702 110.376 72.4913 110.376 71.6694C110.376 70.8565 109.697 70.1776 108.876 70.1776C108.063 70.1776 107.384 70.8565 107.384 71.6694C107.384 72.4913 108.063 73.1702 108.876 73.1702ZM124.91 67.2387C125.509 66.7206 125.875 65.997 125.875 65.0858C125.875 63.1831 124.312 61.9414 122.4 61.9414H115.95V72.9469H122.713C124.678 72.9469 126.259 71.6694 126.259 69.722C126.259 68.6054 125.732 67.7568 124.91 67.2387ZM122.4 64.2997C122.981 64.2997 123.356 64.7106 123.356 65.2734C123.356 65.8362 122.963 66.2471 122.4 66.2471H118.47V64.2997H122.4ZM122.713 70.5886H118.47V68.4804H122.713C123.338 68.4804 123.749 68.9181 123.749 69.5345C123.749 70.1508 123.338 70.5886 122.713 70.5886V70.5886ZM128.305 73.1702C129.127 73.1702 129.806 72.4913 129.806 71.6694C129.806 70.8565 129.127 70.1776 128.305 70.1776C127.492 70.1776 126.813 70.8565 126.813 71.6694C126.813 72.4913 127.492 73.1702 128.305 73.1702ZM145.939 61.9414H135.38V72.9469H137.899V64.3623H143.419V72.9469H145.939V61.9414ZM149.083 73.1702C149.896 73.1702 150.575 72.4913 150.575 71.6694C150.575 70.8565 149.896 70.1776 149.083 70.1776C148.261 70.1776 147.582 70.8565 147.582 71.6694C147.582 72.4913 148.261 73.1702 149.083 73.1702ZM163.152 72.9469H165.904L162.161 61.9414H158.954L155.211 72.9469H157.962L158.516 71.2139H162.599L163.152 72.9469ZM159.267 68.8555L160.553 64.8178L161.848 68.8555H159.267ZM171.701 73.1702C173.72 73.1702 175.48 72.1786 176.418 70.6153L174.247 69.3647C173.783 70.2134 172.818 70.7136 171.701 70.7136C169.754 70.7136 168.494 69.4094 168.494 67.4441C168.494 65.4789 169.754 64.1747 171.701 64.1747C172.818 64.1747 173.765 64.6749 174.247 65.5235L176.418 64.264C175.462 62.7096 173.702 61.7181 171.701 61.7181C168.387 61.7181 165.984 64.2015 165.984 67.4441C165.984 70.6779 168.387 73.1702 171.701 73.1702V73.1702ZM186.78 61.9414H176.811V64.3623H180.5V72.9469H183.01V64.3623H186.78V61.9414ZM194.096 72.9469H196.848L193.105 61.9414H189.898L186.155 72.9469H188.906L189.451 71.2139H193.542L194.096 72.9469ZM190.21 68.8555L191.497 64.8178L192.783 68.8555H190.21ZM209.166 67.4441C209.166 64.9429 207.219 63.2724 204.235 62.9151V61.6287H201.779V62.9151C198.795 63.2724 196.848 64.9429 196.848 67.4441C196.848 69.9454 198.795 71.6069 201.779 71.9732V73.2595H204.235V71.9732C207.219 71.6069 209.166 69.9454 209.166 67.4441ZM199.358 67.4441C199.358 66.1846 200.144 65.4431 201.779 65.2288V69.6595C200.144 69.4362 199.358 68.7037 199.358 67.4441V67.4441ZM204.235 69.6595V65.2288C205.87 65.4431 206.656 66.1846 206.656 67.4441C206.656 68.7037 205.87 69.4362 204.235 69.6595V69.6595ZM215.875 65.3985H212.945V61.9414H210.426V72.9469H215.875C218.046 72.9469 219.725 71.2675 219.725 69.1682C219.725 67.0779 218.046 65.3985 215.875 65.3985V65.3985ZM215.875 70.5886H212.945V67.7568H215.875C216.643 67.7568 217.215 68.3732 217.215 69.1682C217.215 69.9722 216.643 70.5886 215.875 70.5886ZM223.504 70.526V68.5786H227.434V66.1846H223.504V64.3623H227.827V61.9414H220.985V72.9469H227.899V70.526H223.504V70.526ZM239.637 67.2387C240.235 66.7206 240.601 65.997 240.601 65.0858C240.601 63.1831 239.038 61.9414 237.127 61.9414H229.319V72.9469H237.439C239.404 72.9469 240.995 71.6694 240.995 69.722C240.995 68.6054 240.459 67.7568 239.637 67.2387V67.2387ZM237.127 64.2997C237.707 64.2997 238.082 64.7106 238.082 65.2734C238.082 65.8362 237.689 66.2471 237.127 66.2471H231.829V64.2997H237.127ZM237.439 70.5886H231.829V68.4804H237.439C238.065 68.4804 238.475 68.9181 238.475 69.5345C238.475 70.1508 238.065 70.5886 237.439 70.5886V70.5886ZM249.249 72.9469H252L248.257 61.9414H245.05L241.307 72.9469H244.059L244.603 71.2139H248.695L249.249 72.9469V72.9469ZM245.363 68.8555L246.649 64.8178L247.944 68.8555H245.363ZM77.1902 2.61737V72.9469H75.7519V2.61737H77.1902ZM53.4016 32.1767H15.7847V33.1325H53.4016V32.1767ZM34.5976 35.0531C33.6686 35.0531 32.8378 35.4193 32.2304 36.0178C31.6229 36.6164 31.2567 37.4382 31.2567 38.3404V47.2734H29.9703V38.3404C29.9703 37.0898 30.4974 35.9375 31.3371 35.1067C32.1678 34.2848 33.3202 33.7667 34.5976 33.7667C35.8661 33.7667 37.0185 34.2848 37.8492 35.1067C38.6889 35.9375 39.216 37.0898 39.216 38.3404V47.2734H37.9296V38.3404C37.9296 37.4382 37.5634 36.6164 36.9559 36.0178C36.3485 35.4193 35.5177 35.0531 34.5976 35.0531ZM34.5976 14.3643C35.2944 14.3643 35.9286 14.6501 36.3842 15.1057C36.8398 15.5702 37.1257 16.2045 37.1257 16.9012C37.1257 17.598 36.8398 18.2322 36.3842 18.6878C35.9286 19.1523 35.2944 19.4293 34.5976 19.4293C33.8919 19.4293 33.2577 19.1523 32.8021 18.6878C32.3465 18.2322 32.0607 17.598 32.0607 16.9012C32.0607 16.2045 32.3465 15.5702 32.8021 15.1057C33.2577 14.6501 33.8919 14.3643 34.5976 14.3643ZM34.5976 18.1519C34.9371 18.1519 35.2497 18.0089 35.482 17.7856C35.7053 17.5623 35.8482 17.2496 35.8482 16.9012C35.8482 16.5528 35.7053 16.2402 35.482 16.0169C35.2497 15.7846 34.9371 15.6506 34.5976 15.6506C34.2492 15.6506 33.9366 15.7846 33.7043 16.0169C33.481 16.2402 33.3381 16.5528 33.3381 16.9012C33.3381 17.2496 33.481 17.5623 33.7043 17.7856C33.9366 18.0089 34.2492 18.1519 34.5976 18.1519ZM34.5976 21.198C34.2492 21.198 33.9366 21.3409 33.7043 21.5643C33.481 21.7965 33.3381 22.1092 33.3381 22.4486V31.1136H32.0607V22.4486C32.0607 21.7519 32.3465 21.1176 32.8021 20.662C33.2577 20.2064 33.8919 19.9206 34.5976 19.9206C35.2944 19.9206 35.9286 20.2064 36.3842 20.662C36.8398 21.1176 37.1257 21.7519 37.1257 22.4486V31.1136H35.8482V22.4486C35.8482 22.1092 35.7053 21.7965 35.482 21.5643C35.2497 21.3409 34.9371 21.198 34.5976 21.198V21.198ZM29.1932 20.0814H15.7847V18.9201H29.1932V20.0814ZM39.9932 20.0814H53.4016V18.9201H39.9932V20.0814ZM34.5976 11.4968C33.0969 11.4968 31.748 12.1042 30.7743 13.0779C29.7917 14.0516 29.1932 15.4094 29.1932 16.9012H27.9068C27.9068 15.0521 28.6572 13.3906 29.8721 12.1757C31.078 10.9697 32.7485 10.2194 34.5976 10.2194C36.4378 10.2194 38.1083 10.9697 39.3143 12.1757C40.5291 13.3906 41.2795 15.0521 41.2795 16.9012H39.9932C39.9932 15.4094 39.3947 14.0516 38.412 13.0779C37.4383 12.1042 36.0894 11.4968 34.5976 11.4968V11.4968ZM29.1932 22.404H16.9103V23.3598H29.1932V22.404ZM39.9932 22.404H52.276V23.3598H39.9932V22.404ZM34.5976 13.5603C35.5177 13.5603 36.3485 13.9355 36.9559 14.534C37.5634 15.1414 37.9296 15.9811 37.9296 16.9012V31.1136H39.216V16.9012C39.216 15.6238 38.6979 14.4715 37.8582 13.6318C37.0274 12.801 35.8751 12.2829 34.5976 12.2829C33.3113 12.2829 32.1589 12.801 31.3282 13.6318C30.4884 14.4715 29.9703 15.6238 29.9703 16.9012V31.1136H31.2567V16.9012C31.2567 15.9811 31.6229 15.1414 32.2304 14.534C32.8378 13.9355 33.6686 13.5603 34.5976 13.5603V13.5603ZM25.6557 31.3102V26.7633C25.6557 26.0576 25.3698 25.4233 24.9143 24.9677C24.4498 24.5121 23.8155 24.2263 23.1187 24.2263C22.422 24.2263 21.7877 24.5121 21.3232 24.9677C20.8676 25.4233 20.5907 26.0576 20.5907 26.7633L20.5818 31.3102H21.8681L21.8592 26.7633C21.8592 26.4149 22.0021 26.1022 22.2344 25.87C22.4577 25.6466 22.7703 25.5037 23.1187 25.5037C23.4671 25.5037 23.7798 25.6466 24.0031 25.87C24.2354 26.1022 24.3694 26.4149 24.3694 26.7633V31.3102H25.6557V31.3102ZM43.5306 31.3102V26.7633C43.5306 26.0576 43.8165 25.4233 44.2721 24.9677C44.7366 24.5121 45.3619 24.2263 46.0676 24.2263C46.7644 24.2263 47.3986 24.5121 47.8542 24.9677C48.3187 25.4233 48.5956 26.0576 48.5956 26.7633V31.3102H47.3182V26.7633C47.3182 26.4149 47.1842 26.1022 46.952 25.87C46.7286 25.6466 46.416 25.5037 46.0676 25.5037C45.7192 25.5037 45.4066 25.6466 45.1832 25.87C44.951 26.1022 44.808 26.4149 44.808 26.7633V31.3102H43.5306ZM26.7009 30.0327H29.1932V31.3102H26.7009V30.0327ZM42.4855 30.0327H39.9932V31.3102H42.4855V30.0327ZM26.7009 27.862H29.1932V29.1484H26.7009V27.862ZM42.4855 27.862H39.9932V29.1484H42.4855V27.862ZM26.7009 25.7002H29.1932V26.9776H26.7009V25.7002V25.7002ZM42.4855 25.7002H39.9932V26.9776H42.4855V25.7002V25.7002ZM16.9103 30.0327H19.4026V31.3102H16.9103V30.0327ZM52.276 30.0327H49.7837V31.3102H52.276V30.0327ZM16.9103 27.862H19.4026V29.1484H16.9103V27.862ZM52.276 27.862H49.7837V29.1484H52.276V27.862ZM16.9103 25.7002H19.4026V26.9776H16.9103V25.7002V25.7002ZM52.276 25.7002H49.7837V26.9776H52.276V25.7002V25.7002ZM29.1932 18.536H23.2706V17.3747H29.1932V18.536ZM39.9932 18.536H45.9157V17.3747H39.9932V18.536ZM32.0607 40.5111V41.7886H34.3118V40.5111H32.0607ZM37.1257 40.5111V41.7886H34.8746V40.5111H37.1257ZM32.0607 42.3335V43.6109H34.3118V42.3335H32.0607ZM37.1257 42.3335V43.6109H34.8746V42.3335H37.1257ZM32.0607 44.1647V45.4422H34.3118V44.1647H32.0607ZM37.1257 44.1647V45.4422H34.8746V44.1647H37.1257ZM32.0607 45.9871V47.2734H34.3118V45.9871H32.0607ZM37.1257 45.9871V47.2734H34.8746V45.9871H37.1257ZM29.1932 40.5201H16.9103V41.6278H29.1932V40.5201ZM39.9932 40.5201H52.276V41.6278H39.9932V40.5201ZM21.8681 39.6714V36.1697C21.8681 35.8213 22.0021 35.5087 22.2344 35.2764C22.4577 35.0531 22.7703 34.9102 23.1187 34.9102C23.4671 34.9102 23.7798 35.0531 24.0031 35.2764C24.2354 35.5087 24.3694 35.8213 24.3694 36.1697V39.6714H25.6557V36.1697C25.6557 35.464 25.3698 34.8298 24.9143 34.3742C24.4498 33.9186 23.8155 33.6327 23.1187 33.6327C22.422 33.6327 21.7877 33.9186 21.3321 34.3742C20.8676 34.8298 20.5818 35.464 20.5818 36.1608V39.6714H21.8681ZM47.3182 39.6714V36.1697C47.3182 35.8213 47.1753 35.5087 46.952 35.2764C46.7286 35.0531 46.416 34.9102 46.0676 34.9102C45.7192 34.9102 45.4066 35.0531 45.1832 35.2764C44.951 35.5087 44.808 35.8213 44.808 36.1697V39.6714H43.5306V36.1697C43.5306 35.464 43.8165 34.8298 44.2721 34.3742C44.7366 33.9186 45.3619 33.6327 46.0676 33.6327C46.7644 33.6327 47.3986 33.9186 47.8542 34.3742C48.3187 34.8298 48.5956 35.464 48.5956 36.1608V39.6714H47.3182ZM26.7009 20.662H29.1932V21.8233H26.7009V20.662ZM24.9857 20.662H26.2274V21.8233H24.9857V20.662ZM21.5465 20.662H22.7971V21.8233H21.5465V20.662ZM16.8746 20.662H19.3669V21.8233H16.8746V20.662ZM23.2706 20.662H24.5123V21.8233H23.2706V20.662ZM19.8314 20.662H21.082V21.8233H19.8314V20.662ZM42.4855 20.662H39.9932V21.8233H42.4855V20.662ZM44.2006 20.662H42.9589V21.8233H44.2006V20.662ZM47.6398 20.662H46.3892V21.8233H47.6398V20.662ZM52.3118 20.662H49.8195V21.8233H52.3118V20.662ZM45.9157 20.662H44.6741V21.8233H45.9157V20.662ZM49.3549 20.662H48.1043V21.8233H49.3549V20.662ZM34.5976 55.6526C33.8919 55.6526 33.0612 55.3667 32.5966 54.9111C32.1411 54.4466 31.8552 53.8124 31.8552 53.1156H12.0775V22.404H16.1421V23.3598H14.1679V51.8382H33.1326V53.1156C33.1326 53.464 33.2756 53.7766 33.4989 54.0089C33.7311 54.2322 34.2492 54.3752 34.5976 54.3752C34.9371 54.3752 35.4552 54.2322 35.6875 54.0089C35.9108 53.7766 36.0537 53.464 36.0537 53.1156V51.8382H55.0185V23.3598H53.0443V22.404H57.1088V53.1156H37.3311C37.3311 53.8124 37.0453 54.4466 36.5897 54.9111C36.1252 55.3667 35.2944 55.6526 34.5976 55.6526V55.6526ZM25.6557 42.3335H24.3694V47.2734H25.6557V42.3335ZM43.5306 42.3335H44.808V47.2734H43.5306V42.3335ZM21.8681 42.3335H20.5818V47.2734H21.8681V42.3335ZM47.3182 42.3335H48.5956V47.2734H47.3182V42.3335ZM26.7009 45.9871H29.1932V47.2734H26.7009V45.9871ZM16.9103 45.9871H19.4026V47.2734H16.9103V45.9871ZM42.4855 45.9871H39.9932V47.2734H42.4855V45.9871ZM52.276 45.9871H49.7837V47.2734H52.276V45.9871ZM26.7009 44.1647H29.1932V45.4422H26.7009V44.1647ZM16.9103 44.1647H19.4026V45.4422H16.9103V44.1647ZM42.4855 44.1647H39.9932V45.4422H42.4855V44.1647ZM52.276 44.1647H49.7837V45.4422H52.276V44.1647ZM26.7009 42.3335H29.1932V43.6109H26.7009V42.3335ZM16.9103 42.3335H19.4026V43.6109H16.9103V42.3335ZM42.4855 42.3335H39.9932V43.6109H42.4855V42.3335ZM52.276 42.3335H49.7837V43.6109H52.276V42.3335ZM34.5976 35.9553C33.8919 35.9553 33.2577 36.2412 32.8021 36.6968C32.3465 37.1523 32.0607 37.7866 32.0607 38.4834V39.6714H33.3381V38.4923C33.3381 38.1439 33.481 37.8312 33.7043 37.599C33.9366 37.3757 34.2492 37.2327 34.5976 37.2327C34.9371 37.2327 35.2497 37.3757 35.482 37.599C35.7053 37.8312 35.8482 38.1439 35.8482 38.4923V39.6714H37.1257V38.4834C37.1257 37.7866 36.8398 37.1523 36.3842 36.6968C35.9286 36.2412 35.2944 35.9553 34.5976 35.9553ZM26.7009 38.394H29.1932V39.6714H26.7009V38.394ZM16.9103 38.394H19.4026V39.6714H16.9103V38.394ZM26.7009 36.5628H29.1932V37.8402H26.7009V36.5628ZM16.9103 36.5628H19.4026V37.8402H16.9103V36.5628ZM26.7009 34.7404H29.1932V36.0178H26.7009V34.7404ZM16.9103 34.7404H19.4026V36.0178H16.9103V34.7404ZM42.4855 38.394H39.9932V39.6714H42.4855V38.394ZM52.276 38.394H49.7837V39.6714H52.276V38.394ZM42.4855 36.5628H39.9932V37.8402H42.4855V36.5628ZM52.276 36.5628H49.7837V37.8402H52.276V36.5628ZM42.4855 34.7404H39.9932V36.0178H42.4855V34.7404ZM52.276 34.7404H49.7837V36.0178H52.276V34.7404ZM35.214 5.79752C44.0487 5.82432 52.0438 9.42431 57.8234 15.2308C63.6031 21.0372 67.1584 29.0501 67.1405 37.8938C67.1138 46.7285 63.5137 54.7235 57.7073 60.5032C51.9008 66.2828 43.8879 69.8382 35.0532 69.8203C26.2095 69.7935 18.2145 66.1935 12.4438 60.3871C6.66415 54.5806 3.09989 46.5677 3.12669 37.7241C3.14455 28.8893 6.75348 20.8943 12.5599 15.1146C18.3664 9.34392 26.3703 5.77965 35.214 5.79752V5.79752ZM56.8229 16.2313C51.3023 10.6749 43.6557 7.22679 35.214 7.20893C26.7634 7.19106 19.0989 10.5945 13.5515 16.1151C7.99517 21.6357 4.55596 29.2824 4.52916 37.7241C4.51129 46.1747 7.91477 53.8392 13.4354 59.3866C18.9649 64.9429 26.6026 68.391 35.0532 68.4089C43.5038 68.4357 51.1594 65.0233 56.7157 59.5027C62.2631 53.9821 65.7113 46.3355 65.7291 37.8938C65.7559 29.4432 62.3435 21.7786 56.8229 16.2313ZM35.2229 2.67097C44.9242 2.69777 53.6964 6.65508 60.0388 13.0332C66.3812 19.4025 70.2939 28.1925 70.2671 37.8938C70.2403 47.6039 66.283 56.3761 59.9137 62.7186C53.5356 69.061 44.7455 72.9737 35.0443 72.9469C25.3341 72.9201 16.5619 68.9627 10.2195 62.5935C3.87705 56.2154 -0.0266619 47.4253 0.0001371 37.7241C0.0180031 28.0139 3.97532 19.2417 10.3535 12.8993C16.7227 6.55682 25.5217 2.6531 35.2229 2.67097V2.67097ZM35.2229 4.08238C25.9058 4.05558 17.4641 7.80744 11.345 13.8997C5.22594 19.9831 1.42941 28.4069 1.40261 37.7241C1.37581 47.0322 5.13661 55.4739 11.22 61.593C17.3123 67.7121 25.7272 71.5086 35.0443 71.5354C44.3525 71.5622 52.8031 67.8104 58.9222 61.7181C65.0413 55.6347 68.8378 47.2109 68.8557 37.9027C68.8825 28.5856 65.1306 20.1439 59.0383 14.0248C52.9549 7.9057 44.5311 4.10918 35.2229 4.08238ZM24.7624 65.0144H26.156V57.9037H23.744V59.0918H24.7624V65.0144ZM30.149 65.2019L32.2393 62.4059C32.7396 61.7449 33.1415 61.057 33.1415 60.1905C33.1415 59.3955 32.8289 58.8506 32.4448 58.4665C31.8552 57.8769 31.1763 57.7429 30.417 57.7429C29.6934 57.7429 28.9966 57.8858 28.3892 58.5469C27.9158 59.0739 27.7371 59.6724 27.7371 60.2709C27.7371 61.0124 28.0408 61.6198 28.416 61.9771C28.8269 62.3791 29.4701 62.5846 29.9703 62.5846C30.2294 62.5846 30.5063 62.5131 30.7296 62.4417L29.0324 64.657L30.149 65.2019V65.2019ZM30.4438 58.8506C30.8636 58.8506 31.1763 59.0293 31.3549 59.199C31.5693 59.4044 31.748 59.7082 31.748 60.1637C31.748 60.5211 31.6229 60.8248 31.3639 61.0838C31.1138 61.3518 30.8279 61.468 30.4438 61.468C30.0865 61.468 29.7917 61.3876 29.5237 61.1285C29.2736 60.8962 29.1306 60.5747 29.1306 60.1459C29.1306 59.6814 29.345 59.3776 29.5148 59.2079C29.6934 59.0292 29.9882 58.8506 30.4438 58.8506V58.8506ZM35.3033 59.7528C35.3301 59.1454 35.7947 58.8238 36.286 58.8238C36.8487 58.8238 37.2239 59.199 37.2239 59.7618C37.2239 60.2531 36.9291 60.7354 36.2502 60.7354H36.0626V61.7359H36.2413C37.0989 61.7359 37.4205 62.3255 37.4205 62.8436C37.4205 63.3885 37.081 63.9781 36.286 63.9781C35.5981 63.9781 35.1872 63.5493 35.0979 62.9687H33.7133C33.8294 64.3265 34.9103 65.1751 36.2681 65.1751C37.6795 65.1751 38.8051 64.3533 38.8051 62.8883C38.8051 61.7181 38.01 61.3072 37.7242 61.191C38.4656 60.7801 38.546 60.0744 38.546 59.6992C38.546 58.5111 37.6795 57.7429 36.3128 57.7429C35.0979 57.7429 34.1331 58.4665 33.9991 59.7528H35.3033V59.7528ZM39.4572 65.0144H44.6205V63.8173H42.0477L43.2805 62.4863C43.8344 61.8878 44.5669 61.1017 44.5669 60.0029C44.5669 58.8685 43.7182 57.7429 42.0656 57.7429C40.6542 57.7429 39.6269 58.663 39.5644 60.1191H40.9937C41.0205 59.5116 41.4046 58.931 42.1281 58.931C42.7267 58.931 43.1822 59.3687 43.1822 60.0119C43.1822 60.4228 42.9589 60.8605 42.7624 61.1553C42.5123 61.5394 41.6815 62.4863 41.5475 62.6292L39.4572 65.0144V65.0144ZM37.0989 50.3196L52.9996 49.7032V48.4258L37.0989 49.0422C36.411 49.0511 35.7947 49.328 35.3391 49.7836C34.8746 50.2481 34.5976 50.6769 34.5976 51.3737H35.875C35.875 51.0253 36.009 50.9092 36.2413 50.6858C36.4557 50.4625 36.7594 50.3285 37.0989 50.3196ZM32.0875 50.3196L16.1867 49.7032V48.4258L32.0875 49.0422C32.7753 49.0511 33.3917 49.328 33.8473 49.7836C34.3118 50.2481 34.5976 50.6769 34.5976 51.3737H33.3113C33.3113 51.0253 33.1773 50.9092 32.945 50.6858C32.7306 50.4625 32.418 50.3285 32.0875 50.3196Z" fill="#076B8F"/>
</svg>
